/* XPM */
static char *cdoor1705677137[] = {
/* columns rows colors chars-per-pixel */
"64 64 222 2 ",
"   c #040001",
".  c #0B0000",
"X  c #09070B",
"o  c #120201",
"O  c #1D0605",
"+  c #140906",
"@  c #13070A",
"#  c #140B0B",
"$  c #1C0D0D",
"%  c #1E100F",
"&  c #120F12",
"*  c #1E1110",
"=  c #171519",
"-  c #1D1B1D",
";  c #220E0D",
":  c #2B0E0B",
">  c #21100F",
",  c #280F10",
"<  c #231111",
"1  c #2C1514",
"2  c #2A1816",
"3  c #251D1D",
"4  c #2B1B1B",
"5  c #331614",
"6  c #341915",
"7  c #341C1A",
"8  c #391C1B",
"9  c #25211F",
"0  c #36211D",
"q  c #2B3517",
"w  c #1D1B21",
"e  c #261D21",
"r  c #2A1D23",
"t  c #311F21",
"y  c #252323",
"u  c #2B2424",
"i  c #2C2628",
"p  c #272A2C",
"a  c #2E2A29",
"s  c #332323",
"d  c #3C2423",
"f  c #392827",
"g  c #342B2B",
"h  c #3C2B2C",
"j  c #393327",
"k  c #282A31",
"l  c #362E32",
"z  c #2D3032",
"x  c #3A383A",
"c  c #4C261F",
"v  c #422425",
"b  c #462825",
"n  c #4D2B23",
"m  c #442C2C",
"M  c #4B2D2C",
"N  c #552626",
"B  c #592625",
"V  c #542A25",
"C  c #5B2A26",
"Z  c #562628",
"A  c #582728",
"S  c #552B2B",
"D  c #5A2B2B",
"F  c #44342D",
"G  c #4A322E",
"H  c #52322E",
"J  c #5B322D",
"K  c #452E31",
"L  c #4B2F31",
"P  c #532E32",
"I  c #5C2E31",
"U  c #463433",
"Y  c #4C3332",
"T  c #4A3A39",
"R  c #533333",
"E  c #5C3433",
"W  c #533A32",
"Q  c #5B3B35",
"!  c #5D3539",
"~  c #543A3B",
"^  c #5D3C3C",
"/  c #612F25",
"(  c #622E2A",
")  c #63322B",
"_  c #683529",
"`  c #79382C",
"'  c #633533",
"]  c #6A3635",
"[  c #653A34",
"{  c #6C3B35",
"}  c #633638",
"|  c #6A3738",
" . c #633C3C",
".. c #6C3C3C",
"X. c #773730",
"o. c #733D35",
"O. c #793E35",
"+. c #743D3C",
"@. c #783D3C",
"#. c #2E4917",
"$. c #324719",
"%. c #334A1B",
"&. c #36531A",
"*. c #39551C",
"=. c #3D4C21",
"-. c #3D6221",
";. c #4A4733",
":. c #64423E",
">. c #694338",
",. c #6C423E",
"<. c #744136",
"1. c #794035",
"2. c #73413C",
"3. c #79423B",
"4. c #794A3D",
"5. c #6B523F",
"6. c #436B25",
"7. c #4B7528",
"8. c #517C2B",
"9. c #3A3D45",
"0. c #5C3F41",
"q. c #653E40",
"w. c #6C3E41",
"e. c #733E42",
"r. c #49494B",
"t. c #5C4344",
"y. c #5A4847",
"u. c #5C4949",
"i. c #4F4F54",
"p. c #515457",
"a. c #5B5B5C",
"s. c #654443",
"d. c #6C4343",
"f. c #654944",
"g. c #6B4944",
"h. c #6A454A",
"j. c #654A49",
"k. c #724242",
"l. c #734C44",
"z. c #7C4C41",
"x. c #744749",
"c. c #695549",
"v. c #7B564D",
"b. c #655A5A",
"n. c #755A51",
"m. c #7E5B53",
"M. c #656358",
"N. c #7B6259",
"B. c #5B5D61",
"V. c #6B5F61",
"C. c #646363",
"Z. c #6B6464",
"A. c #6D6A67",
"S. c #746565",
"D. c #746A6A",
"F. c #6E7072",
"G. c #767070",
"H. c #787578",
"J. c #803F39",
"K. c #8A463A",
"L. c #87493C",
"P. c #844C40",
"I. c #86574E",
"U. c #895548",
"Y. c #835A4E",
"T. c #975648",
"R. c #925B4D",
"E. c #835B52",
"W. c #8A5C53",
"Q. c #905F53",
"!. c #836B51",
"~. c #966659",
"^. c #A5665A",
"/. c #A36C5D",
"(. c #AA6A5A",
"). c #926F62",
"_. c #9B6C61",
"`. c #997568",
"'. c #847678",
"]. c #847D7D",
"[. c #887C7D",
"{. c #A26E61",
"}. c #A67566",
"|. c #A57B71",
" X c #55872E",
".X c #578C30",
"XX c #5B8E31",
"oX c #5C9132",
"OX c #629635",
"+X c #659C37",
"@X c #679E38",
"#X c #689F38",
"$X c #6AA03A",
"%X c #698B45",
"&X c #77A94B",
"*X c #7F8076",
"=X c #86B159",
"-X c #7C7F85",
";X c #837F81",
":X c #8A7E81",
">X c #7B8283",
",X c #7D8689",
"<X c #858183",
"1X c #8B8384",
"2X c #88888B",
"3X c #8D8A8B",
"4X c #91888A",
"5X c #848790",
"6X c #8D8E93",
"7X c #8F9294",
"8X c #999798",
"9X c #A39C9C",
"0X c #9B9EA4",
"qX c #A19FA5",
"wX c #9DA3A7",
"eX c #A8A6AB",
"rX c #A4ABAD",
"tX c #ABADB5",
"yX c #AAB5B9",
"uX c #B1B1BA",
"iX c #B8C690",
"pX c #CDDCA1",
/* pixels */
"#X$X&XoX&.. . . . .       . . . o o o o . . . . . .     + &..X#X+XXX&.. . . . o . . . . .   . . o o o o o o o . .     &.oX#X#X#X",
"$X=XiX%X%.$ + % 2 7 7 9 7 2 ; : 1 0 8 0 8 8 8 0 8 7 2 0 a *.7..X X8.*.8 8 8 6 8 8 7 7 7 7 7 7 5 , : 5 8 8 8 8 5 $ + # %. XXX#X#X",
"&XpX!.M.q 2 6 b g.m.m.m.Y.5.n c >.m.Y.Y.E.E.Y.E.m.N.n.n.N.c.%.&.&.=.5.I.I.U.I.I.I.I.I.E.m.m.m.g.V V O.P.U.W.W.4.n 6 0 q $.&.#X#X",
"$X=X+ $ 0 M M >.E._._.{.}.~.` _ Q.}.}.}.{././.~.~.~.~.).|.N.d o O c W.}./.^.^.(.^.^._._._.`.|._.>._ R.(.(.^.^.R.1.J n 0 #   #X#X",
"#X$X. % F f.g.l.5.4.L.R.{.~._ _ R./.R.L.L.U.L.L.L.U.4.Y.).!.G 5 6 C Q.{.T.K.K.K.K.K.P.z.z.I._.~._ _ T.(.T.K.J.K.R.Y.:.d #   $X+X",
"#X#X  < :.n.v.v.4.<.<.1.R.L._ _ U.R.L.1.L.1.1.` 1.<.>.4.Y.v.E n c ' U.R.L.` ` ` ` X.X.o.o.x.Q.I._ _ T.T.J.J.` J.W.Q.l.G % . $X$X",
"#X#X  2 u.!.m.z.4.<.>.<.1.1./ _ 1.4.4.1.1.1.O.O.1.<._ >.,.:.Q P S E +.3.O.X.` X.O.o.o.,.o.k.l.2.C C 3.P.J.` X.X.1.z.v.:.1 . +X$X",
"#X#X  2 u.N.m.l.>.<.<.<._ / / / >.<.1.1.1.1.1.1.1.<.<.[ ' E ! R I D ] @.O.O.@.@.+.+.2.2.k.d...} B C ] 3.J.J.X.X._ ,.Y.f.2 . +X$X",
"$X@X  * ~ c.l.,.>.<.2.{ _ ) C _ _ 2.4.4.o.1.1.1.1.O.>.{ [ ! E E P I | o.@.@.@.e.e.e.+.e.h.h.w.} S A { k.+.@.@.o.o.2.l.:.> . $X$X",
"+XoX  < W f.,.,.>.<.2...{ ) C ) { 2.3.2.3.o.@.1.1.<.{ { [ ! R S Z I | e.e.e.e.e.e.e.e.w.e.h.w. .A D o.+.@.+.+.+.o.,.,.G > . $X$X",
".X+X. < W f.,.,.4.o.2.o.{ ) ) _ o.3.3.3.3.3.O.O.1.o.{ [ [ J J H Z D | +.e.e.e.e.e.e.e.e.x.e.w.} A C { 3.@.1.3.o.{ [ :.G % . +X$X",
" X+Xo < Y g.d.,.2.2.o.+.o._ ) ) ..2.3.3.+.O.+.1.3.<.<.[ [ ' J H Z A | e.e.e.e.e.e.e.e.e.e.e.e.} A D { 3.+.3.4.2.{ >.:.G %   oX$X",
"-.oX. < Y d.d.,.+.+.@.+.| ] ( ( { 2.2.k.2.o.3.@.+.1.{ { [ J E J M I ] e.+.e.e.e.e.e.e.w.e.e.e.} C D { 3.1.<.2.<.<.,.s.G > . .X+X",
"-.oX. < G d.2.k.e.+.@.@.o.] ( ( { 2.k.3.2.3.+.+.+.o.>.{ [ E J n n P  .e.e.+.e.e.e.e.e.w.e.h.e.q.D C o.2.2.1.{ <.,.,.f.Y > . 7.OX",
"OX+X. % Y s.w...+.+.@.| o.] B A { ,.k.k.2.+.+.o.o...o.2...E M b b P w.k.+.o.+.2.w.w.w.e.x.x.x.q.A A ] 2.1.{ { o.5.l.f.G > . OX+X",
"$X$X. > L w.w.e.+.@.@.+.o.( N B { 2.k.k.+.e.+.+.+.o.,.2.,.} M v v P q.x.k.,.,.o.w.w.w.e.x.x.e.q.A C ] 2.o.<.{ >.,.,.f.G > . $X$X",
"$X$X  > G :.d.+.@.| e.e.X.I B B ' @.k.k.e.@.k.e.k.k.d.k.g.:.G d h M :.c.5.<.>.>.{ { ,.,.k.h.w.} S A ] o.+.{ { { ,.,.f.G % . $X+X",
"$X$X. > Y d.w.+.e.@.@.X.@.] B B ' e.k.k.e.e.P.k.k...E M Y m s 4 4 0 j F W W [ >.>.{ ,.d.d.w.| I B Z { +.{ o.{ { ,.,.:.G %   $X$X",
"$X$X  % G s.w.+.@.@.@.| @.( A B ' w.k.k.e.e.e.e.k.! 7 O $ # X . + + # # > 0 W :.>.>...d.w.k.w.} Z B } o.| { | { ,.,.:.F % . $X+X",
"+X$X. % G s.w.e.e.@.@.@.@.] A B | +.k.e.e.e.e.e.! L h g a g g i u 9 9 9 0 j F R :.g. .w.d.d.w.} Z Z } +.+.o.{ { ,.,.:.G %   +X$X",
"+X$X  % Y d...e.@.@.@.e.@.] B A e.e.e.e.e.e.e.! 5 h S.4X4X2X1X:XG.A.C.A.*XZ.g 2 W :.:.s.d.d.w.| Z Z | +.+.o.{ ..2.,.s.G % . #X#X",
"$X@X. * G s.d.+.e.@.@.X.@.] C A | e.e.e.x.e.! K f T D.4X4X4X4X:XG.Z.M.A.H.C.;.a F W ^ :.w.k.h.| A A | e.e.+...o.k.d.f.G > . #X#X",
"$X+X  ; Y s.w.+.X.e.@.@.@.] ( C | e.e.e.e.0.8 h S.G.r.a i a l h s 9 u 9 k 0.D.Z.g 4 Y :.s.w.w.| D D | e.@.+.| ..2.g.g.G > . #X#X",
"$X$X  $ Y s.w.+.+.@.+.@.@.] C C | e.e.e.e.P ; t ;XH.u   X X @ @ + X # + X r =X].u # M s.w.e.h...I D e.e.e.+.+.+.k.g.g.R < . #X#X",
"+X+X  > Y s.w.+.+.+.+.@.+.] B B | e.+.w.w.0.@ r F.F.y X = r r r r r e - X e A.F.9 % U s.s.s.k.| D D +.e.k.e...e.l.l.g.Y > . #X#X",
"$X$X  % Y q.w.+.+.@.@.X.2.' c c } w.| w.e.P @ e B.B.w X w k r r e e e - X - a.p.- # Y f.s.w.d. .D D | e.+.+.o.+.2.d.d.Y > o #X#X",
"#X#X. % Y s.d.+.@.+.@.o.2._ n c ^ q.e.w.h.P # = r.r.= X X X X X X X X     = r.r.= # Y j.q. .q.} Z Z | +.+.{ { o.,.,.:.F $ . #X#X",
"#X$X  * Y s.w.e.+.@.o.@.2._ n n Q q.w.w.! L l T B.B.9.k p p p p i p p p p x a.a.x g U ~ 0.q.q.! Z Z ' e.o.| ] | ,.,.s.F % . #X#X",
"#X+X  % Y s.w.+.+.+.X.@.+.' n n Q s.s.E 8 m S.4X6X6X;X-X-X-X-X>X>X,X,X,X,X,X5X7X3XS.h 4 ~ g.s.^ Z Z } e.+.| o.{ ,.,.s.G < . #X#X",
"+X+X. * Y s.d.+.e.X.@.@.o.' n M :.t.f.G ; s [.tXtXtXtXtXtXtX,X-X*X,XyXyXyXwXrXrXeX].s % Y j.s. .Z P | e.+.+...+.2.g.s.G > . #X#X",
"oX.X. * Y s.e.+.@.@.@.@.+.{ V n W :.u.Y $ u D.8XrXtXtXuXuX;Xi.k p r.7XyXrXrXrXrXeXD.9 % Y j.f. .S S | k.2.+.+.o.k.g.d.Y ; . #X#X",
"+X+X  > Y s.w.e.e.@.e.@.+.{ V n :.:.u.F $ 4 V.3X0X0XqXqXwX-Xw X   p H.wXwX0XwXwX7XZ.9 % U j.f. .H D | k.e.+...,.2.l.g.R < o #X#X",
"#X#X. % R s.d.+.e.@.@.@.+.{ V M :.:.j.U * 4 Z.3X6X6X6X5X-Xp.=     - p.*X,X,X7X6X2XV.- # U u.f.^ S D ..k.k.+...,.k.g.g.Y > o $X+X",
"#X#X  % Y s.d.e.@.@.@.@.+.] V V ;.f.u.F % e C.2X1X;X;XH.i.z &     = z i.F.,X>X,X-XV.- # U f.f.:.S S | k.2.+.o.+.k.x.g.G , o $X$X",
"#X#X. % Y s.k.+.@.e.@.+.3.] V M [ f.y.U % 3 b.;X;X;X;XC.l & X     X & z C.>X<X<X;XV.w $ U j.g.^ S S ..k.e.+.o.,.,.l.d.R > . +X$X",
"#X@X  < R s.d.e.@.@.+.+.+.{ V V ^ s.f.G % 3 b.'.:X;X;Xa.w             - B.H.<X<X:XV.e $ Y j.g.:.S D ..k.e.+.+.+.k.g.f.Y > . +X$X",
"@XoX. * Y s.e.+.e.@.@.@.+.{ S V  .f.s.G ; 4 b.:X1X1X;XV.3             - B.;X1X2X=XV.r * Y f.g.^ P D ..e.e.+.+.,.2.d.g.R < . $X#X",
"#XOX. * Y s.e.e.@.@.@.@.2.{ S V  .f.s.G ; 2 b.'.1X1X;XZ.x e y i p y e x Z.:X1X1X'.b., * Y f.g. .S D ..k.e.+.+...l.l.f.G < o #X#X",
"#XOX  < Y h.k.e.@.@.+.@.+.| B S  .g.s.G < < 0.D.[.1X1X;XG.D.G.].].H.S.Z.H.1X1X'.S.;.> > H g.g. .S D ..k.+.+.+.2.d.l.f.Y > . +XoX",
".XoX  % Y s.k.@.e.e.@.+.2.[ V S  .g.g.Y 1 < h t.D.:X:X1X4X7X8X8X9X9X4X1X:X[.'.S.y.h < 1 R d.d. .S D  .e.+.+.o...2.d.g.Y > . #X+X",
"-. X  * Y h.e.+.@.@.@.+.e.{ B S  .h.g.! b 5 < s u.D.'.:X:X2X4X4X4X4X4X1X:X'.S.u.t < 7 m Q ,.s.} S Z | +.+...{ ..,.d.f.G % . $X$X",
"-. X. < Y s.d.e.@.e.+.@.+.{ C S  .g.h.w.! v , , h y.S.'.:X:X:X;X1X[.:X:X'.S.j.h < < v E  .d.d.} Z D | e.+.+.o.+.,.d.:.Y % . +X$X",
"OX+X. $ Y g.d.+.@.@.@.+.+.| S S  .s.d.d.w.0.v 7 < t i.D.:X2X:X;X:X:X1X[.D.u.s ; 5 0 R :.d.d.d.} D D +.e.e.+.o...k.d.g.Y > . $X$X",
"#X#X. < Y s.d.e.k.+.@.+.2.{ S S  .w.d.h.x.w.! v , < h y.V.V.V.V.V.V.V.b.t.m < ; d H ^ ,.d.x.d. .D D { e.e.+.+.2.l.l.g.Y > . $X+X",
"#X#X. < Y h.d...+.@.+.+.2.{ S S ^ d.w.d.h.h.q.! d 1 < < 3 e 3 r 4 4 4 4 1 1 5 d R  . .,.d.d...[ A A ..e.w.+.{ ..2.g.f.Y < . $X+X",
"#X@X. < R h.d.e.@.e.+.2.o.[ A S } w. .w.w.e.s.q.E d , @ X + + @ @ @ @ O ; , v R  .d.d. .d.,...' Z A ] +.+.+.{ ..,.d.s.Y > . $X$X",
"#X#X. < Y s.d.+.+.@.e...| } S E } d.w...w.d.e.h.w.! d t s s s r 4 4 t t 8 v P } ,.d.,.,.,.d...' B Z | +...{ ..{ ,.,.:.F % . +X$X",
"#X#X. < Y g.k.e.e.@.+.o. .) C E  . .w.w.w.d.e.k.h.q.P K Y U U l h m L P P P }  ...d...d.k.d.,.} N B | +.o.o.{ { ,.g.s.G % . +X$X",
"#X#X. < Y d.d.e.+.+.e...{ ' C E  .w...w.d.k.k.k.d.w.^ ~ 0.T U U K K ~ q.q.q...,.k.d.,.,.d.k...' Z A ] +.+...{ ..,.d.:.G %   $X$X",
"#X#X. < Y s.k.+.e.+.+.+.{ E J E  .w.w.+.k.+.e.k.e.d.w.s.0.~ U L K Y 0.h.w.d.d.k.+.2.+.,.k.d.,.} Z Z ] e.o.o.{ ..,.g.f.Y % . $X$X",
"#X#X. < R d.k.e.e.k.+.+.] ' D ' ..,.w.+.+.2.e.e.e.w.h.s.0.~ R U m Y 0.s.d.e.w.+.+.,.2.,.2.d...} S A | +.,...{ { ,.,.f.G % . $X$X",
"#X#X. < Y d.d.e.@.@.+.o.{ ' D E | d...k.2.e.2.+.+.e.d.w.q.0.U Y L R q.d.w.d.k.+.2.+.,.2.k.2.>.' B A | 2.+.o.....,.g.s.G %   $X+X",
"#X#X. < M d.k.k.e.@.e.o.] ) ( ! | d.+...e.3.k.+.2.w...w.0.! R K m R q.s.k.k.+.+.2.2.2.k.4.d.,.' B Z } +.+.......d.g.s.Y %   #X#X",
"#X#X. ; M s.k.e.@.e.+.+.] ' D E  .w.w...e.@.k.k.k...q. . .~ R L M Y q.d.d.d.2.2.+.2.,.2.k.k.,.! B S { k.........d.s.s.U % . #X#X",
"#X#Xo ; m q.d.k.e.@.+...} ' D '  .....w.+.k.k.+.k.e... .0.! R L L Y q.h.d.k.2.2.,.2.,.k.l.d.,.E V S } ..k..... .d.f.s.U * . #X#X",
"#X#X. ; m  .d.k.e.e.e...] ! D E  .w.s...w.,...k.k.,.s.q.^ ~ U L K Y q.s.d.d.d.d.,.,.,.d.d.g.:.! M V  .k.,... .,.s.g.s.U % . #X#X",
"#X+X. $ m ^ d.x.e.e.w...| ' I E ^ s.w.q.d.w.d.2.e.d.h.0.0.~ Y K K L ~ q.s.d.k.d.,.,.g.g.g.g.s.Q M S } ,.,.:. .:.d.s.y.Y *   $X+X",
"+XoX. ; U s.h.k.w...w...! P P R ^ q.q.q.d.d.d.d.d.d.s.s.0.0.U K K Y 0.h.s.s.d.d.,.g.,.g.g.g.,.Q M M  .d.:.:. .:.d.f.f.U * . $X+X",
".X.X. * Y j.s.s...}  .} E R P R 0.t.s.q.d.d.d.,.d.s.h.t.0.T Y m h L 0.0.s.s.d.:.,.:.:.g.f.g.s.~ M M ^ d.s. .:.:.s.f.y.U % . +XoX",
" X.X  = U u.s.:.! ! ! ! P P L R 0.h.0.s.s.d.d.d.d.g.h.h.0.T h r r h 0.h.g.s.g.f.:.5.f.f.j.g.t.~ M M  .s.d.s.:.:.f.j.y.Y * . oX X",
"6.OX  # g T ~ ~ E R R R L L L Y 0.s.t.s.s.s.g.g.h.j.j.j.j.T 4 @ @ 2 ~ j.j.f.f.f.5.f.f.j.j.j.f.~ M G :.s.s.s.:.f.f.f.u.T *   6.-.",
".X+X%.#.j f m m m h v v d d d h K Y Y Y Y Y R R R R T Y T U %.&.&.$.h T ~ Y Y W F T F W T Y U m 0 d M Y W G G G T T U j #.q oXoX",
"6..X.X8.%.- 3 2 < < < > > $ O ; ; < < < < < < ; , < < * < %.8.XXXX8.$.< < * < * % < < * > * $ $ ; ; > > > , > > % % % %.6. XOX6.",
"OX+X#XXX*.+ # $ $ # + + o o o . o o o o o . . . o o .   . &.XX#X#XXX&.. . . . . . .     .   . o o o o o . o . . . .   &.oX$X$XOX"
};
