/* XPM */
static char *celdoor21705677967[] = {
/* columns rows colors chars-per-pixel */
"64 64 185 2 ",
"   c #010101",
".  c #0B0704",
"X  c #0E060A",
"o  c #0E0A0B",
"O  c #110709",
"+  c #130B0C",
"@  c #190D0C",
"#  c #1D100D",
"$  c #140F10",
"%  c #1B0F11",
"&  c #161314",
"*  c #1B1315",
"=  c #1C161A",
"-  c #17191B",
";  c #1C1A1B",
":  c #22110E",
">  c #241512",
",  c #291513",
"<  c #221812",
"1  c #2D1C13",
"2  c #21161D",
"3  c #2C1519",
"4  c #231C1C",
"5  c #2C1E1D",
"6  c #311E14",
"7  c #321A1A",
"8  c #381C1B",
"9  c #2C201F",
"0  c #33211C",
"q  c #1F1E20",
"w  c #271720",
"e  c #2A1621",
"r  c #231D22",
"t  c #2D1C24",
"y  c #2D1929",
"u  c #311D26",
"i  c #3E1F21",
"p  c #331D29",
"a  c #391F2A",
"s  c #1F2122",
"d  c #242224",
"f  c #2B2526",
"g  c #2C2A27",
"h  c #262629",
"j  c #272A2D",
"k  c #292C2E",
"l  c #3A2926",
"z  c #3B212C",
"x  c #3E2B2D",
"c  c #292E31",
"v  c #3A2C32",
"b  c #333234",
"n  c #383635",
"m  c #3D3937",
"M  c #333538",
"N  c #353B3E",
"B  c #3E3B3C",
"V  c #41221E",
"C  c #472621",
"Z  c #492724",
"A  c #4D2A25",
"S  c #43262B",
"D  c #432D2D",
"F  c #4B2C2E",
"G  c #532C26",
"H  c #522C2C",
"J  c #4B3326",
"K  c #4B302D",
"L  c #573127",
"P  c #5C332E",
"I  c #5A392D",
"U  c #472733",
"Y  c #482731",
"T  c #422933",
"R  c #4D2D36",
"E  c #472A39",
"W  c #4F2C3A",
"Q  c #552E33",
"!  c #512D3A",
"~  c #4B3031",
"^  c #413E3C",
"/  c #543336",
"(  c #5E3335",
")  c #563932",
"_  c #5C3B36",
"`  c #54323B",
"'  c #5E3538",
"]  c #623534",
"[  c #663834",
"{  c #6C3B35",
"}  c #623639",
"|  c #63393D",
" . c #6E3C3A",
".. c #713D36",
"X. c #713D3D",
"o. c #6F442F",
"O. c #644335",
"+. c #6A4032",
"@. c #734434",
"#. c #774636",
"$. c #7B453B",
"%. c #7F493B",
"&. c #5D3340",
"*. c #653741",
"=. c #663942",
"-. c #6F3C40",
";. c #723E41",
":. c #434143",
">. c #4A464D",
",. c #444B4F",
"<. c #4A484C",
"1. c #504D4C",
"2. c #4C4E52",
"3. c #504D53",
"4. c #4E5154",
"5. c #4C555B",
"6. c #5C585A",
"7. c #6F4143",
"8. c #794341",
"9. c #7E4D45",
"0. c #615C5D",
"q. c #565D64",
"w. c #5E5960",
"e. c #615D64",
"r. c #5E6061",
"t. c #5F666B",
"y. c #66666E",
"u. c #6A656B",
"i. c #656B72",
"p. c #6E6F70",
"a. c #736E73",
"s. c #667177",
"d. c #6B767D",
"f. c #6F787F",
"g. c #757075",
"h. c #787377",
"j. c #73727A",
"k. c #7B757E",
"l. c #834B3B",
"z. c #884E3C",
"x. c #85523B",
"c. c #8A553B",
"v. c #8F5A3F",
"b. c #884E40",
"n. c #835142",
"m. c #8C5443",
"M. c #925644",
"N. c #935944",
"B. c #9B5C45",
"V. c #925748",
"C. c #9C5E48",
"Z. c #9D6147",
"A. c #9E614A",
"S. c #A16246",
"D. c #A76448",
"F. c #A96648",
"G. c #AF6A4B",
"H. c #B46E4D",
"J. c #B7704E",
"K. c #6F7980",
"L. c #7D7780",
"P. c #717C83",
"I. c #7E7982",
"U. c #827C85",
"Y. c #857F89",
"T. c #738087",
"R. c #748289",
"E. c #79868E",
"W. c #7E8C94",
"Q. c #808187",
"!. c #86818B",
"~. c #838690",
"^. c #898691",
"/. c #8A8A94",
"(. c #839097",
"). c #87939A",
"_. c #8A969C",
"`. c #90939D",
"'. c #8C98A2",
"]. c #929AA5",
"[. c #949EA8",
"{. c #94A2AB",
"}. c #98A2AC",
"|. c #9BADB7",
" X c #9EB1BB",
/* pixels */
"                                                    .                                                                           ",
"        . @ : 1 6 0 6 1 , % * , 7 6 6 6 6 6 6 6 6 6 6 6 <             # 0 6 6 0 6 6 0 6 0 6 6 6 , : % , 1 6 6 6 1 , @ + X       ",
"      w f 0 I x.c.c.c.c.+.T F @.c.c.c.x.c.c.c.x.c.x.c.c.o.          . o.c.c.c.c.x.x.x.z.c.c.c.c.#.~ Y { x.v.c.c.l.[ v u <       ",
"  X y E ) O.c.S.F.F.J.H.V.' 7.Z.J.G.D.D.F.F.F.F.F.F.F.J.J.%., X o 8 %.H.H.F.D.D.D.F.F.D.F.F.G.J.A.&.' V.H.H.F.D.S.m.7.` D 4 X   ",
"  X t ` 9.N.m.l.l.l.C.G.N._ O.Z.G.M.l.l.%.l.l.l.l.l.z.B.H.v.J 5 t / N.G.v.z.l.l.l.l.l.l.l.l.M.H.A._ / m.G.C.z.%.l.M.C.9.` t o   ",
"  $ S 7.V.Z.b.X.[ { b.C.9.) _ c.B.l...{ {  .{ { [ { X.b.B.l.) x v ' n.B.c...{ { [ {  .{ { { l.N.m./ Q 9.B.b. .{ { z.B.V.7.S $   ",
"  > { N.m.l.$.;. .{ $.9.7.` / @.$.;.;. .[ X.;. .{  .;.;.%. .~ T T K  .$.;.;.{ {  .;.X.{ [ ;.8.%.@.! ! { $.8.;. .{ ..l.m.N.+.>   ",
"  , o.N.z. . .;. .{  .-.&.W W ' { X.;. .{ X.;.X...X.;.X.{ ( R T D K P { ;.;.X.X.;.;.X.{  .;.X.{ ' ! ! ( { X.;. .{ { ..z.B.+.,   ",
"  : P ....{ { {  .{ { { ! W W ] { { { { { {  .;.;.;.X.{ [ P K x T R ( { { ..;.;.;. .{ { { {  .{ ( ! W ( { {  .{ {  .;.8.$.L #   ",
"  @ C [ .. .{ { {  . .[ } W ! ] {  .{ { { {  .;.;.X.{ { { _ K x v W } { { { X.;.;. .{ { {  .{ { ] ! W ' { { { { { ..;.;.[ C @   ",
"  @ C { X.;. .{  .;.X.{ ] W ! ]  .@.X. .{ -.;.;. .{ {  .;.=.W T x ~ } -. .{  . .;.;.X.{  .;.X. .] ! W ( {  .;. .{ {  ...{ C @   ",
"  @ A X.;.;...{  .;.X.{ ( W W ]  .X.;. . . .;. .{ {  . .;.*.W T x Y | ;. .{ {  .;.;.X.{  .;.X. .] ! W ( { X.;.;. .{ { { { Z @   ",
"  % F ;.;.X.{ { { { { { ( W W ] {  .{ { { {  .{ {  .;.;. ._ F x v W } { { { X.;.;...{ { { { { { ] ! W ( { {  .X.;.X. .X. .F %   ",
"  @ Y ;.X.X.{ { {  . .[ ( W W ]  .{ { { { { { { {  .;.;. .' K x T ~ } { { { X.;.;.X.{ { {  .{ { } ! ! ( { {  .;.;.X.{ ..-.Y @   ",
"  @ Z  .;.;.X.{ X.;.X.{ ] W ! ]  .X.;. .{ X.;. .{ { ..;.;.=.R T T ~ | ;. .{ {  .;.;.X.{ { ;.X. .] ! W ( { -.;.;...{ { { { Z @   ",
"  @ Z [ ;.;. .{  .;.X.{ ( W ! ]  .X.;. .{ X.;.;...{ { X.7.=.W T x ~ | ;.X.{ { ..X.;.X. . .;.;.{ ] W W ( { X.;. .{ { {  .{ C @   ",
"  @ C { { ..{ { {  . .{ ( W W ] { {  .{ { { { ;.;.X. .{ { ] K x T R }  .{ { -.;.X. .{ { {  ...{ ] ! W ' [ {  .{ [ ..;.;.{ Z @   ",
"  @ V { ..{ { { {  .{ { ( W ! ] { { { { { { ..;.;.} G A A V 0 9 t a S A A G } ;.;. .{ { { {  .{ ] W W ' {  . .{ { ..;.;. .Z @   ",
"  @ V { ;.;. .{  .;. .{ ( W ! ] { X.;. .{ X.;.;.[ Z > @ @ @ + O + + @ @ @ , Z { ;.;.X. . .;.;.{ ] ! W ( { ;.;. .{ {  .;.;.F @   ",
"  @ C { X.;.X.X.;.;. .{ ( W ! ]  .;.;. .{ ;.;.] G l c c k k k k h r d d j g l F ] ;.X.{ { ;.X. .] ! W ( { X.;.X...{ { ..-.Y %   ",
"  @ V ] ..X.;.;.;. .{ { ( W ! } { {  .{ { ..[ i 4 :.s.E.R.R.R.f.y.e.e.y.K.i.:.5 V ] ..{ {  .{ { ] ! W ' { {  .X.;.X.{  .{ Z @   ",
"  @ V { ..X.;.;. .{ {  .' W ! [ { { { ..{ P A l c 5.d.R.R.R.R.K.y.e.e.y.K.d.5.c l A P { { { { { ] W W '  .{  . .;.;.....{ C @   ",
"  @ C { ;.;.;. .{ {  .-.| R ! | ;. . .X.} i t <.i.t.N j c c c k d d r d j N r.i.<.t i } X... .;.*.R F '  . .{ { ..;.;.;.{ C @   ",
"  @ C { ;.;.X. . .{ ..;.' R ` | ;.{ { ;.} 3 ; 5.E.q.-   . + + + o + $ X   - q.E.5.= 3 } ;... .;.| Q ~ | ;. .{  . .;.;.X.{ V @   ",
"  @ V {  ...;.;. .[ { { ' W ! } { { { ..P , & 2.j.5.&   > 5 u u f 5 u e X & 3.j.,.= , P ..{ { { } R W '  .{ { X.;.;.X. .{ C @   ",
"  @ V { ..X.;.;.X. .{  .' R ! }  .{ { ..( , $ B w.&.& . < f u u 5 5 u w + $ &.w.B + , L .. .{ { ] ! W ' { {  .;.;. .{ ..{ Z @   ",
"  @ V ..;.;.;. .{ { ..;.| R ! =.;.....;.} 3 + b 1.M o   . o + o O O @ X   o N ,.b @ , L X.;.;. .] ! W ( [ X.;.X. .{ { X.-.F @   ",
"  @ V { X.;.;...{ [  .;.| ~ ~ | ;...[ ] / v M 2.r.4.M c j c c c c c c j c M 4.r.2.M l A (  .;.{ ] ! ! ( { X.;.;. .{ { ..-.F %   ",
"  @ V ......;.;.X.{ {  .' W R }  .{ P 8 u 2.P.(.).W.E.T.T.T.R.R.R.R.T.T.T.R.W.).(.P.4.f 8 P .. .] ! W ( { {  .;.;.X.{ ..[ Z @   ",
"  @ V [ ....;.;.X.{ [ { ' R ` [  ...G : ; q.'.|. X X X X|.{.W.R.T.W.{.|. X X X X|.'.q.; # G  . .} W R '  .{ {  .;.;...{ { C @   ",
"  @ V { ;.;.;. .{ { ..;.} ~ ~ =.;.X.G : = 2.~.}.|.|. X X|.E.,.c c ,.E.|. X X X|.}.~.2.= : G ..;.=.~ Y | -.X.{ {  .;.;.;.{ C @   ",
"  @ A { ;.;.;...{ { X.-.| Y ~ | ;...G : * >.I.`.{.{.{.{.).t.s     s t._.{.{.{.[.`.I.>.* : G ..8.| ~ K | X. .{ {  .;.;.X.{ C @   ",
"  @ V { { X.;.;. .{ { { ' R ! | ....G : & >.k.^.^././.Q.p.<.&     - <.p.R.W.'.).^.L.>.& > G ....] ! R ' { { {  .;.;... .{ C @   ",
"  @ V { .. .;.;. .{ {  .' R ! [ ....G : * <.k.!.Y.Y.U.u.<.g o     o g <.u.A.~.I.Y.k.>.= : G ..X.} ! R ' {  .{  .;.;.X...[ V @   ",
"  @ C [ ;.;.;. . .{ X.-.| K ~ | ;.X.G : ; <.k.!.U.Y.k.6.g o         o g w.L.Y.Y.!.k.>.- : G X.;.-.~ K | ;. .{ {  .X.;.;.{ Z @   ",
"  @ C { ;.;.;...{ {  .-.' ~ ~ =.;...G # - <.k.!.Y.!.I.2.&             - 3.L.~.Y.!.k.<.* # G X.X.| ~ ~ ' -. .{ {  .;.;.;.{ V @   ",
"  @ V {  ...;.;. .{ { { ' R W | ....G : - <.k.!.!.!.L.3.&             = 3.L.Y.Y.Y.L.>.= # G  ...| R W ' { { {  .;.X... .[ V :   ",
"  @ V [  ...;.;. .{  .{ ' R ~ [ X.{ G # - :.a.U.Y.Y.I.6.M d j c c j r b w.L.Y.Y.U.a.:.= : G ..X.[ R R ' {  . . .;.;. . .[ V @   ",
"  @ V ..;.;.;. .{ {  .-.| ~ ~ | ;...G , & n 0.h.U.Y.U.j.y.y.K.R.R.K.y.u.j.U.Y.U.h.0.n $ : G ..;.=.~ ~ |  .X.{ { ..;.;.;.{ Z @   ",
"  @ V ..;.;.X. .{ {  .;.' ~ / | ;. .P 7 - s &.0.a.U.Y.Y.!./.].}.}.[.^.Y.Y.U.U.j.0.:.f * 7 P ..X.| ~ ~ | -. .{ {  .;.8.X.{ V @   ",
"  @ V { ..X.;.;. .{ { [ } W ` }  .{ ] Y p 2 r m 6.g.U.!.!.!././././.^.Y.Y.U.a.0.m 4 2 u Y ] { ..| W W ' { {  . .;.;.X.{ { C @   ",
"  @ V [ ....;.;. .{ {  .' R ~ | { { [ ' Y 3 * t ^ 6.g.I.U.!.Y.!.Y.Y.Y.Y.U.a.6.^ d * e U ' [ ..{ } ~ W ' { { {  .;.;.X...[ V @   ",
"  @ V { ;.;.X...{ {  .-.' ~ ~ | ;...[ [ ( Y p = ; n 6.g.I.U.U.Y.Y.Y.Y.I.a.6.n ; 2 p Y ( ] {  .;.| ~ ~ ' -.X.{ {  .X.;.;.{ C @   ",
"  @ A { ;.;.;... .{ ..-.| Y ~ -.;.X. .{ [ ' U y * 9 m <.6.u.e.e.w.e.e.w.1.m r * t E ' { ..{ { ;.| / R ' ;. .{ {  .X.;.;.{ V @   ",
"  @ V [ ..X.;.;. . .{  .' R ! ] X.;.;. .{ [ ] Y p e * ; ; d 4 d r d r q ; = 3 a Y ] -.;.X. .{ { [ R R ' { { {  .;.;.X...{ C @   ",
"  : V ] ..X.;.;. .{ { { ' R ! [  .X.;.X...{ [ } R a % o o o + + o o o + o $ f R } { ..;.;. .{ { } ! ! ' {  . .;.;.X.{ { { C @   ",
"  @ C { ;.;.;. .{ { X.;.| K K P { { X.;.;.X.{ [ ( Y z t 9 5 u u t 5 t u t 0 F ( ] { { { X.;.;. .] ! W ( {  .;.;... .{ ..;.Y @   ",
"  @ C { ;.;.X. .{ {  .7.' K F P { {  .;.;...{ {  .} ` T K K T T x D R R F K I { ..{ {  .X.;.;.{ ] ! W ( { X.;.;. .{ { X.X.F %   ",
"  @ V { ..X.;.;.X.{ { { ' U R }  .X.;.X...{ { X.;. .} } ] I D x T R ( } P [ | ;. .{  .;.;. .{ { ] ! W ( { {  .X.;.X.{ ..{ Z %   ",
"  @ V [ { X.;.;.X.[ {  .( W R ]  .X.;.X. .{ { X.;.;. .{ { P D D T R ' { {  .X.;.X.{  .;.;. .{ { } ! W ( { {  .;.;.X.{ { { Z @   ",
"  @ V ..;.;.;...{ { ..-.' ~ K P { {  .;.;. .{ { ..;.;.;. .I R T x ~ | ;... .{  . .{ { { ;.;.;.{ ] ! W ( { -.;.X.X.{ { X.;.Y %   ",
"  # V ..;.;.X. .{ { X.;.| K J ] { { X.;.;. .{ {  .X.;.X.{ ( R T x ~ | ;...{ {  .{ { {  .;.;.@.{ ] ! W ( { X.;.;. .{ {  .X.F %   ",
"  @ V { ..X.;.;. .{ {  .' R W (  .X.;.X. .{ {  .;.;. . .{ ( D x v R } { { { X.;. . . .;.;. . .{ ] ! W ( [ {  .;.;.X.{ ..{ Z @   ",
"  @ V [ ..X.X.;. .{ { { ' R ~ ] { ;.;.;.{ { {  .;.;...{ { P K x T W ' { { { X.;. .{  .;.;.X. .{ ] ! W ( { {  .;.;.X.{ {  .Z @   ",
"  @ V { $.;.;. .{ { X.7._ K K ( { {  .;.;...{ {  .;.;.;.{ ( R T x ~ | ;.X.{ { { { { { { X.;.X. .] ! ! ( { X.;.;.X.{ { X.;.Y %   ",
"  @ Z { X.;.;. .{ {  .-.*.~ K [  .{ { ;.;.;. .{ { ..;.;.{ ' R T x Y | ;...{ { { { { {  .X.;.;.{ ] ! W ( { X.;.;. .{ { X. .F %   ",
"  @ V [ { X.;.;. .{ { { ' R ! =.;. .{ { ..;.;. .{ {  .;.;.| Y D v W } { { { X.;. .{  .;.;. .{ { } ! W ( { { ..X.;.X. . .{ Z @   ",
"  @ A { ..X.;.;. .{ { { ' W ! =.;.X.{ { { X.;.;. .{ { ..;.| ~ v T R } { { { X.;.X.....;.;.X.{ { ] ! W ' {  . .;.;.X. ...{ Z @   ",
"  @ A [ ;.;.X... .{ ..;.| ~ ~ } X.;.;.{ { { ..;.;.X.{ {  .} W T D Y | ;...{ {  .{ { {  .;.;.;. .] ! W ( {  .;.;. . .{ ..;.F @   ",
"  @ C { ;.;.;.X. .{ X.;.| ~ K I  .8.;.X. .{  .X.;.;.....{ / z p 9 l _ ;.X.{ {  .{ { {  .;.;.X...] ! ! (  .X.;.;.X. .{ ..;.Y %   ",
"  + V { ..X.;.;.X.{ {  .' R ! ] { { X.;.;.....{  .;.;.;.{ Z > o o , A { .. . .;.X.{ ..;.;.X...{ ] ! ! ] { { ..;.;.X. ...{ A @   ",
"      V G G Q Q Q G A G S a z A G G G ! Q H G G G H Q Q C             V G G Q Q Q G Q Q Q A G G S z a S A G G Q Q H G G 0       ",
"      @ @ @ % > @ @ @ @ @ + + @ % @ : % % % # @ % % : % +             O @ @ % * % @ % > % @ @ % @ + + % % # @ % > % @ @ +       ",
"                                                                                                                                "
};
