/* XPM */
static char *dd_1_1705509684[] = {
/* columns rows colors chars-per-pixel */
"64 64 109 2 ",
"   c #713C37",
".  c #793F37",
"X  c #743E39",
"o  c #7A4037",
"O  c #76403A",
"+  c #7C453C",
"@  c #7F483E",
"#  c #82463A",
"$  c #834A3E",
"%  c #8B4C3D",
"&  c #944F3A",
"*  c #96523D",
"=  c #A6593C",
"-  c #AC5D3E",
";  c #B05E3D",
":  c #B2603E",
">  c #834C41",
",  c #8A4E40",
"<  c #865043",
"1  c #8D5243",
"2  c #935544",
"3  c #985741",
"4  c #945946",
"5  c #9B5B46",
"6  c #945C49",
"7  c #9A5D49",
"8  c #A05D45",
"9  c #A15F48",
"0  c #97604C",
"q  c #9A634D",
"w  c #A4634A",
"e  c #A9654B",
"r  c #A5694F",
"t  c #AD694D",
"y  c #B26342",
"u  c #BD6740",
"i  c #BD6840",
"p  c #B46C4E",
"a  c #B86E4F",
"s  c #BC714F",
"d  c #A56B52",
"f  c #AB6D52",
"g  c #B66E50",
"h  c #B86F50",
"j  c #AE7255",
"k  c #AF7658",
"l  c #B57353",
"z  c #BD7453",
"x  c #B67857",
"c  c #BC7955",
"v  c #B37758",
"b  c #B57A5A",
"n  c #B97E5C",
"m  c #C96E42",
"M  c #CC7244",
"N  c #C3734D",
"B  c #CC764A",
"V  c #D87A47",
"C  c #D27B4C",
"Z  c #DB7E4A",
"A  c #C17653",
"S  c #C37A55",
"D  c #C97E55",
"F  c #C37E59",
"G  c #C87F58",
"H  c #BC815E",
"J  c #BF8460",
"K  c #DB834F",
"L  c #C58057",
"P  c #CD8257",
"I  c #C6825C",
"U  c #CA835B",
"Y  c #CB895F",
"T  c #D58352",
"R  c #DD8B57",
"E  c #D1865A",
"W  c #D38A5C",
"Q  c #DA8E5D",
"!  c #DD925F",
"~  c #E0854F",
"^  c #E38953",
"/  c #E28F59",
"(  c #E2945E",
")  c #E89259",
"_  c #C18560",
"`  c #C98760",
"'  c #C68B63",
"]  c #CB8D63",
"[  c #D28E62",
"{  c #CD9066",
"}  c #D49265",
"|  c #DD9563",
" . c #DD9866",
".. c #D59668",
"X. c #D99768",
"o. c #D5986A",
"O. c #DD9D6C",
"+. c #E19662",
"@. c #E29A65",
"#. c #E89A62",
"$. c #E39E6A",
"%. c #DEA06F",
"&. c #DFA270",
"*. c #E3A26E",
"=. c #E9A56E",
"-. c #E4A672",
";. c #E9A770",
":. c #E7A974",
">. c #E9AB75",
/* pixels */
"! ! ( ( ( ( =.@.*.=.-.:.-.-.-.:.:.-.-.$.@.| +.@.O.*.-.-.-.-.-.$.@.| | @.$.*.-.-.-.-.-.:.&.:.-.:.-.-.-.-.-.-.-.:.>.>.-...U c h g ",
"! ( | ! ! ! ( @.*.*.-.-.:.-.:.&.-.-.&.$.@.+.| @.$.-.-.:.:.-.&.$.@.+.+. .&.*.-.-.-.-.-.-.&.:.-.:.-.-.-.-.-.-.-.:.:.-.O.} I z h p ",
"+.| ! ! W W W .. .*.-.-.:.-.-.:.:.-.-.$.@.+.+.+.$.&.-.:.-.-.*.*.@. .@.@.$.-.-.:.:.-.-.-.-.*.-.*.-.-.-.-.:.-.-.&.O.o...` F z h a ",
"@. .| W L c c I { %.-.:.:.-.:.&.-.-.*.$.@.| +.@.$.-.-.-.-.-.-.*.$.@.@.$.&.-.-.:.-.-.-.*.*.*.%.*.*.:.&.:.:.-.&.o.' J n b l z h a ",
"=.$.X.U l w q k Y %.:.:.:.:.-.:.-.-.-.$.+.+.+.@.$.&.-.:.-.-.-.*.*.$.$.*.&.-.-.-.-.-.-.*.*.@. .$.*.-.-.:.:.-.%.' b d q e e g g g ",
";.-.o.H d 2 1 d H o.%.:.:.%.-.-.:.-.*.$.@.+.+.@.$.*.-.-.-.-.-.-.-.-.-.-.-.-.-.-.:.-.%.*.@. .@.@.*.%.:.:.:.-.o.J d 6 1 4 w g h h ",
">.-.o.J d 6 6 d H o.:.:.:.-.-.:.-.-.-.$.@.@.@.@.*.-.-.-.:.:.-.-.-.-.-.-.-.-.-.:.:.-.*.*.@. .@.@.*.*.-.:.:.-.o.J d 1 , 2 9 t h h ",
">.:.O.] b d d k ' %.:.:.:.:.:.:.:.>.-.-.$.$.$.$.-.-.:.:.:.:.:.:.:.:.:.:.:.:.:.:.:.:.=.=.@.( @.@.*.=.:.>.>.:.O._ j 7 4 5 e g h h ",
":.:.&.o.] _ _ ' o.&.:.:.:.:.>.:.:.:.:.-.-.=.*.-.:.:.>.:.:.:.:.:.:.:.:.>.>.:.>.:.:.:.-.*.@.@.@.@.&.;.>.:.:.:.O.{ n j f t f g h h ",
":.-.-.%.O.o.o.O.&.&.-.-.:.*.-.:.-.-.-.-.-.*.-.-.-.-.-.-.:.-.-.-.-.-.-.-.-.-.:.-.:.-.-.$.@.! ( @.$.-.-.:.:.;.%.X.] F c z h h h g ",
"O.%.O.O.O.%.$.O.%.O.%.O.o.o.o.o.o.o.o.o...o.o.o...o.o.o.o.o.X.o.o.o.o.o.o.o.o.o.o.o...[ Y W W W } ..o.%.O.O.O.} [ ` F A A h h g ",
"{ } } } } ........} { Y I H H H n n n n n n n n n n n n n n n n n n n n n J n n n n b b x l l x b n n ` ` { [ ` ` G F z A h h g ",
"F G G ` I ` U ` U I F x j r q q q q q q q q q q r q q q q q q q q q q q q r q q q q 7 7 6 7 7 7 7 7 r j b F F F F A z z h z g g ",
"A c c z c A A A S z l e 6 < > > > > > > > < > > > > > > > > > > > > > > > > > > > > > > > > # $ > > , 7 d g A F z z z h h h h h ",
"z F F z A z A A z z p q 1 @ O O O + + + > . + X O X O O . + . > > . + X X X X X + > $ # $ $ + . X X + 2 9 g F F A c z z z h h h ",
"F G G F I I I I G S s w 1 O   O . > , , , , > + O X X O + > , , , , , + X X X + > 2 2 3 * & % # O X + 1 r z F ` ` G G F A h h g ",
"..} } } } } } [ W E A t 2 + O + , 4 3 5 8 5 2 , + X X + , 3 5 8 9 5 3 , + O O $ 5 t g g y y = & # . > 2 j _ } } } } [ G F z h g ",
"O.%.O.O.%.O.O.X.+.| G g 4 $ + $ 3 9 t g p t 9 2 , . + , 2 e t p p p w 4 $ + $ 2 t G D C V m u 8 , # > 0 b { O.-.-.O.X.] F z g g ",
"-.-.-.-.-.-.*.*.$.+.` g 4 > + , 8 g z z A h g 9 , > > , 5 t g g p t e 5 1 1 2 r c W ! / ^ Z M y & # > 0 n o.:.>.:.-.O.} G A g g ",
":.:.:.:.:.:.;.;.=.$.[ z 7 $ + 1 9 h A D G S h 9 , + + 1 9 g g p e 9 5 5 0 q d b Y X.@.#.) ~ C y 3 > > 0 n o.:.>.>.:.-.} G A g a ",
":.-.:.:.:.-.;.;.;.$.} b 5 > > , e A D E G D A e 1 # + , 8 p p t 5 2 2 6 d v _ ] X. .*.#.#./ D N 3 # > q n o.:.>.>.:.&.} ` c h g ",
"-.-.-.-.-.-.-.-.:.-...n 0 > # 2 e S D D Q D A t 2 $ + , 8 t t 9 2 % 1 7 v ] o.&.*.-.*.*.@.! D h 2 > > q n o.-.>.>.-.O.} G c h g ",
"-.-.-.-.-.-.-.:.:.-.o.n q > > 1 t A E Q W E A g 2 > . > 5 9 e 7 6 < 4 d J o.:.>.:.-.*.$.O.[ F e 2 > > q n o.-.>.>.:.O.} F z h g ",
"-.-.-.-.-.-.:.:.:.-.o.n q > + 2 t S D Q Q E S f 2 > . > , 3 7 7 6 q d b { &.>.>.>.:.*...G z p 5 , . > 7 n o.-.:.:.-.O.X.G A g g ",
":.-.:.-.-.-.;.:.:.-.o.n q > > 2 t S E W Q E S t 4 + X X + > 1 7 d v J { o.-.-.>.>.>.&.{ n d 2 > + O < q n o.:.>.>.:.O.} G z g g ",
"-.-.-.-.-.-.-.:.:.-.o.n q > > 1 t S E W W E S p 4 $ X X O + , q b ] X.&.-.-.-.>.:.:.o.n d 2 $ O X X > q n o.-.>.>.-.O.} G F g g ",
"*.*.-.-.-.-.:.:.:.-.o.n 0 > > 2 e A E E E P S e 2 @ X X O @ 6 d _ o.-.:.;.-.-.&.&.o.G b 7 < + X   X < q n o.-.>.>.-.%.} G z g g ",
"*.%.%.&.-.-.-.:.>.&.o.n 0 > + 1 w z D D P D z e 1 + O + < 6 d H { %.-.>.;.-. ...{ n n d 7 2 > + X X < q n o.:.>.>.-.O.} G A h p ",
"@.@.@.$.&.;.-.:.>.-.o.n 0 > @ , 9 h A S D A g 9 1 + O < q k J { o.-.:.;.=.$.| Y v d 7 0 5 5 2 , + O > q n o.-.>.>.-.O.} G F g g ",
"+.+.+.@.$.&.-.:.:.-.o.n q > + , 5 p z z A h p 5 , + > 6 k ' o.&.-.*.*.=.$.+.W z w 1 1 2 9 e e 2 , + > q n o.-.>.>.-.O.} G n g g ",
"| / +.| $.*.;.:.>.-.o.n q > + , 5 p p g a t e 5 1 1 1 d J o.-.>.>.:.*.%. .W L p 5 , , 1 9 t t 9 , + > q n o.-.>.>.-.%.} G z g a ",
"D [ | | O.&.-.:.:.:.o.n 0 > + , 5 t p p e 8 5 5 7 q f H { &.:.>.>.:.%.X.Y c t w 5 1 , 5 e p t 9 , + > q n o.-.>.>.-.%...G z a a ",
"E E E | X.-.-.>.>.:.o.n q > + , 8 t p e 0 1 1 0 d v J { o.&.>.>.>.>.%.{ x r 7 4 3 5 9 9 a a t 8 , + > 7 n o.-.:.>.:.O.} G F h p ",
"D D U [ X.&.-.>.>.&.o.n q > + , 8 t t w * $ % q v { o.%.-.-.-.>.:.:.o.J r 2 1 % 8 9 t g g a t 5 , + > q n o.-.:.:.:.O.} G c h p ",
"D D U [ X.*.-.:.>.-.o.n q > + , 2 9 w 5 2 < 1 r J o.:.>.>.-.-.&.%.o.' k 0 > + % 5 t g A A h p 8 , > > q n o.:.>.:.-.%.} G A h g ",
"P E W [ X.*.-.>.>.-.o.J q > O + , 3 7 7 3 5 r x { O.>.>.>.>.-.X.{ H k q < + O , 5 p h A A A g 9 , + > q n o.-.>.>.:.%.{ G A g p ",
"W Q Q |  .-.-.:.>.:.o.J q , O O # > 1 5 w p c Y ..O.:.>.>.>.&.{ H d 6 < O O O < 5 t h A D S z w 1 + > q n o.-.>.:.-.O.} F F g g ",
"Q Q | |  .*.-.:.>.&...J q > O   X + , 5 p S Y | O.-.-.>.:.-.o._ d 2 > O O O + 1 5 t A S D D A e , > > q n ..-.>.>.-.O.} F F g g ",
"! ! +.@.$.-.-.:.:.&.{ n 0 > .   . + , w c W +.=.*.-.-.-.&.o.] v q < + X X O + 1 9 p z G P P S t 2 > > 7 n o.-.>.>.-.%.} G A g g ",
"( +.+.@.$.-.-.-.&.X.] k 6 $ . . # & 8 p D | $.=.;.-.-.o.{ J b f 7 1 $ + O O + 1 w h S P E E S t 2 > > 7 n o.-.:.>.-.&...G A h p ",
"! ( +.$.$.*.-.O.O.} U l 6 + + # & = i S W  .=.;.>.>.%.{ b d 0 7 7 7 4 % # + + 1 e z P E Q D D t 1 > > q n o.:.>.>.-.O.} G z g g ",
"( ! +.@.*.*.-.O.X.] n d 1 $ # % - : B K ! @.-.>.:.-.o.J d 6 , 2 7 e e 3 $ + @ 2 t c P E W E S t 1 > > q n o.-.>.>.-.O.} G F g a ",
"! ! +.@.$.-.&.O.o.[ L r 6 > # & ; m Z ^ ( *.*.&.&.o.' b 0 < , 2 9 g p 5 1 + @ 2 t S P E E D A t 2 # > q n ..=.-.>.-.O.[ G z g a ",
"( +.+.@.$.*.-.-.O...I j 6 + # & : M Z ^ ( @.$.o.{ J b d 7 2 2 7 g z h e 2 # + 2 w z D E E G z 9 , # > 7 b } $.;.-.*.X.[ G A a a ",
"( | +.$.*.*.-.-.*.%.Y k 0 $ # & : M K ^ ) @.| Y v d w 7 7 5 w p z S A t 2 # + 1 w s S D D S g 9 , + > 7 z [ @.$.$.@.+.[ G z g g ",
"! ( | +.$.-.-.-.:.%.{ H 0 # # & : m V K ) ! W c r 1 , 1 7 w p z S D c t 2 @ + 1 7 p h z A h p 9 , > > 5 h [ +.@.#.+.! Q F A g a ",
"W R | | X.O.%.-.%.%.{ x 0 @ # & = : B T T P L t 4 $ + > 2 9 g g A A z w 1 + + $ 2 w t p p t 9 3 > + + 2 p G Q +.! Q G G z A g a ",
"E E U W W [ } } X...I j 4 @ o # & ; : : a p t 6 > . X + , 3 9 e e e w 2 $ + O + % 4 5 8 5 5 3 , # X + 2 t D G / G G G G A A g g ",
"S S S D G G F ` ` G b r 2 + X . # & & 3 3 2 1 , + X   X + , 1 1 1 6 1 > + X X O . > , , , , > + X X + , w h S D S S A A z z h h ",
"z z A z c z A A A c g w 1 + O O . + + $ $ # @ + O O X X O + + + $ @ + + O O O O X + + + + + + X X X + 2 9 g z A A A h z h h h h ",
"z S z A A A A z F F g r 6 , > > $ $ > > > , > , > > > > > > > , > > > > > > , > > > > > > > > > > > 1 6 t l z F A A A z z h h h ",
"I I I I ` I ` ` ` F F g p 9 7 2 7 2 7 6 7 0 0 0 q q q q q q q 0 0 0 q q q q q q q q q q q q q q q q d f v F I U ` I G F A h h g ",
"........} ..o...} } ] U F c l g A z h g b b n n J J H n H n H n n n n n n n n n n n n n n n n n n n J _ ] [ } } ....[ ` F z g g ",
"O.O.O.O.O.$.O.O.O.$.O...[ W Y E G G [ [ } o.o.o.o.o.o...o.o.o...o.o.o.o.o.o.o.o.X.O.o.o.o...o.o.o.o.X.X.X.%.O.-.*.O.X.] G z h g ",
"-.-.-.O.X.o.o.O.&.-.*.*.@.( ( ! +.+.@.@.%.-.-.-.&.-.-.-.*.*.$.*.-.-.-.-.:.-.-.:.-.-.-.-.=.*.-.-.-.-.-.-.-.-.$.O.O.X.} ` F z h g ",
"$.$. ...] J _ { o.&.=.=.$.@.#.@.@.#.*.*.;.>.>.>.>.>.:.-.$.@.@.*.*.>.>.>.>.>.>.>.>.>.>.-.-.=.;.;.>.>.:.:.:.-.O...] _ n b z h g g ",
"*.@...U k d d n { %.-.=.$.@.( #.$.=.=.=.;.>.>.>.>.>.-.$.+.( / +.$.;.>.>.>.>.>.>.:.>.:.-.$.$.$.$.-.;.:.;.=.$.| ` v d r r t g h h ",
"@.! W c r 4 6 d J o.*.*.$.+.+.@.@.%.*.-.-.;.-.-.:.-.$.! / K Z / +.$.-.-.:.-.-.:.:.-.-.*.$.@.@.@.$.-.-.-.$.+.[ F r 2 1 2 9 t h h ",
"( ! E z 7 , , q n } O.$.| | ! | X.O.%.%.%.O.O.%.-.O.@.| C C C T Q  .O.%.O.O.%.%.O.O.O. .! | Q | @.O.$.X.+.| G h 7 , > 1 9 p h z ",
"! Q I l e 4 2 w x _ [ [ W E E E [ } { } } } } } } } [ E D B B C E [ } } ..} [ ..} } [ [ [ E D [ [ [ [ [ W E S g 9 2 2 3 9 g h h ",
"W E I c t e 9 t z S I I G S G G F G F G G G G G G F F S A N N N F G G G I ` G ` G ` G G S D S D G G ` G S S A g e 9 9 w t p g h ",
"Y Y I S l g f p g z A z z z z z A A F F F z F A z F F A h N N h z A c A c z z z A z z z z z z A A z z z A A z g p p t p p g h h ",
"` U I S z z h g g h h h p z h h a h h g h g a a a g g g h h h h g g a g g g h h a a g g h h g g g g h h a a a g g h h h h h h h ",
"` I I G A z z h h g a p p g p p p g g p g g p p a p a g g g g g g g p a a g g g a a a g g g p a a g g g a g g g A h h A h h h h "
};
