/* XPM */
static char *door1705317564[] = {
/* columns rows colors chars-per-pixel */
"64 64 161 2 ",
"   c #76432B",
".  c #7A462C",
"X  c #7F482E",
"o  c #784730",
"O  c #7E4A32",
"+  c #7E4F39",
"@  c #7F503B",
"#  c #3F3D46",
"$  c #4A4E5F",
"%  c #574C54",
"&  c #5E4F51",
"*  c #5F5257",
"=  c #55525D",
"-  c #5B545C",
";  c #674E4B",
":  c #6D534C",
">  c #76574C",
",  c #77594D",
"<  c #615255",
"1  c #6B5655",
"2  c #6D5857",
"3  c #625459",
"4  c #6C5758",
"5  c #6E5959",
"6  c #775B53",
"7  c #7D5E54",
"8  c #715B5A",
"9  c #4C4F60",
"0  c #4E5162",
"q  c #555665",
"w  c #5D5761",
"e  c #575867",
"r  c #5C5965",
"t  c #555768",
"y  c #555868",
"u  c #5C5B69",
"i  c #4F5C72",
"p  c #545C71",
"a  c #625C65",
"s  c #5E616F",
"d  c #5F6371",
"f  c #696167",
"g  c #64626D",
"h  c #6B646B",
"j  c #746263",
"k  c #7B6664",
"l  c #73676C",
"z  c #75696D",
"x  c #7F6C6A",
"c  c #656572",
"v  c #696772",
"b  c #656876",
"n  c #6B6A75",
"m  c #6D6D7A",
"M  c #716D75",
"N  c #716E79",
"B  c #6E707E",
"V  c #73727C",
"C  c #7B757C",
"Z  c #834B2D",
"A  c #894E2E",
"S  c #834D32",
"D  c #8A4F30",
"F  c #875035",
"G  c #8B5235",
"H  c #86553C",
"J  c #8C553A",
"K  c #935533",
"L  c #995735",
"P  c #975832",
"I  c #9B5A34",
"U  c #915639",
"Y  c #955A3B",
"T  c #9C5D3D",
"R  c #A45E35",
"E  c #9F603F",
"W  c #A76036",
"Q  c #AD6337",
"!  c #A4623C",
"~  c #AF6538",
"^  c #B36637",
"/  c #B86736",
"(  c #B16639",
")  c #B4693B",
"_  c #BB6B3C",
"`  c #855946",
"'  c #8C5A41",
"]  c #805F55",
"[  c #9D6243",
"{  c #816155",
"}  c #8A675B",
"|  c #86685E",
" . c #8C6B5D",
".. c #9D6C55",
"X. c #966C59",
"o. c #9A6F5D",
"O. c #9C715E",
"+. c #A56441",
"@. c #A96642",
"#. c #AD6944",
"$. c #A16748",
"%. c #A3694A",
"&. c #AC6E4C",
"*. c #B56C43",
"=. c #B96E44",
"-. c #B46E49",
";. c #B86F48",
":. c #B67146",
">. c #BC7146",
",. c #B3724E",
"<. c #BC744B",
"1. c #A26D54",
"2. c #AB7256",
"3. c #A2725A",
"4. c #B37351",
"5. c #BA7651",
"6. c #B77857",
"7. c #BE7A53",
"8. c #B77A59",
"9. c #B87A5A",
"0. c #806561",
"q. c #856B65",
"w. c #886C63",
"e. c #846F6B",
"r. c #886F69",
"t. c #83706F",
"y. c #8C726C",
"u. c #947267",
"i. c #A17664",
"p. c #AA7961",
"a. c #C37345",
"s. c #C2774D",
"d. c #C87748",
"f. c #C4784E",
"g. c #C97A4C",
"h. c #D17F4F",
"j. c #C47C53",
"k. c #C97C51",
"l. c #C47F58",
"z. c #AF806A",
"x. c #CB8056",
"c. c #C6815A",
"v. c #CB835A",
"b. c #D38050",
"n. c #CB8A65",
"m. c #677185",
"M. c #6C7383",
"N. c #687488",
"B. c #757581",
"V. c #797781",
"C. c #7C7B85",
"Z. c #767B8A",
"A. c #797B88",
"S. c #847D84",
"D. c #807F8A",
"F. c #7F808B",
"G. c #83838D",
"H. c #89878F",
"J. c #898790",
"K. c #8B8B95",
"L. c #8C8D98",
/* pixels */
"~ ( ~ (   P / ~ ~ ~ ~ ~ ~ ~ ~ ~ ~ ) Z . / Q ~ ( Q ^ ! = r v c % # s n r = ! ^ Q ( ~   R ^ ~ ~ ~ ~ ~ Q ( ~ ~ ~ Q ) X   ) Q ~ ~ Q ",
"~ ~ ~ ) . I ( ( ~ ~ ( ~ ~ ^ ~ ~ Q ) A X ) ~ Q Q ( ^ E = s n c # # s v s = E ^ ( ~ Q   R ( Q ~ ( ( ~ ~ ~ ~ ~ ~ ~ ) X   ) Q Q ~ ~ ",
"~ ~ ~ ) X I ( ~ ~ ~ ( ~ ~ ~ ~ ~ Q ) A X ) Q ) ) Q ^ ! = r b v # # c M r = E ^ ~ ^ ~ . W ~ ~ ~ ~ Q ~ ( Q ~ ~ ~ ~ ) Z   ) ~ Q ~ ~ ",
"~ ~ ~ ) Z R ( ~ ~ ~ ~ ~ ~ ~ ^ ~ Q ^ A Z ) Q Q Q ~ ^ ! = s n c # # g n s = E ^ ~ Q Q Z W ( ~ ~ ~ ( ~ ~ ( ~ ( ~ Q ) Z . / Q Q ( ~ ",
"~ ( ~ ( G R ( ( ~ ~ ~ ^ ~ ^ ~ ~ Q ) Z Z ) ~ ~ ( Q ^ &.r s v v # # c n r - E ^ ( ~ ( A Q ( ~ ~ ~ ~ ( Q ( ~ ~ ~ ~ ) Z H >.Q Q ^ ~ ",
"~ ~ ~ ) D W ( Q ~ ~ ~ ~ ~ ~ ~ ~ Q ) Z Z ) ~ ~ ~ ( :.&.s - H.V # # V.K.q = ! ( ~ ~ ( A W ( ~ ~ ~ ( Q ( ~ Q ~ ( ~ ) H H :.Q Q ~ ~ ",
"~ ~ ~ ( K W ( Q ~ ~ ~ ~ ~ ~ ~ ~ ~ ) Z Z ) ~ ~ ~ ) ,.! = s M b # # b M s - E ^ ( ~ ~ D Q ^ ~ ^ ~ ~ Q ( ( ( ( Q ( _ ' Z / ~ Q ~ ~ ",
"~ ( ~ ( P W ( ~ ~ ^ ~ ~ ~ ^ ~ ~ ~ _ Z Z ) ~ ) :.:.) ! = s c c # # d v s = E ( ( ^ ( P ~ ~ ~ ~ ~ ~ ~ Q Q Q Q ( ) >.O X / Q Q Q Q ",
"~ ~ ~ ( I Q ~ Q ~ ~ ~ ~ Q ( Q ( Q ) A D ( ~ :.) ( ^ R = u n v # # v n s = ! Q ~ ~ ( I ~ ~ ~ ~ ~ ~ ) ~ ) ) ) <.:.>.Z Z _ ) ~ ) ) ",
"~ ~ ^ ~ W Q ~ W ~ ( ~ ( ( ~ ~ ~ ~ ) Z D ) :.#.:.~ ( [ = u n c # # v n r = ! ^ Q ( ) ! ) >.:.>.<.s.<.s.s.j.c.c.l.b.F F x.<.:.f.f.",
"~ ~ ~ ~ W ~ ~ W Q ~ ( ~ ~ ( ~ Q ~ ) Z G >.) #.( ~ ( +.= u n c # # c n s = #.>.<.<.<.7.f.f.f.f.f.f.f.s.s.j.l.j.f.x.Z G b.<.*.f.7.",
"~ ~ ~ ~ ~ ~ ~ W Q ~ ~ ( ~ ~ ~ ~ ~ ( D Y >.~ ~ ~ ~ ^ R = u n v # # d n r = ,.g.7.<.d.7.f.f.f.<.<.f.<.s.l.c.j.<.<.x.X K x.<.) f.f.",
"( ( ( ^ ( ( / W ~ ( ( ( ( ( ( ( ~ ) G Y _ ^ ^ ( ~ ^ ! = u n b # # c n s % ,.g.f.>.g.f.f.f.g.<.g.f.f.k.c.j.f.f.f.k.F K x.<._ f.f.",
"W ! W Q ! ! W I ! Q W ! ! ! ! Q ! ~ X G ( ! ! ! ! ) %.= u v c # # v n s = &.<.5.:.<.5.<.5.:.,.<.<.,.,.<.,.<.<.<.j.S J j.:.#.,.<.",
"w w w w - w w w - w w w - - a g h f w - w w - w w a w = u v g # # c n - = - s - w - r r - r f g h a - w w a a w w w w - w w a w ",
"n n b B L.m b n n m n n B L.V.B B.A.v m b m L.V v v c q r K.V.# # V H.s = d n v B L.n b n n V B V G.L.m b m v b m v n L.V b n n ",
"n n v n C n v n v v n v n C V.C.C.C.c v v v V.n v n g = r V n # # v V u = g v c M V.v c v c B.C.C.C.V.v v v n v v c v V.n v v v ",
"0 0 0 0 9 0 0 0 0 0 0 0 0 9 y b b q q 0 0 0 $ 0 0 0 0 = u v c # # g n u = 9 q q 0 $ 0 0 0 0 t c b t $ q 9 q 9 q 9 q q 9 0 q 0 9 ",
"> > > > > > > : > > , , , > 7 7 7 7 : , { ] 7 7 ] ] 6 = u m c # # b n u = 6 { 7 7 ] ] ] ] ] 6 ] 7 7 7 6 , ] 7 7 { ; : { 7 6 7 ] ",
"/ ( / / / / / I ( / / >.:._ g.g.d.b.Y @.h.g.g.g.g.g.<.= u n c # # c n e q <.g.g.a.d.h.v.v.g.=.d.g.g.k.a.a.k.g.g.h.D ! b.d.a.g.g.",
"~ ~ ~ ~ Q ~ ^ P W ~ -.7.<.*.j.<.<.k.Y +.k.<.j.<.s.s.4.= u v c # # c n u = -.s.s.;.s.l.n.l.s.#.5.f.s.<.;.;.f.<.<.k.F T k.<.=.s.s.",
"~ ~ ~ ~ Q Q ~ K ~ *.l.j.=.*.f.s.s.k.U +.g.f.f.s.s.f.,.= u M c # # v n u = 4.k.<.a.k.n.f.s.s.#.s.f.s.k.>.*.k.f.s.k.S +.k.s.=.s.s.",
"~ ~ ~ ~ ~ ~ ~ P :.j.f.f.>.*.f.s.s.k.Y @.k.f.j.s.s.g.-.= u v c # # v n u = -.f.s.f.l.5.s.s.f.#.s.s.s.f.=.*.f.f.<.k.D +.k.s.>.s.s.",
"~ ~ ~ ~ ~ Q Q E l.j.<.f.>.=.f.s.s.k.Y #.f.s.<.f.s.f.4.= u M c # # c n u q ,.f.l.j.f.s.s.s.s.@.s.f.s.f.<.*.f.s.f.k.G +.k.s.;.s.s.",
"~ ~ ~ ~ ~ ~ <...x.<.f.f.>.=.f.s.<.k.Y #.j.f.s.f.s.f.4.= u c c # # c b u = ,.c.c.f.s.s.s.s.s.@.s.f.s.f.a.*.f.s.s.l.G @.k.s.;.f.s.",
"~ ~ ~ ~ ~ <.c.E <.f.<.f.>.=.f.s.s.k.Y #.f.s.s.s.s.f.,.= u J.B.# # B.J.w - 8.j.j.s.s.s.s.s.s.+.s.s.s.f.;.*.s.s.s.k.G @.k.s.;.s.s.",
"~ ~ ~ ~ :.c.f.Y <.d.f.f.<.=.f.f.s.k.Y *.f.s.s.f.f.g.4.= u B.N # # m B.u u 8.j.s.s.s.s.s.s.s.+.s.f.s.f.a.*.s.s.s.k.G &.k.s.a.f.s.",
"~ ( ~ _ c.x.7.Y <.f.7.f.>.>.f.f.s.k.Y *.k.d.d.f.s.f.4.= a c c # # c v u a 6.d.f.f.d.f.f.s.s.[ f.s.s.f.a.*.s.s.s.k.G #.k.s.;.s.s.",
"~ ~ ) f.<.f.f.Y 7.d.f.f.<.>.f.<.s.j.Y *.s.o.1.f.s.d.4.= a n c # # v n u = ,.f.s.f.3.o.a.f.s.T s.f.s.f.s.*.s.s.s.k.G #.k.s.<.s.s.",
"~ ( f.f.f.f.<.U <.f.<.f.<.>.f.s.s.k.[ =.2.i h s.s.f.4.= u m c # # c n u = ,.f.f.f.a p 2.f.s.T s.s.s.s.s.=.f.s.s.k.U #.f.s.s.s.s.",
"~ <.f.<.<.f.<.U f.f.<.f.<.>.f.s.s.k.[ ;.5.s 0.f.s.f.4.= u n c # # c n u = ,.f.s.s.k a <.f.s.[ a.s.s.s.s.*.s.s.a.k.U #.k.s.<.s.s.",
":.f.f.f.f.f.<.U 7.d.f.f.d.>.7.f.s.f.T *.4.M w.a.f.f.-.= u v c # # c n e = ,.f.d.s.r.M ,.s.s.[ f.s.s.s.s.=.s.s.s.f.U -.f.s.s.s.f.",
"s.s.s.s.s.s.7.G s.f.s.s.s.>.j.s.s.k.[ e.M.N n B.o.d.4.= u v c # % s b u - ,.d.O.B.m v M.r.<.T s.s.s.s.s.=.s.s.s.f.U -.g.s.s.s.s.",
"s.s.s.s.s.s.<.G s.s.s.s.s.<.s.s.s.a.e.M.} g j q.N.3.;.= u M c # # g n u q :.3.N.q.j c } M.e.L f.s.s.f.s.=.s.s.s.f.Y *.f.s.s.s.s.",
"s.s.s.s.s.k.<.G s.s.<.s.s.<.s.s.s.2.m.1.4.i j a.e.C -.= u c s # # g b u = &.C x a.h p <.1.m.` d.s.s.s.s.=.s.s.s.f.Y ;.f.s.s.s.s.",
"s.s.<.j.s.s.<.F s.s.<.s.s.a.s.s.d.u.N a.5.w.X.a...B.1.- e J.B.# # B H.r - 1.B...k.X.} 7.<.N w.d.s.s.s.s.=.s.s.s.k.Y ;.f.s.s.s.s.",
"s.s.<.f.j.s.<.D f.s.<.s.s.s.s.s.d.u.N ;.f.g.d.d.1.M.p.a u C.m # # m C.u - 1.M.1.g.<.d.g.<.N 0.d.s.s.s.f.;.s.s.s.k.Y j.l.s.s.s.s.",
"s.s.<.s.<.k.;.S f.s.>.s.s.s.s.s.d.2.m.1.g.f.s.a.x S.6.u a c c # # c v e = ,.C x d.a.<.d...m.` d.s.s.s.f.;.s.s.s.k.[ l.l.s.s.s.s.",
"s.f.>.f.s.k.<.S f.f.>.s.f.s.s.s.f.s.t.M.X.-.&.e.Z.p.5.= u n c # # b m u = <.3.N.q.&.&.X.M.e.U f.s.s.s.f.;.s.s.s.l.1.5.s.s.s.s.s.",
"s.s.>.f.s.f.-.S f.f.=.s.f.s.s.s.s.f.@.e.M.m.B.A.i.f.4.= u M c # # c n e = ,.g.O.B.m M.M.y.*.K f.s.s.s.f.=.s.f.l.l.[ <.k.s.s.s.s.",
"s.s.<.f.s.f.-.S j.s.=.s.s.s.f.s.s.f.@.d.,.i.p.5.g.f.;.= a n c # # c n u = ,.f.d.<.1.3.4.d.<.F f.s.s.s.s.<.s.l.l.k.T ;.f.f.s.s.s.",
"s.s.;.f.s.f.;.S f.j.=.s.f.s.s.s.s.f.@.s.f.k.k.f.s.f.4.= u n c # # v n u = ,.f.7.f.>.a.f.f.-.G k.s.s.s.s.<.j.c.j.f.R s.f.s.s.s.f.",
"s.s.=.s.s.f.*.O f.s.;.f.s.s.s.s.s.f.#.5.l.l.f.;.s.f.4.= u n c # # v n u = 4.f.7.f.>.<.f.k.-.G f.s.s.s.j.s.j.l.s.s.E <.f.s.s.s.s.",
"f.d.a.f.f.k.*.X g.d.=.f.f.g.f.f.f.f.;.k.v.k.f.;.f.g.4.= u n c # # c n u - :.g.d.f.=.s.g.g.>.D g.d.f.g.c.j.f.f.d.k.+.s.g.f.f.f.f.",
"5 5 8 8 1 8 4 & 5 8 2 5 8 1 8 5 8 8 5 k j 8 1 1 8 8 4 = u c g # # g v u = 4 5 8 8 1 2 5 8 5 * 8 8 5 4 k j 5 8 8 8 3 8 1 8 8 8 8 ",
"c c c v A.c d b c c c d b Z.b c c d c b c c A.b d c s = u D.N # # V F.r = s c g c A.c c c c c b c c Z.b c c c d c c c A.c c u c ",
"m n n N J.n n n n n n n N H.V B.V.N n n n N J.N v N b = e D.B.# # V F.u = v M n V H.n n n n M V V.V J.m v m n n n n n J.N n N m ",
"q q q q q q e u r q q q q q b u u m q r q q 0 r e e q = a c c # # c c u 0 q y y q q q y y y n u s n q q e e r q q r q q r e e q ",
"3 3 3 3 3 3 3 % 3 3 3 3 3 3 z l l z * 3 3 3 a * * 3 * = u n c # # c n u = 3 3 * 3 3 * * 3 3 a z l M 3 3 3 3 3 3 3 * 3 3 3 3 3 3 ",
"f.s.<.s.<.k.+.o k.s.s.s.s.s.l.n.n.j.<.s.s.f.a.;.f.f.,.= a n c # # c n u = ,.j.s.s.f.f.s.k.#.J n.n.j.s.f.s.s.s.s.s.#.s.s.s.f.f.f.",
"s.s.<.f.s.g.+.o k.s.s.s.s.s.s.s.s.f.5.s.s.f.;.=.f.d.4.= u v c # # c n u = ,.f.s.s.s.f.s.k.@.Z j.s.s.f.f.s.s.s.s.s.*.<.s.s.s.5.s.",
"s.s.s.s.s.k.+.  f.s.s.l.l.s.s.s.s.s.s.f.s.s.;.=.f.s.,.= u M c # # c v u = ,.f.s.s.s.a.l.n.@.Z k.s.s.s.s.<.s.s.s.s.-.s.s.s.s.s.s.",
"s.s.s.s.s.k.+.  f.s.l.c.j.s.s.s.s.s.s.s.f.f.a.*.f.f.-.= a n c # # v N u = 4.d.s.s.f.l.l.k.@.S k.s.s.s.s.s.s.s.s.s.-.f.s.s.s.s.s.",
"s.s.f.s.<.k.E . k.j.n.j.s.s.<.s.s.s.s.f.s.f.=.*.f.f.4.= u n c # # c v u = ,.f.s.s.l.l.l.k.+.Z j.s.s.s.a.s.s.s.s.s.;.s.s.s.s.s.s.",
"s.s.s.s.s.k.T o l.l.f.s.f.f.<.s.s.f.s.s.s.f.a.*.f.f.4.= u v c # # c v u = ,.k.f.l.l.f.f.g.@.Z k.s.s.s.<.s.s.s.s.s.;.s.s.s.s.s.s.",
"f.s.s.s.s.g.T + v.f.s.s.s.f.=.s.s.s.s.f.s.f.=.=.f.f.4.= e A.N # # N A.u = ,.f.l.l.j.s.s.k.T O k.s.s.s.=.s.s.s.j.s.<.f.s.s.s.s.f.",
"f.s.s.s.s.h.+.> l.k.s.s.f.s.;.s.s.s.f.s.s.f.=.*.j.f.,.= u G.N # # B.G.u = 4.k.l.l.s.s.a.f.[ O k.s.s.f.;.f.s.s.s.j.<.s.s.f.s.s.s.",
"s.s.s.f.s.l.[ o k.s.s.s.s.f.=.s.s.s.s.s.s.f.=.*.f.f.,.= u v c # # s v u = 6.l.l.f.s.f.s.g.[ Z k.a.s.s.;.f.f.s.s.s.s.f.s.7.s.s.s.",
"s.s.s.f.j.n.[   k.s.s.s.s.f.=.s.s.s.s.s.s.f.;.*.f.f.,.= u m v # # c v u r 9.k.s.s.s.s.5.k.T S g.s.s.s.;.f.s.s.s.s.s.f.s.s.f.s.s.",
"s.s.f.f.l.k.U   f.s.s.s.s.f.=.s.s.f.s.s.s.f.;.*.f.f.,.w u v c # # c m a a 6.d.f.s.s.f.a.k.T Z j.s.s.s.;.f.s.s.f.s.s.s.f.s.s.s.s.",
"s.s.s.s.f.k.U   f.s.s.s.f.s.=.s.s.s.s.s.s.f.=.*.s.f.4.= a v b # # c n e q 4.f.s.s.s.s.s.g.Y Z f.s.f.s.=.s.s.s.s.s.s.f.s.j.s.s.s.",
"f.s.s.s.f.g.U   g.s.s.s.s.s.*.s.s.s.f.s.s.f.=.) f.f.-.= u n v # # v n u = -.f.s.s.f.f.s.k.Y O k.s.s.s.*.f.s.s.s.s.s.s.s.s.s.f.s.",
"s.s.s.f.f.j.G   g.f.s.s.s.s.*.s.f.s.s.s.f.f.=.*.f.f.4.= u n v # # v m u - ,.f.f.s.s.s.s.k.Y X k.s.s.<.*.f.s.s.s.s.f.s.s.f.s.s.s.",
"s.s.s.s.f.k.G   j.s.s.s.s.s.*.s.s.s.s.s.s.f.=.) f.f.4.= u n c # # c v u = -.f.s.s.f.s.s.k.Y O k.s.f.a.*.j.f.s.s.s.s.s.s.s.s.s.s."
};
