/* XPM */
static char *grasst1705581170[] = {
/* columns rows colors chars-per-pixel */
"64 64 162 2 ",
"   c #000000",
".  c #170209",
"X  c #1A0409",
"o  c #0F1B07",
"O  c #111F08",
"+  c #0B0312",
"@  c #071410",
"#  c #081712",
"$  c #091912",
"%  c #11161E",
"&  c #240707",
"*  c #280E0B",
"=  c #2B100B",
"-  c #230718",
";  c #112007",
":  c #122008",
">  c #172909",
",  c #1F360E",
"<  c #162E16",
"1  c #1B2219",
"2  c #1C3313",
"3  c #1E3810",
"4  c #2A290E",
"5  c #20370E",
"6  c #223A0F",
"7  c #2E3411",
"8  c #253E10",
"9  c #2C3C15",
"0  c #333E14",
"q  c #170621",
"w  c #400C0D",
"e  c #740C2E",
"r  c #651E28",
"t  c #7E0F3F",
"y  c #274012",
"u  c #294313",
"i  c #2A441A",
"p  c #354015",
"a  c #36571B",
"s  c #395A1C",
"d  c #364B23",
"f  c #3D6221",
"g  c #406623",
"h  c #446C25",
"j  c #477127",
"k  c #487227",
"l  c #4A7329",
"z  c #4D7C2A",
"x  c #507A29",
"c  c #351356",
"v  c #3D1263",
"b  c #48125D",
"n  c #57195C",
"m  c #7E0F40",
"M  c #771246",
"N  c #53146B",
"B  c #471676",
"V  c #491576",
"C  c #691860",
"Z  c #601969",
"A  c #4D2E6B",
"S  c #552B63",
"D  c #4E306A",
"F  c #4A3E6B",
"G  c #462975",
"H  c #68216A",
"J  c #2B6E4F",
"K  c #2A6D50",
"L  c #2F7E5E",
"P  c #595F44",
"I  c #4F4060",
"U  c #A0231E",
"Y  c #A2291F",
"T  c #82142E",
"R  c #890F36",
"E  c #800F3F",
"W  c #8C1036",
"Q  c #81103F",
"!  c #8C1539",
"~  c #961334",
"^  c #9B1432",
"/  c #9B1A37",
"(  c #9B1B38",
")  c #A01632",
"_  c #A51D35",
"`  c #B52126",
"'  c #BC2323",
"]  c #B22336",
"[  c #C5222D",
"{  c #CA242D",
"}  c #D2262C",
"|  c #D52C2F",
" . c #DE2A2A",
".. c #DF302D",
"X. c #C62735",
"o. c #CA2A36",
"O. c #E12B2A",
"+. c #E2312D",
"@. c #E43730",
"#. c #C64636",
"$. c #D55138",
"%. c #E74B3E",
"&. c #EA4C3C",
"*. c #F54F3B",
"=. c #EE533F",
"-. c #F5503B",
";. c #FA573E",
":. c #FA583E",
">. c #931C40",
",. c #CF4846",
"<. c #ED5340",
"1. c #E25349",
"2. c #FF6042",
"3. c #4E8B24",
"4. c #4F802B",
"5. c #53842D",
"6. c #58872F",
"7. c #55892F",
"8. c #59882F",
"9. c #578C30",
"0. c #5A8E31",
"q. c #5D9233",
"w. c #559E32",
"e. c #619534",
"r. c #659C37",
"t. c #689F37",
"y. c #649539",
"u. c #679E38",
"i. c #689F38",
"p. c #5AA127",
"a. c #5AA129",
"s. c #6BBE2F",
"d. c #63A437",
"f. c #65A53A",
"g. c #6BA13C",
"h. c #61B437",
"j. c #62B839",
"k. c #6AC12F",
"l. c #6BC131",
"z. c #378656",
"x. c #3B836B",
"c. c #3E9666",
"v. c #3E9A64",
"b. c #37946F",
"n. c #398070",
"m. c #379570",
"M. c #389770",
"N. c #429B5B",
"B. c #628D42",
"V. c #6C9B43",
"C. c #5EA142",
"Z. c #6EA341",
"A. c #71A544",
"S. c #75A749",
"D. c #76A84A",
"F. c #7BA557",
"G. c #81AE5B",
"H. c #84B15B",
"J. c #86B361",
"K. c #8AB565",
"L. c #F6E47A",
"P. c #CEDCA1",
/* pixels */
"i.g.D.i.i.i.i.i.i.i.i.i.i.i.i.i.r.g.d.t.t.t.r.r.g.g.t.t.i.i.r.t.r.i.i.i.i.i.i.i.i.i.i.i.i.i.i.i.i.i.i.i.t.t.i.i.t.i.g.d.t.t.t.t.",
"g.H.P.H.i.i.i.i.i.i.i.i.i.i.i.i.t.g.t.t.t.t.t.t.t.r.g.r.i.t.q.r.q.r.i.i.i.i.i.i.i.i.i.i.i.i.i.i.t.i.i.i.t.t.i.i.i.r.r.g.t.t.t.t.",
"D.P.L.P.S.t.i.i.i.i.i.i.i.i.i.i.g.r.r.i.t.e.q.t.t.t.d.t.t.i.y.e.r.i.i.i.i.i.i.i.i.i.i.i.i.i.i.i.i.i.i.i.t.t.r.g.r.9.r.r.i.i.t.i.",
"g.H.P.H.g.i.i.i.i.i.i.i.t.i.i.i.g.r.q.r.y.k e.g.t.t.t.t.t.t.t.r.e.q.e.0.e.0.e.e.i.r.r.i.i.i.i.i.i.i.i.i.t.d.g.r.e.k y.g.i.i.i.t.",
"t.g.S.i.i.i.i.i.g.r.i.r.q.r.i.i.i.i.r.q.r.r.r.t.t.t.i.i.i.i.i.e.s y u u 9 8 8 s q.0.7.r.t.f.i.i.i.i.r.g.g.g.g.r.9.e.i.i.i.i.i.i.",
"t.t.t.i.i.i.i.i.r.g.r.q.r.i.i.i.i.i.r.r.r.e.q.r.i.i.i.i.i.i.r.e.9             8 5.z h r.i.r.i.i.i.i.g.g.H.Z.g.e.j e.i.Z.i.i.i.i.",
"t.t.t.i.i.i.i.i.g.d.i.r.i.i.i.i.i.r.q.e.e.l e.t.i.i.i.i.t.i.i.e.y             y z h q.i.i.i.i.i.i.i.i.g.A.J.g.i.u.i.A.H.g.i.i.i.",
"t.t.t.i.i.i.i.i.t.t.i.i.i.i.i.i.i.t.e.j 0.0.e.y.e.0.e.q.q.q.e.8.y ; : O O O : y x 8.q.e.r.i.d.r.i.i.i.r.g.J.Z.A.H.A.H.A.i.i.i.i.",
"i.r.i.u.i.i.i.i.t.t.i.i.i.i.i.i.i.i.r.5.s y u u u u u u u u u u 3.a.a.a.a.a.a.7.u u 8 a q.r.q.0.i.i.i.i.i.g.Z.J.A.i.Z.u.i.i.i.i.",
"r.q.r.u.i.i.i.i.t.t.i.i.i.i.i.i.i.i.i.0.y                     o a.l.l.l.l.s.l.a.:     , 0.q.5.9.r.i.i.i.i.f.g.J.Z.i.i.i.i.r.i.i.",
"0.r.u.0.u.i.i.i.t.i.i.i.i.i.i.i.i.i.r.e.u                     o a.l.s.s.s.s.l.a.O     6 q.5.h e.i.i.i.i.i.i.i.g.i.i.i.i.r.9.r.i.",
"6.r.e.k e.i.Z.g.i.i.i.i.i.i.i.r.e.e.V.9.u : O O : : : :       o w.j.j.j.j.j.j.f.3 O O , z f 6.y.i.i.i.i.i.i.i.i.i.i.i.i.e.j y.i.",
"f e.9.e.i.A.J.J.g.i.i.i.i.i.i.e.f d P d 3.p.p.p.a.a.a.3.o     # z.v.v.v.v.v.c.N.w.p.a.3.u y y s e.i.i.i.i.i.i.i.i.i.i.i.i.q.0.i.",
"g 0.k e.g.H.A.Z.i.i.i.i.i.i.t.q.i     O a.l.l.s.l.l.l.a.:     # L b.M.b.b.b.M.v.j.l.l.a.:     u q.i.i.i.r.r.i.i.i.i.i.i.g.e.j e.",
"y.r.y.g.A.g.i.i.A.g.i.i.i.r.i.e.i     O a.l.l.l.k.k.l.a.O     @ L M.b.b.b.M.m.v.j.s.l.a.O     u e.u.i.r.q.r.i.i.i.i.i.i.i.i.r.r.",
"g.g.A.J.J.g.i.A.J.J.g.r.e.q.e.6.i $ $ < 3.a.p.a.f.f.f.q.3 O O 2 z.v.v.c.x.L L n.w.a.a.3.< # $ i 6.e.q.e.r.q.r.i.i.i.i.i.i.i.i.i.",
"t.g.H.A.Z.i.Z.G.A.i.i.y.s 9 u i J x.L K < O ; 1 D A A F 7.p.a.a.h.j.j.C.I G G v 1 : O < K L L J i u u s e.r.t.i.i.i.i.i.i.i.i.i.",
"t.g.g.i.i.i.g.g.i.i.i.e.y     $ L b.b.L @     + b V B A f.k.l.s.s.s.k.f.A V V v +     # L M.M.L #     y q.t.t.t.i.i.i.S.i.i.i.i.",
"t.t.t.i.i.i.i.i.i.i.t.e.y     $ L b.M.L $     + c V V D f.k.k.k.k.k.l.f.D B V v +     # z.m.M.L $     y e.t.i.i.i.i.H.P.H.i.i.i.",
"t.t.t.t.i.i.i.i.i.i.i.e.s y y i J L z.K % + + q b N N S y.f.f.f.f.f.f.B.S N N b q + + % K L L K i u 9 s y.i.i.i.t.S.P.L.P.S.i.i.",
"i.i.i.i.i.i.i.i.i.i.i.u.q.q.q.6.i $ $ % c v v b M t Q M S D D D A A D S M t E M b v v c % $ $ i 8.q.q.e.r.i.i.i.i.i.H.P.H.g.i.i.",
"i.i.i.i.i.i.i.i.i.i.i.r.q.r.r.9.u     + v V V N t W W t N V V V V V V N t R R E N V V v +     u q.g.t.t.i.i.i.i.i.t.g.S.g.i.i.i.",
"i.i.r.i.r.i.r.i.i.i.i.i.r.q.r.0.y     + v B V N Q W W Q N B V V V V V N >.E R m N B V v +     u e.t.t.t.i.i.i.i.i.i.t.t.i.i.i.i.",
"i.i.f.r.q.r.q.r.i.i.i.u.e.0.6.5.9 . . - n H H H >.( ( >.C Z Z N Z Z N C ! ~ ~ >.C Z Z n - . . 0 6.q.e.e.r.i.i.i.i.i.i.i.i.i.i.i.",
"i.i.i.i.r.q.r.t.i.i.i.e.s u y 9 r e e T ,.1.1.1.<.<.<.%.o.X.X.X.o.X.[ X.} } } } X.X.X.] T e e r 9 u y s q.i.i.i.i.i.i.i.i.i.i.i.",
"i.i.i.i.g.r.r.d.t.i.t.e.y     . e R W ( <.2.2.2.2.2.2.;.+. .O.O.O.O.O. . . . . .O. .O.} ^ W W e X     y q.i.i.i.i.i.i.r.i.i.i.i.",
"i.i.i.i.i.i.i.i.i.i.i.q.u     X e W R ( <.2.2.2.2.2.2.;.+. . . . . . . . . . . . . . .} ~ R R e .     y q.i.i.i.i.i.t.q.r.i.i.i.",
"i.i.r.r.i.i.i.i.i.i.i.q.u     X e ( ( ] &.;.-.2.;.;.;.*.+. . . .+.+.+.+. . . . . . . .} _ ( ( T X     i e.i.i.i.i.i.i.r.q.r.i.i.",
"i.r.q.0.r.r.i.i.i.i.i.q.9     * #.<.<.&.@.@.+.+.....+.+. . . ...-.:.:.-... . . . . . .+.&.<.<.#.*     d y.i.i.Z.i.i.i.i.r.t.t.i.",
"r.r.r.r.q.0.r.i.i.i.i.q.u     = $.2.2.:.+. . . . . . . . . . .+.;.2.2.:.+. . . . . . .+.2.2.2.$.=     i F.g.A.H.g.i.i.i.g.t.i.i.",
"q.0.q.r.w.8.r.i.i.t.i.y.u     = $.2.2.:.+. . . . . . . . . . .+.:.2.2.:.+. ... . . . .+.;.2.2.$.=     y y.Z.H.A.g.g.i.i.i.i.t.i.",
"r.r.7.7.e.l 7.r.r.0.Z.F.d     = #.<.<.<... . . .+.+.O.+. . . ...&.=.=.&... . . . . . . .%.=.<.#.=     u y.i.Z.g.A.H.g.i.i.i.i.i.",
"t.t.e.g 6.0.l q.9.q.G.V.u     X T / / _ }  . .+.-.:.:.-.+. . .} _ / / _ } O. . . . . .} _ / ( T X     u F.Z.u.Z.H.A.i.i.i.i.i.i.",
"t.g.e.g 9.i.q.4.h e.g.q.u     . e R R ~ }  . .+.:.2.2.:.+. . .} W R R ~ { O. . . . . .} ~ R R e .     u V.J.i.i.Z.i.i.i.i.i.i.i.",
"i.i.i.r.r.V.0.l q.i.i.5.8     . e W R ~ }  . .+.:.2.2.:.+. . .} ~ R R ~ }  . . . . . .} ~ R R e .     u y.J.g.i.i.i.i.i.i.i.i.i.",
"i.r.d.f.Z.F.S.F.g.r.i.0.,     . e ~ ~ ) { } } | %.&.=.&... . .} ) ~ ~ ) { } } } } } } { ^ ~ ~ T X     u e.g.i.i.i.i.r.i.i.i.i.i.",
"r.q.7.r.i.A.H.A.i.q.r.8.>     & ` | } { ^ ~ ~ ~ / / / / }  . . .} } } [ ^ ~ ~ ~ ~ ~ ~ ^ [ } } ` &     u e.t.i.i.i.r.q.r.i.i.i.i.",
"g.r.7.9.r.i.g.i.i.r.9.6.>     & ' O.O.} ~ R R R R R R ~ }  . . .O. .O.} ~ W R R R R R ~ } O.O.' &     y q.t.i.i.i.i.r.q.r.i.i.i.",
"d.r.f 7.r.r.q.r.g.e.g z 6     & ' O.O.} ~ R R R R R R ~ }  . . . . .O.} ~ R W R R R R ~ } O.O.' &     8 e.i.i.i.i.i.i.i.i.i.r.q.",
"7.q.f 5.r.0.5.r.f.y.h z s 9 5 4 Y ' ' ` ^ ~ ~ ~ W R R ~ [ } } } } } { [ ~ R R W ~ ~ ~ ^ ` ' ' Y 7 > 9 s e.t.i.i.i.i.i.i.i.i.i.r.",
"f 6.q.j q.5.h r.g.i.u.r.e.9.g x p & & w ` } } [ ~ R W W ~ ~ ~ ~ ~ ~ ~ ~ W R R ~ [ } } ` w & & 0 s 6.0.e.r.i.i.i.i.i.i.r.i.i.i.i.",
"f 7.r.e.5.h 0.i.G.S.H.Z.i.u.y.q.u     & ' O.O.} ~ R R R R R R R W R R R R W R ~ }  ...' &     u 0.i.i.i.i.i.i.i.i.i.r.q.r.i.i.i.",
"e.r.i.e.k q.i.i.A.J.A.i.i.i.i.q.u     & ' +.O.} ~ R W W R R W R R W W R R R R ~ } O.O.' &     y e.i.f.t.i.i.i.i.i.i.i.r.q.r.i.i.",
"f.r.i.i.y.i.i.i.i.g.i.i.i.i.i.e.s y u p Y ' ' ` ^ ~ ~ ~ W R R R R R R W ~ ~ ~ ) ` ' ' Y p u y s e.i.i.i.i.r.r.r.i.i.i.i.r.i.i.i.",
"i.i.i.i.i.i.i.i.i.i.t.i.d.r.t.r.e.q.q.6.p & & w ` } } [ ~ R R R R W R ~ [ } } ` w & & p 8.e.e.e.u.i.i.i.r.q.r.q.r.i.i.i.i.i.i.i.",
"i.i.i.i.i.i.i.i.i.i.i.i.t.r.t.q.r.q.r.e.u     & ' O.O.} ~ R R R R R R ~ }  .O.' &     u q.g.t.t.u.i.i.i.i.r.q.r.f.i.i.i.i.i.i.i.",
"i.i.i.t.i.i.i.i.i.i.i.i.t.t.t.r.q.r.g.q.u     & ' O.O.} ~ R R R R R R ~ } O.O.' &     u e.t.t.r.i.i.i.i.i.i.r.i.i.i.i.i.i.i.i.i.",
"i.i.u.9.r.i.i.i.i.i.i.t.i.t.g.r.t.r.g.e.s u u p Y ' ' ` ^ ~ ^ ~ ~ ~ ~ ^ ` ' ' Y p u u s e.d.r.q.r.i.i.i.i.i.i.i.i.i.i.i.i.i.i.i.",
"i.i.y.k r.r.d.i.i.i.i.D.i.i.i.i.i.i.i.r.e.e.e.6.0 & & w ` } } } } } } ` w & & p 6.e.q.e.f.r.q.r.i.i.i.i.d.t.t.i.i.i.i.i.i.i.i.t.",
"i.i.r.e.8.r.t.i.i.i.H.P.H.g.i.i.i.i.i.i.i.i.i.e.9     & ' O. . . . .O.' &     y q.i.i.i.r.q.q.i.i.i.i.i.r.r.i.i.r.t.t.t.i.i.i.i.",
"t.t.g.e.k y.i.i.i.S.P.L.P.D.t.t.i.i.i.i.i.i.i.0.y     & [ O.O.O.O.O.O.[ &     y e.t.i.i.i.r.i.i.i.i.i.r.q.r.d.r.0.9.r.d.i.i.i.i.",
"t.g.g.r.y.i.i.i.i.i.H.P.H.g.D.i.i.i.i.i.r.i.i.e.s y y 0 Y ' ' ' ' ' ' U 0 u 9 s e.i.i.i.i.i.i.i.i.D.i.r.q.8.r.7.7.q.r.g.i.i.i.i.",
"t.r.i.i.i.g.i.i.g.g.g.D.i.H.P.H.i.i.i.i.q.r.i.r.e.q.5.5.0 & & & & & & 0 6.q.q.e.r.i.i.i.i.r.q.i.H.P.H.g.r.8.r.7.0.r.i.i.i.i.i.i.",
"d.g.i.t.Z.H.A.i.S.J.J.g.D.P.L.P.S.i.i.i.r.q.r.i.t.r.h x y             y e.i.i.i.i.i.i.i.r.q.r.A.P.L.P.D.r.e.r.q.r.i.i.i.i.i.i.i.",
"t.t.t.t.i.A.G.D.H.S.S.g.g.H.P.H.i.i.i.f.r.r.i.i.t.t.0.f 6             y q.i.i.i.i.i.i.r.q.r.t.g.H.P.H.i.g.r.r.r.r.i.i.i.t.i.i.i.",
"t.t.t.t.i.i.A.J.K.D.K.H.g.t.S.g.i.i.t.r.q.r.i.i.i.i.y.g a 6 y u u u u s e.i.i.i.i.i.i.i.r.i.t.i.i.D.g.i.t.t.g.t.i.i.i.i.i.i.i.i.",
"i.i.i.i.i.i.i.g.A.H.A.A.i.i.t.i.i.i.i.i.r.q.r.i.t.t.t.e.q.8.q.5.6.q.q.e.r.t.r.g.i.i.i.i.i.i.i.i.i.t.t.i.i.i.i.i.i.r.r.f.t.i.i.t.",
"r.0.0.r.i.i.i.i.i.g.i.i.i.i.i.i.i.i.i.i.r.r.i.i.i.t.t.t.q.q.r.r.7.r.g.r.r.g.t.t.i.i.i.i.i.i.i.i.i.i.i.i.i.i.i.t.r.q.9.r.t.i.i.r.",
"9.9.r.i.i.i.i.i.i.i.i.i.i.i.i.i.t.i.i.i.r.q.r.i.i.i.t.t.r.7.7.e.l 6.r.r.8.t.r.g.i.i.i.i.i.i.i.i.i.i.i.i.i.i.t.t.r.r.q.9.e.r.r.q.",
"5.9.i.i.i.i.i.i.i.i.i.i.i.i.i.r.9.r.i.i.i.r.q.r.i.i.d.g.f.q.f 6.q.j q.7.q.r.t.d.i.i.t.i.i.i.i.r.i.i.i.i.i.i.t.r.q.e.r.4.j r.q.5.",
"h q.i.r.i.i.i.i.i.r.q.r.i.i.i.y.j e.d.t.i.i.r.i.i.i.i.i.i.y.g 7.r.q.5.h e.t.t.t.i.i.i.i.i.r.r.q.r.i.i.i.t.t.r.q.e.k 8.k 0.q.h f ",
"0.r.q.q.r.i.i.i.i.t.r.q.r.i.t.t.e.8.r.t.i.i.i.i.i.t.i.i.i.i.r.r.r.0.h 0.t.t.t.t.i.i.i.i.i.r.q.r.i.i.i.i.d.g.t.r.r.q.k 8.e.k 0.0.",
"h 9.r.r.i.i.i.i.i.i.i.t.i.i.t.t.r.j y.i.i.i.i.i.i.i.i.i.t.i.t.t.g.r.r.r.i.i.i.i.i.i.i.i.r.q.r.t.i.i.i.i.g.r.t.t.g.r.r.r.q.y.y.j ",
"q.r.i.i.i.i.i.i.i.i.i.i.i.i.i.i.t.e.t.i.i.i.i.i.i.i.i.i.i.t.t.d.g.r.g.i.i.i.i.i.i.i.i.t.f.r.i.i.i.i.i.i.r.g.i.t.t.t.g.t.r.i.t.e."
};
