/* XPM */
static char *hay_1_1704979047[] = {
/* columns rows colors chars-per-pixel */
"100 100 81 1 ",
"  c #792F05",
". c #7D3407",
"X c #813707",
"o c #863807",
"O c #843808",
"+ c #8E3D08",
"@ c #903F09",
"# c #8F400A",
"$ c #92420A",
"% c #9B460A",
"& c #934E0F",
"* c #9B4B0B",
"= c #96500F",
"- c #9B520F",
"; c #975210",
": c #9D5510",
"> c #A04907",
", c #A94E07",
"< c #A14709",
"1 c #A24C0A",
"2 c #AD4D09",
"3 c #AA5007",
"4 c #A7500A",
"5 c #AC540A",
"6 c #A5580F",
"7 c #AB5B0F",
"8 c #A55C12",
"9 c #A95F13",
"0 c #9F6213",
"q c #AF600F",
"w c #A36615",
"e c #AC6212",
"r c #A66A17",
"t c #AB6C17",
"y c #A76B18",
"u c #AA6E18",
"i c #B56612",
"p c #B66A13",
"a c #B86A13",
"s c #B16E18",
"d c #AE7319",
"f c #B1771B",
"g c #BE751D",
"h c #B3791C",
"j c #B97D1D",
"k c #B67D21",
"l c #B87F23",
"z c #C0771E",
"x c #BD821E",
"c c #BC8423",
"v c #BF8825",
"b c #BF8829",
"n c #C2831F",
"m c #C18620",
"M c #C58A22",
"N c #CB8E23",
"B c #C38C29",
"V c #CD9124",
"C c #C7912B",
"Z c #CB952C",
"A c #CF992D",
"S c #D09525",
"D c #D09729",
"F c #D29B2D",
"G c #CB9630",
"H c #CE9A31",
"J c #D39C32",
"K c #D5A134",
"L c #D9A434",
"P c #DCA836",
"I c #D7A338",
"U c #D9A738",
"Y c #DCAB3C",
"T c #DFB13F",
"R c #E0AE3C",
"E c #E1B13E",
"W c #DFB140",
"Q c #E5B641",
"! c #E7B943",
"~ c #E9BB44",
"^ c #EDC046",
/* pixels */
"rrrryrKYYYYWBdffffcYYYYYJsrrwywH~QQE~KddffffYYYYYYcdhffdbTYYYYUVNNVNNIYYYYYCdffffxYYYYYYZNNNVNP~E~E~",
"rrrrrrKYYYUYBdffffcWYYYYYurryywH~QQQ~KdhfffcYYYYYYcdhfhdBTUYYYUNNNNNNUYYYYTCdhfhdcTUYYUYVNNNVnP~E~~E",
"rrrrrrKTYYUWBdhffflYYYYYWurryyrH~QQQ!KdhffdfYYYYYYcdfffdBTPYYYUVNVNNNLYYYPYCdfffdcUTYYYYVVNVVVPEE~E~",
"rrryryIYYYYWBdhfffmWYYYYWurryywH~QQQ!JdhffdxUYYYYTvdhfhdBTYYYYUNNNVVNIYYYYTCdhffdcTUYYYYVNNVVnK~EE~E",
"rrrrrrKYYYYYBfffffcRYYYYJuwywy0H~TQQ~KdffhdhUYYYYYvdffhdCTYTYYUVVVVMVPYYYYTCufdfycUWYYYYFVVVVVP~~~EE",
"uuuuuyKTYYYWBfhfffcYYYPYWsyyyuyH~QQQ~KdfhddcYYYYYWvdhfhdvPKKIUKMMMMMMIYYYYYZfxjjhcWUYYYUMcnnnnFRYTYR",
"ffffffIYYYYRBtfffflYUWYYWkdkhkdJ~QQQ!KdfhhdcUYYYYYcdhfffxVNNNNnhffffdKYYYYYJNVVVVAUWYUYYd0rrrrjVnNNN",
"ffhfffIYUYYRBfhfffcWWUYYIfdfffdJ~EQQ!KdhdddhYYYYYYcdfffdxVNNNVNffffffHYYYYYJnVVVNZWYYYYYdwrrrrxVVVNN",
"ffffffIYYYUWBthfhfcYYYYYPkfffhdH~QQE~HdhfffhUYYYYTcdhffdxVNNNVMdfffffKWYYYYJNNNNnDYYYYYUdwyyrrjVNNNN",
"ffhfffIYYYYYBfhffdcYYYYYYhfffhdK~QQQ~KdhfffjYYYYPYvdffffxVNNNVNfhffffKYUYYTFNVNNVDYYYYYYdwyyywxVNNVN",
"fffffhIYYYYWBdfffdlYYYYYUkfhfhdK~!QQ~KdhfffhYYYYYTcfhffdxVNNNVMffffffKTYYYYJMVNNVSYYYYYYdwyyrrjSNNVV",
"fhffffKYUYUWBffhgflWYYYYUkdfffdJ~E~E~KdhfhfhUYUYPYcffffdxNNNNNNfffffdKYYYPYFNNNNNVYYYYPYdwyyuelSNVVS",
"yyyyyyhjkjkhmNMMNMVRWUWUUdyyyywZTYYYWHdffffhCVVVZVfryyyrdhjhfhfyyyyyuMDVVCSxytduyfVVZVVVMBMMNMNNNNNV",
"yyryyrfffffdmVNVNNDWUWUWUd0ywywGTYYUWHdffhfhNVNNNVdrrrrrufffffdyyryermNNNNNjwrrrwdNNNNNNNVVNSNNNNVNN",
"yrrrrrffffffmVNNNNCWWIWUWdyyyywCTYYYYHdffffhNNNNNVdryrrrdffffffyrrrrrmVNNNVjrrryrdNNNNNNNNNVNNNNNVNV",
"rrrrrrdffffdmSNNNMZWUWUWIyryyywGTPYPWHdffffhNNVNNVfwrrrrdfffffdrryrrymVNNNVjwyrrrdNNVNNVNVNNNNNNNNNN",
"rrrrrrdfdfffcVVVNNAYPYPYYdwrrywZYYPYYAdfhfddNVNNNVfwrrrrufffdddrrrrrwmVNNNVjwyrrrdVVNVVVVVNVNNNNNNVV",
"yyyyyyfhhhhfnSVVVVFWTTWWYdryrywHQWWWWKfhhhhjVVVVVSfryyyydjhfhxhyuuyuyMZVVVSjryryrdVVVVVVVVVVVSVVVVVV",
"657575eeqqqie8e8e8egggggg779877skzgglp-:::-8w8qe89:-----=&&&&&;=-&--;ippapai77978eaappaaeee8qeiappaa",
"22,222555555*+++++$3,,,3,5555533,,,,3<#$#$@@++@$++@@@@@$o. . ..#$@@$$,3,3333535553333355$o++#o*53333",
"2222223555551$$$$$*5555755555755255554$$$$$$$$$$$$$$$$$$#..O..X$$$$$$4575555555555555555$$$$$$155555",
"222222555555*$$$$$%5555555555555555554#$$$$$$$$$$$$$$$$$#.....X$$$$$$3555555575555555555$$$$$#155755",
"222222555555*$$$$$*5555555555555555554$$$$$$$$$$$$$$$$$$#.....O$$$$$$4557555555555555555$$%$$$455555",
"222222335333%@@$$@$35353,55555333,553>#+#$#$++#+@+$@$$@$.   . .#+$###,333335555555353353$#$$$$*55535",
"595795iiiiii8---:;6ipiiai777777iaipiie;--:-=6w686w:=-:-:;;==;=;:-----ipppipe777777piiaii-=-*=&6qqqqq",
"kdfhhhNSSVVSnffhhhcVVVVVVuyyryrxDVVVSMhhhhhxVVVVVSxdhhhfxDVVSSVhhhjhfNVVVVSjwyyyrdVVVVVVdryyytdhfhff",
"ffffffMNNNNVjffffdjNNNNNNurrrywxVNNNVmffffffnVVNNNxdfffdxVVNNNnhffffdMNNNNVjwyrrrdNNNNVNurrrrrufffff",
"fffhffNNNNNVcffffdjVNNNNNyrrryrxVNNNVnfffffhVVNNNNxffffdxVVNNNNhfhfffNNNNNVjwrrrrdNNNVNNurrrrrdfffff",
"ffffffMVNNNNcfhffhjVNVNVNyrrrywxVNNVVMdffffhNNNVNVxdffhfxVVNNVMhfffffMVNNNVjwyrywdVNNNVNuyyrrrdfffff",
"ffkfffMNNNNNjffffdjVNNNNNuyyrrrxVNNMNnfffffhNNNVNNxfffhfxVNNNVMffffffMVNNNVjwyrrydNNNNNNuyrrrrufffff",
"hfffffNVVNNSmfhhhfjVVVVCNdyyrrrcZVVVVMdffffhCVVVVShdfffdxVNNNVMhfffffMNNNNVjwyyywdVNVNNVuyrrrrdhhhhf",
"ffffffIYYYYYDMNNNNZYPPUYIhddffdZYPYPYZryryydEEEQEEc0yyywhVNNVVMffffffMVNNNVnfffffhVNNNNNurrrywxNNNNN",
"ffdxxfKYPYYYFvVNVNAYYYYYUyyxdddAWYYUWGwwrrrdQ!Q~Q!kwrrrwhVNNNVMhdffffvNNVNVxdffddxNNNNNNuyyyrwxVVNVV",
"ffdfdfIYYYPTFNNVNvAYYYYYUxxyxxdAYYYYWGwyrrryWQQQQ~cwyryrhSNNNVMhxffffMVNNNVxfffxdhVNVNNVyrywywxVMNNM",
"ffffdfKTYYPTFNNNNNATYYYYUcdxyxdHYYYYWCwyyyrdQ!QQQ!k0yrywjNNNNSMhfffffMVNNVSxdffffhNVNNNNdrrrywxVVNVV",
"ffffffKTYYTPFNNNNNCYYYYYKxyxdddHWYYPWGwyyy0dWQQQW!cwyrrrhSNNNNMffffffMVNNVVxffhffxNBNNVNyrrrrrxVVNVM",
"ffffffKYYYYYFNVVNNSPTUYTIcyxdddHWYYYRGwwyyruT~QQQ!kwrwr0hNNNNNMhhhfffnNVNNNxfhffdhVNNNNNyrryy0xNNNNN",
"vvvxMxPTYYYYDNNNNNAQWWWWTcxydxdHYUYYWGuddduhEQQQQ!CxmnnxVLKLJLJmnnnMnPPPPPPCdffffxVNVNNVfdddddBLKKKK",
"VVVVVVYYYYYYFNNNNNF!!!WWKxyxdddHWUYYYHdhhfdxE~Q~!!FNVVVNJWYYYYPSVVVVVT^EE^^AdffffxNNNNNNxdfhhdATYYYY",
"NVNVNBUYYYYYFNNVNNF!W!!WTxxydxdHWUYYEHdfffdxEEQQQ!FMNVNNFYYYYYUNNNNNNT^EEE~AdfffdfVVNNVNhdfhhdCTYYYY",
"NNVNNNPTYYYYAvNNNNF!QQQ!TxdfffdHWUYYWHdhfffjQQQQE^SNNNNNFYYYYWINVVVVnE~E!E^AdhfffxMNNVNNhdfffdZTYYYY",
"NNNNNNPYYYYYFVVNNNF!QQQQTxdhfhdHWYYYYHdfffdjEQQQEEFNNVNSFWYYYYUNVnNNNR~~ET!GdffffxNNNNVNxdffddGTPYYY",
"VNNNNNUYYYYYFvVNNNS!QQQ!ExddfddGWIUWYGdhfffjQQ!!E^FVNVVnFYUUPYUNNVNNNREE~E^ZtfffdxNMNNNNfdfdddATYYYY",
"NNVNNNUYYYYTFVVVNNS!QQQQTxxxxxxHWWWYQJdhffdkTWWWEEFnNNNVJQYQWWYNNVNVNYEEETEVxxxxxMFFFKFFxxxxxxKEYTYE",
"NNVVNNUTYYYTFNNNNNS!!QQQESSVVNNP!QQQ~JdffhfhUYYURYDNNVNVJ~QQQ!RNVNVNVUYUTPYKNVVVMD!!!!!!DNVVVNPEQQ~Q",
"VNNCNNUYYYYYFNNNNNF!QQQQEVVVNNNP!QQQ~JdhfffhUTYYREFnNNNnJ!QQQQQNVVNNNUYYTYTANNNNND^E!E^EVNNNNNP!QQQQ",
"NNNNNNUYYYYTFNNNNNF!QQQ!ESNVNNMP!QQQ~JfffffxYYYYYYDNVVVNL~QQQ!RNnVNVNIYYYYTANNNNNDEEEE!!DNNNNMP~QQQQ",
"NNNVNNUYYYPPFNNNNNS!QQQQESNNNNNP!QQQ~JfffffhUYYYYTDNSnVnLQQQQ!RNVNNNNIYYYYTFNNNVNDE^!!!EVNVNVNPEQQQQ",
"NNNNNNPYYYPYANNNNND^EE!E!VNVNVNP~~E!EKdhffdhUYYTPYDNNNNNFEE~E~ESNVNVNPTYYPTFNNNNVA~EE~~EVNVNVNP!QQQQ",
"VNNVNNUTYYYTFVNVNNDEE^E^ESNNNVNL~E~E^KfhhhhcYYYTYTFnNVVNF^~E~ERVNNNNNKEEYYWFNNNNnS~!!E!!VNNNNnP~QQQQ",
"NNNNNVEEEEE~FNNNNND^E^EE!VNNNNNP!EE!EPNNVNNVEQ~EEEFNNNVVLEE~~ERVVNNVNREE~E~KVVVNVD!E!E!EDNNNVNPEQQQQ",
"NNVNVVE^E~~^KNNNVNDE~EE~WVNNVVnP~Q!T^PNNNNVSEQE~^EFNNNVnF^~EEETVNNNNNRE~~E~LnVNNND!~E~!EVNVVVnP!QQQQ",
"NVNNVNEE~EEEKNVNNNS^E!~EQVNNNVNP~QQQ!PNNNNNV!!EEE^DNNNVNK^E~~EESNNVNNEE~EE~LnSNNNDEEE!!!SNNNNnP~QQQQ",
"NNNNNNEEE~~~LnVNNNAE~E!!!VNNNVNP!QQQ!PNNVNNVEE!!~EFNVNVNF^EEE~EVNVNNNE~~E~ELNVVNND~~!EE!SNNNVVP~QQQQ",
"NNNVNNT^~EE~LnNNNNA!!E!EQVVVNNNP~QQQ^PNNVNNVE^!~EEFNNVNnLEE~E~EVNNNNNY~E~E~KnVNNVDE~E^!EVNNVNnPQQQQQ",
"NVNNNVTEE~E^FNVVVNF^E!~EWVNCNVnP~QQQEUNNNNNZE!EE~~FVNNVNL~~E~ERNNNNNNRE~E~~LNVVNND~ET^E!DNNVVNP~QQQQ",
"NVNVNVEE~EE^Ahxhxfv^EEE!EVNVVNNPQQQQ!PNVNNNVEEE!E^FNnVVVFEYTYTPVNVNNNY~EE~~KNNVNND^E~E~EchhjjfATYYRY",
"NNNNNVE^E~E~VdhdfdvET^!~EVNNNVnP~QQQ!PNVNVNVE~!EEESNSNVnDTYYPYINNNNNNE~E~EEFMVNNNDE~E~E~xdfffdZYYYYY",
"VNNNNVEE~E~~Cdhfhdv~EE~E!SNNNVVPQQQQQPNNNNNVEE^^E^FVVVVNFYYYYYUVVNNVNRE~E~~LNNNNnDEE~E~ExdfffdGTYYYY",
"NNVNNNEEE~E^Cdhffdv~!!E~ESNNNNnP!QQQ~UNNNVNVE^EEE^FnNNVnFTYYYYIVNNNNNY~E~E~KNNNNVFE~E~E~cfffhdGTYYYY",
"NVNNNNT~E~EECdfffdv^!EE!EVNVVVNP~EEEQPnVNNNVEEEEE~FnNNNNFYYYYPUVVVNNNRQQEE^PMVNNnZQQ~~E~kdfffdGYYYYY",
"VVVVVNTE^E~^CdfffdvEE!!!!SVVVVNP^~^E~YVSSVNS^~^E^~FVVNVNFQYYTTPVVVVVVY!Q~EELVVVSSF~QE~~EkdfdddZWPYYY",
"jxjjxxTEEE~^CdffhdcTTETTTxxxxxxSLLLLPAxxxxnnLLLLKLSNNNNNCCZCCCCcxnmcxLQWQQEFhjjjjMQTEEEEMxxxcxHYUYYY",
"0wwwy0P^T^EECdhfhfcYTTUYUxffffdnNNVnNxdffffhnNNVnNNVVNNVxdddddddfddddKYYUPEB0wrwwfYYPYYYSVVVVNJWYYYY",
"yyrrrrYEQQQ~CdffhdvYWUWYIkfffhfmVNNNVmfffffhNVVVNVNNVNNVcffhfhfffhfhdKYYWIWBwryywkYYWUWUZMVNNNJRYYPY",
"yyrrrrP^QQQ!CthffdcWUWIWUkfffffmVVNVVmfffffhNNNNNNNNNNVVmffffffffffhfKYYUWWBwrwywkYYUWUWZNNNNNJYYYYY",
"ryrryyYEQQ!~CdhfhdcYUUUYYhffffdmVVNNVmdffffhNNNVNNNNNVNNmdffffffffffdKWYIUWBwyyrwfYUUUWUNNNNNMJRYYPY",
"yyyyyyT^~~~~ZdhfhdcQWWWWYkffhhdMVVVVVMfhhhhhVVVSVVVVVVVVmfhhhhhhhhhhfIWYWWQBwwyywkWWYWWWSVVVSVJQYTTY",
"ww8wwwZKJIJImssfdtkJJJJJFfssdstjnxznnjssddsfznnnnnnnmnzMltusuutytyuuuZJJJHJceyrewsJJJJJJMzjmnzVJFKJJ",
"+$#$$$$$$$$@<555555552552222222%+$$$@%222222555525222222<@@@@$$$$$$$#45,5555355555552245$@$$$+155555",
"$$$$$$$$$$$$1555555555555222222<$$$$$%2222,25555555222221@$$$$$$$$$$$4555555555555555555%$$$$$175555",
"$$$$$$$$$$$$1575555555555222222%@$$$$%222222555555222222<$$$$$$$$$$$#5555555555755555555$$$$$$155555",
"$$$$$$$$$$$$1555555555555222222%$$$$#%2222235555552222221$$$$$$$$$$$$4555555555555555555$$$$$$155555",
"$$$$$$$$$$$$1555555555555222222%$$$$#%222222555555222222<$$$$$$$$$$$$4555555555555555555%$$$$@155555",
"@@$$$$$$$$$+1555555555555222222%+$$$$%2222225555555222221$$$$$$$$$$$$,555555555555355555$$$@$$153555",
"wwwwwwtutudttfddsfsrrrweywewrerwwwwwwwewewreddddsftiwewwyuttdttuusuutnMnMMMhwewweyfsdfsdrwwwwwtfdddd",
"yyyyrrfhhhhhhdfffhdyyyryyyyyyyyrytrryyyyyyyyhfhhhhuryyrruhhhhhkfkhhhhMVVNNSkwyyyyyhhhhfhuyyryydfxdff",
"ywyyrrfffffhfhfhfhfwyrrrrrrrrrrrrrrrrrrryrryffffffyrrrrrthfffffffffffMVNNNNjwyyyyyfhffffywrywydfffff",
"yrryrrdffhfffdhfffdwrrrrrrrrryrrrrrrrrrrrrrrffffffdrrrrrdhfffffffffhdMVNNNSjwyyeyuffhfffyryyywdfhfff",
"yryeryfffffffhffffdyrrrrrrrrrrrrryyyyrrrrrryfhffffyrrrryuhffffhffffffMVNNNVjwyyyryffffffyrwyyydffffh",
"rrrrrrddddfffhfffkdwryrrrrrwyywrwwwwrwrrrrryffffffyrrrrrufdddddfffffdMVVVNVjwryrryffhfffuyrrrrufffdf",
"rrrrryxnnnxnhyddduuyrrrrytddduuhxjxjxfrrrrryxnxnxndryrrrfnxxxvxfffhffxxcxxcfwrrrryffffffyyrrrrhxxxxx",
"yrrrrrMVVVNSjwywywyyrrrryffffffMSNVSSnrrryryVVSSVVfwrrrwjVVVVSNdfhfffffdffddyyrryuffffffyyyrrrxVVVVV",
"rryrrrMVNVNVhwyryyywrrryyffffhdmVNVSVxwyryrynVVnNVfwrrywjVNVNVNfffffffffffhurrrrrufffhffyyrrrrxVNNVN",
"rrrrrrMNVNNVjwyrwywyyyrryffhhfdMVNNnVlwyryyyNNVVNVdrrrrwjVNVNVMffffffffffffdryrrryffffhfyrrryrxVNNNN",
"rrryrrMNNNNVhwyyyyyyyeyyyfffffdmVVVNSmyyrryyNVVSNVfwrrrrhVNNNVNdfhfffffffffdrrrrryffffffyrrrywxVNNNV",
"rrrrrrMVNNNVhrrrwyywrrwwydffffdnNNVnNzwyrrrynnSnNNdwrrrrhNnVNNNfhfhfffffddddrrrrryfffdffyyrrrrjnNNNN",
"uyyuydnNVVNVhwyyywyfdddfdfffhffMDDDZFMwyrywtFDDDDDhyuytrxFDDZANffffffjjjjjjdrrryryxhxjjhyrrrrrNFSFDF",
"ffhhfhNVNNNVhyyerwdVVVVZVhffffdHWUWWWGwyrrrdUWYYYTvdfhffBQYYYYIffffhdMVVVNSjwyrrrtVVVVNVurrrywA~!!!!",
"ffffffNVVNNVhwyyrrfVNNVNNhffffdHWYUUWGwyrrryUYYYYYcdfffdBTYYYYIhffffdMVVNNVjwyrrwfVNNNNNurrrywZ~E!E!",
"ffffffMNNNNVjwyyrrdVNNNVNhffffdHWUYYWCwyrrrdUWYYYYvdfffdBYPYYWIdhfffhnVNNNNjwrrrrdNNNNNNdrrrywH!E!~E",
"ffffffnVNVNVhwyyrrdVNNNNNhfffhdHWUYPYGwwrrryUYYYPTcdjfhdBWYYYYIdfffhfMVNNNVjwurrwdVNVNNNyrrrywH~!E!!",
"hfffhfNVVNNVhwyyrwdVNNNNNhfffhdAYYYYWCwyrrwdUYYYPTcdfffdBYYYYTKffdfffMNNNNVjwyywwdNNNVNNurryy0G!E~EE",
"ffffffMVNNNVhwryrrdVNVVVVhdffhdHWYYYWGwyryyyYYYYYTcdfffdBWYYPYIffxffhMVNNVSjwyrrydVNVVVVdrryywH~!E~!",
"rryryynVNNNVxfdffdcPUUUUUuryyy0H!QQQ!JdffddkUYYYYYhryrywB!QQQ!RNMNNMnPEEEEQCdffffkQEEEEEkdfdfdH~E~!E",
"rryyyynVVNNVxfhfhdvYYYTYYuryyyyH!QQQ!KdfhfdkUYYYYWxwryywb!QQQ!EVNNVVVT^!~Q~Adffffv~QQQ~QkfffhdH~!E!!",
"rryrrrnVNVNVxfffhdcYYYYYUuyyyywH~Q!Q!KdhdhfhYYYYYWkwyyywb~QQQQENNVNNNPE~E~!Zdfffdx^^TE~!xdffxyHWTE!!",
"rrrrrrNVNNNVxfffhdcTYYYYUdrryy0H~!QQ!KdhfffhUYYYYYk0rrrwB~EQQQENNNNNNT~E!E^CdffhdcTET^E!xdfffdH^!!!E",
"rrrryrnVNNNVxfffhdxYUYYYUdrryywH~QQQ!KdhhdhkYYYYYWk0rry0B~QQQ~ENNVVNNTE^E!^Adffhdc^EE!EEcffffdH^E!!E",
"yrrruunVNVNVxdffhdcTYYYYUyrryy0H!QQQ!KdddhdjUYYYYYkrryywB~E~QQRNNNNNNP^E~E~AdhfffvET^E!!cdfffdHW!E!!"
};
