/* XPM */
static char *hay641705317295[] = {
/* columns rows colors chars-per-pixel */
"64 64 72 1 ",
"  c #7C3306",
". c #813607",
"X c #803708",
"o c #833908",
"O c #8E3E09",
"+ c #903F09",
"@ c #8E400A",
"# c #8E480D",
"$ c #92420A",
"% c #9A4609",
"& c #954A0D",
"* c #9A4C0D",
"= c #9E520F",
"- c #9A4E10",
"; c #9F5E13",
": c #A24D09",
"> c #AD4D09",
", c #A4520C",
"< c #AC530A",
"1 c #AD5A0D",
"2 c #B0540C",
"3 c #B15D0F",
"4 c #A05F13",
"5 c #B2600F",
"6 c #A46615",
"7 c #A86414",
"8 c #A66A17",
"9 c #A96B17",
"0 c #A76C18",
"q c #A96D18",
"w c #B46210",
"e c #B06E17",
"r c #AB7017",
"t c #AE731A",
"y c #B17017",
"u c #B1761B",
"i c #BA771A",
"p c #B3791C",
"a c #BA7D1D",
"s c #B77E21",
"d c #B87F21",
"f c #C17F1D",
"g c #BD821E",
"h c #BA8222",
"j c #BF8826",
"k c #C3821E",
"l c #C28620",
"z c #C58A22",
"x c #CA8E22",
"c c #C48E29",
"v c #CD9124",
"b c #C6902A",
"n c #CD952B",
"m c #CE992E",
"M c #D09629",
"N c #D29A2C",
"B c #CB9730",
"V c #CE9A31",
"C c #D19630",
"Z c #D19D33",
"A c #D5A235",
"S c #D9A536",
"D c #DCA836",
"F c #D7A538",
"G c #D9A639",
"H c #DCAB3C",
"J c #DFB03F",
"K c #E0AF3D",
"L c #E2B23E",
"P c #E5B641",
"I c #E7B843",
"U c #E9BA44",
/* pixels */
"888tGHHGuutsGHJFt600HIPPstuuAHHHhtutAJHHMxxxAJHHjtuumJGJmxvxSULL",
"886tHHHGsutsGHJGq800HIPPhtuuFJHHhtupZHHHnxxxAJHJjtptmJGJmxMkSLLU",
"006tHHHGuuupGHHFq800HIPPgpuuAHHHhtpuAJHHmvvvAHDJgtutmJGHNvvvDUUU",
"0q0uHHHGuuusGHJGtqqqLIPPguuuAJGJhtuuVAAFvklgZJDJvpgpmJHJvgggNHDH",
"upuaHHHGhutuGHHGsuupJPPPhruuFHHHhtutlvxxptutVHHHmxMxSDHJg686gxkv",
"uutsGHHGtuuhHHHGpuupHPPPhtupFHGHhpuplvxvauupZJHHMxxxAJHJh688gvvv",
"upusHJJHuttuHHHHsuuuPPPPhuuuFJJJhtpuxvvvauppZJHHmvvxSJGJh686gvxx",
"tttuVVVVhgghGHHGuttuHPPPptuuVFAAgrttgzllprtrnGASxgkgMSADjrutgvvx",
"8888yuypzvvMDHJGr600AHHGguuukxxxr888ttuu0888kvxvu686gvvkxvvvvxxv",
"8889puupzxkvDHHGr880AHHGpuuuxvxvr888tpuur888kvxvu886kvvvxxxvxxxx",
"8089ppppvvvvHJJHr880GJJJguppxvvvt008upppr008kMvvu898gvvvvvvvvvvv",
"7777rr99ggagmCVn7699mMBCr89rikig0;;;66886;;;ikfk9677ikkkgagaffkk",
">>>><<<<$++$><:<<<<<<<<>$@@$@@@$O$$$.   O@$$:<<<<<<<<<<<%O$O:<<<",
"<>>><<<<$$$$<1<<<<<<<<<<%$$$$$$$$$$$o   @$$@,<<<<<<<<<<<%@$$:2<<",
">>>><<<<$+@$<<<<<<<<<:<<$@$@@@@@O$O@    O@@@:<<<<<<<<<<<%$@@:<<<",
"212<3553****35531<1<5555=***====-**-&###&-**1w551<111555,&**,111",
"uuupvvvkppppxxvx0080kvvvuuhhgvvvgrrgxvvvghguxvvvp608gvvvg808tppt",
"uuupvvvvpuppxxxx0000vvvxhtrtzvxvgrhtzxxvhrrugxxvu888gvxvu888rppp",
"uuupxvxxuutuxxxx0080kxxkuuuuzxxxhrgrxxxxtrrtxvxvu886gMxvp888rrtt",
"uuupvvMvpapavnnvr000vMMMhtutvMMMhrutzxvxguguzxxvu808kvxvu688tgpg",
"uuupHHHHvxxvHHHHhutuHJHHt880HUULr688gvvvgrhrzxxvguptgMxvp688gvxx",
"uptgHHHGvvxvGHHGuuugFJHHr888DUJUh488zvvvgrhrzvxvgtptkvvvp886gxxv",
"uutpGHHGxxvvHHHGhruuFHHFt888HUJUh488jvxxgrrrjxxvgtptgvxvu608gxxx",
"uhpgHHJGvvvvHHLHhtuuFHJGu88rDIUJhrrrjvvvgrhhxMvMgrutzvxvp800gMnv",
"xxxvHHHGvvxvLIULuuuhFHHGgtuuHJUUjxxxDHHHMxxxDUIUjthtkvxvguptnJGH",
"xvxvGHHGvvvvLLLLgrttFHHHhtuuJPJUvxvxFHHJMxvxJLLUjrttzvxvgtprnJHH",
"xvxvHHHHvxxvLIILhruuFHJDguuuJPPPMxxxFHHHMxxxDUJUjpttgvxxgtprBJGH",
"xxxnHHHGvvxvLIILhhthHDJJhuuuHIJPMxxxFHHJMxxxDULUjpgpxMnMgpppBJHH",
"vxxvHHHGvxxnPPPLxzxvJLUJhruuFJHHvxxxHIPINxxxAHHJNxxxDLLINxvxSULI",
"vxvnHHHHvxxvPPILvxxvJUULhtuuFHHHvxvxHIJIMxvxAHHHNxvzDUIUNxvxSLUL",
"xxxvGHHGvvxvLPPLvxxvLLUJhrutAHHHMvxxKIPIMxvxADHJMxxxDULUNxvkDILI",
"xvxvHHJGxxxvLPPPvxvxLULUhthuAJHHvxxxKPPINzvxDJDJMxxxDULUNxvxSUUL",
"vxxMLILLvxxvLIILvxxvLUILvxvkKILPMxxxDILINvvvKLLUNxxxDULUNxxxSULL",
"xxxMLLULvvxvLPPLvxxxLULUMvvvLIIPMxvxLILINkvkLLLUSxxxDULUNxxxSLLU",
"xvkMULILvxxvLIPPvvvvLLULvvvvKLPIMxvxDIIINvvvKULUMxvxDULUSxxxDULU",
"xxvMLULLxxxvLPPLvxvvLULUMxvkLUPIMxxxLILINkvvDLLUNxxxDUUUNxxxDULL",
"vvxMPIIJsuuaPPPLvxvxLLUUvxvvLLPPMxvxDJDJMxvkHIPINxvxDLLUbupuMJDJ",
"xxxvLPIJputpPPPPvvxvLULLvvxxKIPIMxxvADHHnxxxDPPPMxvxDULUbtutnJHJ",
"vvxMPIIJpupaHPPPvxvvLLLLMxvxLPPIMxvjFHHHMxxxHUPPNxvvDULUbtutbJFH",
"xxkvLPIJpttsPPPPvxxxLULLvvvkKPLLvxvxAHFHnxxxDIPPNxxkDLLUbtpunJHH",
"rr0tPPPJuuupHHJGsupaxvvnauppxvvvvxvvgppppppuZPHJh8q0nLHJMkxxNDJG",
"888tPPIJsuupGHHGputtxxxxpuuuzvxxvxxvptuuuuutVHGJs606bLGHNxxxAJDJ",
"886tLIIJpuupHHHGauupxxvxpuuuxvxxxxxvauuupupuZJGLs606BJHHNxxxAJHH",
"886tLLLHptusFGHGptuplxxxpuuuzxxxxxxxpuuuututVHGDs6q6bHSDmxxxmHGG",
"&$$&=*-=11<13333<<><*&*&<><><3<31<<2%%&$&&$$153311<,3533=%*%,533",
"$$$@OOO$<<<<<<<<>>>>$@+$>>>><<<<<<>>$$$@$@$$:<<<<<<<<<<<%@@@*2<<",
"$$$$$$$$<<<<<<<<>>>>$$$$>>>><<<<<>>>%$$$$$$@<<<<<<<<<<<1%$$@:<<<",
"$$$$$$$%<<<<<<<<>>>>%$$$>>><<<1<>>>>%$$$$$$$:<1<<<<<<<<1%$&$:<<<",
"6666ttqtyuty8697667666666679rtru9888rrtrrrrrgxzzu666tytt96669yty",
"0000upppuupu080800008q8q9888tpuu8688upupuuguzvxvp090rpppq008tuts",
"8888uuuuuuuu0088088089888888pppt9888tutpuuuugvxvu606rpupq808ttup",
"8880uuuuuupu8888888088880888ttpp9888tpppuuuuzvxxu600tputq088rppt",
"888qxzxlq00q8880tutulzllq888kvkvr006gvxxgtppgughq960ruppq888avzz",
"988qxvvx88888980tppuxvvvq888zvvvt600kvxvgrpruurrq008tptpr886hvxv",
"888qxxvzq8898880uuppxvvxr888zvvxr088zvxxgpptuurgq600tpupq888avxv",
"808qxxvzq8888888uuttxxxvq988kvxvt606gxxzgrppuuuuq006tttpr806gvxx",
"tttpxxxxq889kzllpuupAGFFq888ZHGGgrttmGAGgthtgxzxu686gxxxu806bLJL",
"pppaxxvz888qxvvvpuupGHHHq888AHHHhtppAJHJgrttjvxvu808gvxvp60;VUIL",
"tpupxvvzq88qxxxxuuutFHHHu888ZHHHhtutAHHHghuujvxvu608gvxvp006mULI",
"tpuuxxxc888qzvxxsuusFHHHt888FHHHhtppAJGJgruuzvxvu686gvxMu606VULP",
"000rxxvxuutuAGGAt000HPPJsquuAHHHu808AILPMkxzSLJLgrprmJHLcrurVUPP",
"8080xvxxuuuaGHJG0600HIPPsupuFHHHu806AIPINxvxDULUbtptAULUxtptVIPP",
"800rxxxxputpGHHGt000JIPPsuuuFHHHu808FUPPMxxxDULUjtptZUJUbtutVULI",
"8880xxvxpuppHHHGq800HIPPsupuFHHHu608FULINxvxDULUcrptAULUbtptVUPP"
};
