/* XPM */
static char *ldoor1705317565[] = {
/* columns rows colors chars-per-pixel */
"64 64 231 2 ",
"   c black",
".  c #0D0D0C",
"X  c #181817",
"o  c #2E1D13",
"O  c #2C241F",
"+  c #352315",
"@  c #382719",
"#  c #3D291A",
"$  c #272726",
"%  c #382C24",
"&  c #393129",
"*  c #3A3535",
"=  c #383637",
"-  c #432C19",
";  c #4B311C",
":  c #57371E",
">  c #603B1F",
",  c #483424",
"<  c #4C372A",
"1  c #553924",
"2  c #5B3C23",
"3  c #4A3C34",
"4  c #423C3B",
"5  c #643E23",
"6  c #5C412B",
"7  c #4E4137",
"8  c #57453A",
"9  c #664126",
"0  c #6B4325",
"q  c #6F4927",
"w  c #64432B",
"e  c #6A462B",
"r  c #6D4A2A",
"t  c #734623",
"y  c #754925",
"u  c #7A4C25",
"i  c #774728",
"p  c #754B2B",
"a  c #7A4E2B",
"s  c #76512E",
"d  c #7C522D",
"f  c #654A36",
"g  c #6D4B34",
"h  c #734D32",
"j  c #794E32",
"k  c #6F523A",
"l  c #745133",
"z  c #7C5332",
"x  c #7D5A33",
"c  c #79553D",
"v  c #383B45",
"b  c #3F4043",
"n  c #3E424A",
"m  c #3C4353",
"M  c #3E4E6E",
"N  c #444244",
"B  c #4A4645",
"V  c #44464B",
"C  c #4C4A4C",
"Z  c #554A45",
"A  c #58504D",
"S  c #474D56",
"D  c #4B505A",
"F  c #4C525C",
"G  c #5B5554",
"H  c #53555B",
"J  c #5D5C5C",
"K  c #654F42",
"L  c #695446",
"P  c #795B45",
"I  c #645C58",
"U  c #725C53",
"Y  c #7F664C",
"T  c #67605B",
"R  c #79665C",
"E  c #4B5462",
"W  c #48546B",
"Q  c #525964",
"!  c #565C67",
"~  c #5A5D63",
"^  c #535D6B",
"/  c #475775",
"(  c #555D74",
")  c #57606C",
"_  c #5B616C",
"`  c #566273",
"'  c #5B6473",
"]  c #55637B",
"[  c #5E6A7B",
"{  c #6A6966",
"}  c #646468",
"|  c #6D6D6B",
" . c #766B68",
".. c #72716E",
"X. c #7C716D",
"o. c #646975",
"O. c #646A74",
"+. c #626C7B",
"@. c #716F73",
"#. c #67707C",
"$. c #6B717D",
"%. c #747573",
"&. c #787779",
"*. c #7C7C7B",
"=. c #83532D",
"-. c #8A562D",
";. c #84592E",
":. c #8C592E",
">. c #91572C",
",. c #945A2E",
"<. c #995E2E",
"1. c #835533",
"2. c #8A5633",
"3. c #855A34",
"4. c #8C5B34",
"5. c #845639",
"6. c #895738",
"7. c #855B3B",
"8. c #8C5C3A",
"9. c #935D34",
"0. c #985E31",
"q. c #935E3A",
"w. c #876036",
"e. c #8C6136",
"r. c #8D623A",
"t. c #946136",
"y. c #9A6335",
"u. c #9F6836",
"i. c #94633B",
"p. c #9B653B",
"a. c #95693C",
"s. c #9D6A3D",
"d. c #A06A37",
"f. c #A3693B",
"g. c #A16C3D",
"h. c #A4713E",
"j. c #A9703F",
"k. c #895E43",
"l. c #915F41",
"z. c #896649",
"x. c #946341",
"c. c #9B6641",
"v. c #9D6C42",
"b. c #976B48",
"n. c #9D7142",
"m. c #9A734B",
"M. c #8A6B54",
"N. c #946F51",
"B. c #957558",
"V. c #A16D42",
"C. c #A86E49",
"Z. c #A47343",
"A. c #A97443",
"S. c #A77945",
"D. c #A97B46",
"F. c #A8744B",
"G. c #A57A49",
"H. c #AA7D49",
"J. c #B67C51",
"K. c #867467",
"L. c #8E7769",
"P. c #967B65",
"I. c #877B76",
"U. c #7F807C",
"Y. c #A7824E",
"T. c #AA814A",
"R. c #B58352",
"E. c #968578",
"W. c #B28B6A",
"Q. c #485B84",
"!. c #586988",
"~. c #596E97",
"^. c #636F82",
"/. c #667283",
"(. c #6B7584",
"). c #687689",
"_. c #6D798B",
"`. c #757A85",
"'. c #727D8C",
"]. c #687A95",
"[. c #737E90",
"{. c #5974AB",
"}. c #6378A2",
"|. c #837F80",
" X c #79828F",
".X c #748194",
"XX c #7A8594",
"oX c #79879A",
"OX c #78879B",
"+X c #7D899B",
"@X c #7388A7",
"#X c #7E8DA2",
"$X c #6984B7",
"%X c #778CB5",
"&X c #7492C5",
"*X c #848483",
"=X c #898989",
"-X c #968D8B",
";X c #92928E",
":X c #848A95",
">X c #838C9B",
",X c #8A929B",
"<X c #96979B",
"1X c #A09F9B",
"2X c #A7A29D",
"3X c #BAAB9E",
"4X c #808EA2",
"5X c #8491A3",
"6X c #8A96A5",
"7X c #8996A8",
"8X c #8C99AC",
"9X c #9398A5",
"0X c #929DAC",
"qX c #8D9AB1",
"wX c #939FB1",
"eX c #9CA4AA",
"rX c #94A2B4",
"tX c #95A5BA",
"yX c #9BA7B8",
"uX c #A7A8A8",
"iX c #ACB1B4",
"pX c #859FCA",
"aX c #93ADC3",
"sX c #A4B2C4",
"dX c #A8B7C9",
"fX c #ABB8C9",
"gX c #B4BCC9",
"hX c #ACC2CA",
"jX c #B8C6D9",
"kX c #CDCFCE",
"lX c #F1F1EF",
/* pixels */
"[ rXsX+.r z i.i.i.i.v.V.Z.g.V.g.g.h.i.e.t.i.i.t.y.u.9.i.g.Z.4.4.t.8.a.c.V.v.s.V.s.p.e.t.p.a.p.p.s.s.s.n.v.s.i.r.a.i.a g >XjXrX/.",
"^ E 6X6XU l e p 3.3.s.Z.v.V.g.s.g.p.q p x 1.s.s.g.v.s.s.u.a.0 p 1.d 8.i.p.i.s.p.p.t.0 p ;.=.t.u.s.s.s.p.p.a.q p ;.x p  .tX5X' !.",
"#.oX+.5X(.T P s x e.i.i.i.t.t.t.t.4.=.y u ;.t.t.9.t.t.t.t.e.d u s ;.9.t.t.t.t.t.9.:.d p s 4.t.r.a.a.a.a.i.a.x s s Y | oX+X.X6X' ",
"F tX[ n V ^ ;Xm.n.g.g.s.s.u.p.u.p.u.p.u.u.p.u.p.u.g.g.s.h.s.h.g.h.h.h.h.h.h.v.Z.Z.s.s.h.h.g.h.h.h.D.S.S.S.S.S.n.B.=XF n n _.rXB ",
"% ! oXG A .XrX=Xm.T.Z.h.g.u.<.<.<.>.>.>.>.>.>.>.<.<.<.<.y.d.d.d.h.h.h.h.h.h.g.Z.S.A.Z.S.D.S.S.D.D.D.D.D.D.T.Y.b.<XsX#.v D oXH w ",
"9 & Q [.[ _.sX>XM.Z.h.Z.h.g.d.u.y.y.<.<.<.<.<.<.<.<.y.y.d.d.h.j.S.D.T.T.S.S.S.G.T.G.D.D.D.S.A.D.S.S.S.S.S.S.n.M.rXgX.X(. XH g 3.",
"4.r , 7 ^ Q (.tXE.M.s.u.u.u.y.y.y.<.<.<.<.<.<.u.y.u.u.u.y.d.f.h.h.S.T.h.S.S.H.Y.T.S.A.S.A.h.V.g.s.s.v.V.V.n.M.:XtX'./.^ 7 r q.8.",
";.=.3.r } rX).+.#._ L.s.g.d.g.h.h.h.h.h.d.h.h.h.h.u.d.u.d.<.d.f.h.h.S.S.h.D.D.T.G.G.Z.n.Z.Z.v.v.s.h.v.Z.c.I.@.[.[ 5XrXA 0 4.4.2.",
"z 9 s 9 7 XX.X= 4 H ,XE.h.h.h.h.h.h.h.A.h.S.h.h.j.d.g.f.d.y.f.f.d.h.h.h.T.T.T.T.S.Z.a.8.p.v.Z.n.Z.Z.Z.b.E.+Xv = v +X'.7 0 s s -.",
"i.r.e.3.: = .X*.~ +XsX,XM.d.h.h.h.g.d.d.u.d.u.u.d.u.u.y.<.<.<.<.u.h.d.h.S.A.h.h.g.p.i.a.e.a.h.h.g.h.p.z.yXgX_.H `.(.7 1.4.d z 6.",
"8.c.s.i.p + 4 ' [ ) 6XrXR ;.;.;.;.;.;.=.;.x ;.x =.u u y u t t t u u u u =.u i a u y t y u u u u u u p X.dX8X(.(.' 3 : :.p.i.a.q.",
"b.n.a.u.d : # @ D #.[ 8X,XT Y e.3.6.3.8.r.a.a.a.e.y a i =.-.=.1.=.;.;.;.8.i : i 1.=.d =.;.:.:.:.;.Y | qX7X.X[.C 6 p > -.p.v.g.i.",
"n.n.c.s.:.;.;.q Z rX+XF ) H  XY.V.q.c.Z.V.V.D.Z.a.r l 3.2.9.q.9.0.p.p.p.V.6.5 6.i.9.9.4.0.y.y.y.M.`.H ) E wX5XK t.2.5 ;.p.h.s.i.",
"s.a.a.v.e.:.y.p % ~ #XC = F #X;Xb.q.c.Z.Z.S.V.Z.s.w e c i.p.p.q.0.q.p.p.c.6.5 1.q.i.2.4.9.y.y.z.9X:Xn & D #XI 1.p.2.0 :.a.s.s.p.",
"3.p 8.w.;.e.u.x ; % ) XX' .XsXrX .f.g.Z.G.D.G.Z.b.e h 6.c.V.f.q.p.y.f.V.V.6.2 g 6.v.i.q.t.y.=. .gXdX).+.oXJ h 2.i.4.0 q s t.w.t.",
"w.r s 1.w.w.u.d.d ; % N ) E #.yX|.x.g.Z.G.G.Z.Z.n.p c 8.q.c.f.q.f.q.c.V.c.5.: e 1.8.i.q.y.9.P ,XaX(.[ _ Z k a.i.x.e.9 t q s 3.t.",
"n.n.c.n.t.e.s.d.y.a 5 ; B +X.X_.5X| K.Z.A.H.H.Z.n.l 5.5.k.v.b.p.V.c.c.c.c.j 5 j 6.8.q.q.i.K.`.7X[.8XXX3 0 9.p.s.v.i.0 -.t.i.p.t.",
"s.v.s.v.a.e.h.h.p.p.q.=.<  X8Xm n V XXE.G.Y.S.F.n.x k.8.x.V.Z.v.V.c.q.q.l.i 5 6.6.6.4.6.I./.v n D tX$.e 4.p.0.s.v.r.9 -.u.u.p.u.",
"s.s.a.v.a.t.h.h.p.f.q.j # 4 `.#.B _ 8XeXP.H.Z.S.m.3.a.i.i.C.G.n.V.q.q.q.l.i 5 0.q.8.6. .sX6XH 4 `.(.K i t.p.p.h.Z.r.0 ;.9.u.u.t.",
"a.t.p.s.t.r.g.g.d.d.f.1.; + 4 `.(.[ 8XyX&.G.S.A.G.3.p.p.p.v.G.C.V.V.q.V.C.i 5 9.i.6.h '.gX0X).[./.K w.=.i.p.u.v.Z.r.e =.9.u.p.u.",
"9.4.t.t.r.e.h.d.d.g.u.9.e : # % C ` ^ 8X0XL.G.H.G.w.s.y.f.V.c.C.C.A.j.C.c.h 5 p.c.z.K.aX7X^.+.C w i.s.d t.d.g.Z.Z.a.0 2.2.t.u.t.",
"s 0 3.;.;.t.h.d.d.g.f.d.z 1.a e 7 XXwX' _.' %.W.Y.9.p.d.V.k.5.x.f.C.j.V.V.j i q.B.&./.).+.sX`.l i.h.s.=.p.u.u.Z.V.a.9 5 0 3.d :.",
"4.d s 4.:.e.g.d.g.A.A.h.1.9.p.8.2 ~ 0XH = N /.<XB.d.f.f.f.P g P C.J.C.c.b.6.i M.<X( = = ^ 0XU p.h.g.v.:.y.y.d.V.v.8.9 p 0 s 4.t.",
"a.u.p.s.t.t.h.h.Z.Z.D.Z.1.4.V.a.2 , _ +X} o.rXaXI.q.C.f.V.5.c k.F.F.F.C.C.q.e =XjX0X( } oXI z.f.g.f.p.;.t.<.p.p.x.7.9 2.t.p.u.t.",
"p.s.s.s.9.e.T.j.h.D.j.h.3.i.v.V.7.1 , H +.` /.yX:Xz.A.A.V.V.P.2X3XW.R.J.J.p.K 0XsX'././.I k.A.j.f.d.q.=.0.0.p.V.c.k.9 t.g.s.s.a.",
"p.s.s.h.9.a.T.h.D.A.D.j.4.t.V.C.D.4.w 1 7 +.#..XwX*.B.F.W.2XyX#X.XyX3XW.W.P.+XwX@X|.+.f 5.V.j.C.C.C.p.-.0.f.V.Z.C.6.9 i.h.g.u.f.",
"u.p.s.v.t.t.D.S.V.V.D.j.3.i.V.A.D.D.S.a.k &.sX` Q Q (.9XqX@X5XhXgX+X@XtXwX_.( E ^.sX .l.c.c.V.V.d.V.a.=.0.f.A.A.Z.6.9 a.n.h.g.t.",
"4.;.i.i.4.t.D.D.A.Z.s.d.1.i.c.b.A.D.T.n.r 7  X$.b / }.~./.6XkXlXlXlXgX7X&X}./ n [.`.P c.l.k.k.l.q.q.q.=.y.f.g.C.V.6.9 3.w.s.t.t.",
"a 9 z x 4.t.S.D.T.H.A.g.1.t.l.8.V.F.D.f.d 1 C ~.Q.Q.] $.<XuX2X2XuXkXlXlXgX4X}.~.~.G q.c.V.l.P 6.q.c.8.i q.q.V.C.g.q.0 y 0 s s 4.",
"t.2.3.r.a.t.A.D.H.H.H.h.3.4.p.q.V.A.J.F.z.A / M / o.*.=XE.C X X X $ { kXkXgX:XQ./ / R c.f.6.i 5.c.x.l.5 2.q.V.p.p.q.9 1.1.g j 2.",
"s.s.c.i.e.t.h.D.j.h.j.u.z 2.p.c.q.c.b.U ( / M ) ..&.I.U.| X         X ;XiXuX2X=Xo.W M ( U k.1.6.l.l.6.i 9.c.p.p.p.9.9 -.q.1.5.6.",
"s.h.s.a.9.3.p.s.g.g.g.u.q.q.p.c.p.U ' !.( ^ } | ..%.%.*.&.J X     X J -X-X;X;X-X|.%.D W !.!.U x.c.c.c.q.q.c.V.c.v.p.u 2.8.1.6.8.",
"a.h.h.s.-.1.p.p.p.v.V.V.g.f.g.q.p = D 9XhXeXU...| ..%.%.%.%.$     $ %.E. XE. XE.U.;XiXhX9X) U v.V.v.V.V.V.V.c.V.V.p.=.9.t.>.0.q.",
"n.s.v.h.4.=.p.c.v.V.V.f.p.p.p.a ; + O * %.iXkXeXU.| ....%.J .     . J *.*.*.U.XXuXjXhXU.C g a.Z.C.v.V.V.v.s.p.V.v.V.3.t.p.0.q.9.",
"w.s i.t.=.=.x.8.p.c.v.c.q.q.q.6.p 1 # o o = +.yXhX+X%.{ | I = $ $ $ G %.U. X6XhXaX.XC 8 w.h.h.Z.Z.c.V.V.s.p.p.p.f.s.=.s =.i.6.1.",
"3.r s 3.2.d i.q.q.c.V.c.c.s.p.i.8.2.s : # + 4 [ .X&XpXoX@.{ { { { { | %.OX&X&X.X^.K w.v.Z.S.S.Z.Z.C.C.V.v.v.h.Z.Z.V.=.t 5 p a c ",
"h.n.a.S.t.s 3.x 8.q.s.Z.n.V.Z.v.x.c.x.a.s 8 ,XOX= b !.&X&X'.@.{ { ) .X$X$X~.m n ,X=XB.Z.Z.Z.Z.S.Z.G.G.G.G.H.Y.D.G.S.=.-.,.9.q.6.",
"s.n.Z.S.a.u 2.1.,.9.y.s.g.g.v.v.V.V.V.v.x { #X.X,X X[ m Q.{.$X(.#.@X{./ / #.,X#X).5XR v.v.Z.V.v.m.Z.G.Z.Z.S.D.S.S.A.;.-.y.d.q.2.",
"s.n.Z.Z.a.s 4.:.4.4.9.i.a.a.p.t.i.i.t.9.Y [ m .XhX Xn O O v Q.{.{.M n 7 7 ~ ,XsX/.` &.b.n.n.v.n.n.n.n.n.n.s.n.m.v.a.1.9.y.p.y.9.",
"s.s.n.Z.t.t a s s p z z r p s s p p g K.uX#X.X%XU.7 ; @ o o $ v n 4 6 q 2 + = .X8X.XtXeXK.l s s s j p r z z x x x x 5 2.f.f.f.<.",
"s.i.s.s.t.:.t.t.9.q.b.v.z =.i.i.4.1.I.wX'.[ ).+.B e =.p 1 + + 1 k 8.i.i.6.; o V ^./.! (.0XR q.9.6.6.3.a 9.y.p.s.v.a.e 4.y.u.s.p.",
"s q e.3.w.4.<.>.,.q.f.V.=.2.s.d.2. .qX).C V ' ' k a y.s.i.s p i.n.Z.V.c.V.p o * ! Q N B (.5XM.8.q.q.8.d q.p.p.V.Z.a.r t y 4.;.9.",
"4.p s 3.t.:.,.-.-.q.d.V.z 4.s.i.g } ).).sXXXXXR e.a 9.p.p.q.p.c.V.V.c.c.V.6.: # A '.6XyX+._.} q.0.q.8.;.p.d.p.p.n.a.e a p d 3.9.",
"a.u.p.h.i.=.>.:.3.q.i.p.a 2.i.7.X.+.S 4X0XH 8 6.i.a 2.p.p.q.q.l.k.q.V.V.V.6.0 0 - 4 ~ wXXXQ  XI.p.C.s.3.h.Z.V.p.g.a.q :.y.p.p.9.",
"p.s.s.Z.i.=.,.<.9.9.q.p.i =.M.2XtX.XoX+XG e 2.p.i.i 4.y.q.6.l.l.V.V.V.f.V.6.u 4.j # @ ^ 4X+X+X0X-XB.c.5.v.V.g.f.s.a.p >.y.p.q.2.",
"p.v.s.Z.a.=.,.,.9.q.q.t.i P 6X+XS D ` E 8 9.0.p.8.i 9.p.6.h j x.s.C.V.f.C.q.u u.v.5 # 4 E ^ m V :XI.z.h q.c.p.p.s.q.9 -.0.p.8.5.",
"u.n.n.Z.u.=.9.,.9.q.9.6.f `.5X+.} H '.} 5.y.p.p.4.1.p.b.6.g h 8.V.V.V.C.Z.9.d s.v.6.5 , ~ $.J } o.5X| w 6.q.p.p.p.6.5 >.y.p.q.6.",
"e.e.s.s.r.=.t.9.2.9.9.h 8 ^ ^ oXdX(.%.P s.v.p.p.a.3.n.Z.7.h h 8.x.c.0.c.V.8.d u.v.8.8.5 < o.XXdX).' ^ L q.l.q.v.v.6.5 =.4.p.0.9.",
"s 0 1.x w.;.9.9.8.4.q.K.,X^.^ qX$.8 z i.c.s.p.p.i.7.c.m.x.6.8.q.x.q.0.q.g.r.d a.g.p.q.2.5 @ 4 _.7X' oX<XP.v.p.V.V.8.5 t 0 =.d e.",
"a.7.3.a.t.;.0.4.9.4.I.yXXX).oX+.Z 3.i.p.p.9.y.p.w.1.x.c.v.l.8.k.6.q.q.q.g.e.u s.s.p.0.0.2.2 + N _.oX/.XX0XK.a.g.V.i.0 =.=.=.9.t.",
"s.Z.n.n.t.=.9.:.2.X.qXo.= V ^ H k q.v.p.p.p.p.p.8.x b.c.b.x.l.l.x.k.q.q.p.4.d u.s.p.q.0.0.1.; , S E v = o.>X .v.Z.i.0 -.y.y.u.9.",
"a.t.t.Z.t.=.t.=.f [.[._.XXo.XXU a.p.v.s.s.g.v.p.q.3.x.b.c.c.q.q.q.l.p.q.p.e.u p.u.p.0.0.0.q.j ; B `.$.XX+..X#.P Z.i.5 -.9.0.t.9.",
"9.t.t.s.a.d :.r I E E wX0X~ L 6.s.p.c.p.p.p.p.p.8.z l.c.v.i.q.q.q.p.q.q.p.-.u t.p.i.0.9.p.q.9.h , B o.tX7XW ` K.n.e.0 -.q.0.9.9.",
":.,.t.g.e.d M.;X8X!.[.4XI h 4.s.s.V.V.s.s.v.v.v.p.i.p.p.i.q.p.q.q.f.f.f.s.p.i.v.v.S.p.i.p.c.p.q.1.1 - E 5X[..XrX-Xz.i 6.y.9.9.6.",
"u u t.e.w.P 9X6X' [ /.F k 0.p.d.d.g.g.g.g.g.g.g.g.g.p.p.q.q.q.p.V.p.p.f.p.g.Z.Z.S.G.F.Z.f.p.q.q.6.z 1 3 ! (.( Q +X*Xk i =.t.-.1.",
"t 5 p p k XX#XH B F +.G 6.p.p.p.p.f.g.g.g.V.s.s.s.s.s.p.p.d.g.v.l.9.9.9.0.0.y.p.V.Z.V.p.f.q.q.,.9.9.i 1 C ^ V 7 H #X`.w 5 a d 1.",
"-.=.d u A ).' 8X6X'.`.P q.x.x.p.v.V.Z.Z.Z.Z.Z.Z.V.n.Z.s.s.V.n.v.q.8.p.i.q.p.p.p.p.s.p.p.p.p.p.9.9.0.9.1.f $.[.eX.X^.^.K 1.8.i.8.",
"-.:.:.z.`.S ' tX#.Z k k.l.l.x.c.v.v.V.v.Z.g.v.n.Z.Z.s.s.s.v.V.s.p.p.p.p.p.p.p.p.p.p.p.p.9.p.q.0.0.q.0.0.2.2 B _.wX` ` =XM.q.q.2.",
"-.1.E.yX#X).5X[ 7 g 8.r.l.x.c.V.v.v.V.n.Z.Z.s.h.v.h.s.s.u.p.p.u.f.p.g.V.f.d.p.0.0.p.p.0.y.q.u.p.q.p.u.p.q.a - 4 (.#X].5X9XK.8.2.",
"a X.8X_ m ^ ) B c h.Z.s.c.c.c.c.c.c.v.v.v.Z.Z.Z.Z.Z.Z.h.s.u.u.s.V.g.s.p.q.q.q.q.q.0.p.u.u.0.p.0.u.p.p.p.q.9.e , V ^ F v ^ 4XR 2.",
"G #X_.o.J o./.Z w.a.i.9.8.6.6.6.6.2.6.6.6.6.8.8.4.8.e.e.e.e.i.t.4.4.3.1.1.1.1.1.1.2.-.2.2.-.-.:.1.=.j a 1.1.a 2 7 +.! T ~ _.oXZ ",
"E ^ ' sX>Xo.U j 2.4.6.1.1.1.1.1.=.1.1.1.3.1.1.1.1.1.3.6.e.3.3.1.4.3.6.5.1.1.1.5.3.=.=.a =.=.=.1.2.1.1.1.3.4.1.1.e G $.rXtX' ( D ",
".XF .X4XC < 5 d w.4.b.x.q.q.9.q.q.8.r 1.e.1.i.c.q.a.s.Z.n.s.s x 4.e.v.Z.v.v.V.V.h.s.u ;.4.4.s.s.V.v.c.c.s.n.s 1.3.6 % D 5X'.' 0X",
").OX#XD w 9 9 2 0 3.v.v.c.x.q.i.i.i.p 9 p 3.i.p.c.s.s.s.s.h.z e l r.Z.Z.D.G.F.Z.G.n.x r s r.Z.Z.A.V.v.v.Z.n.d q s s : % W 7X.X)."
};
