/* XPM */
static char *ldoor31705585155[] = {
/* columns rows colors chars-per-pixel */
"64 64 161 2 ",
"   c #17171B",
".  c #3C2913",
"X  c #1E1F23",
"o  c #1A2730",
"O  c #202125",
"+  c #212125",
"@  c #222328",
"#  c #232428",
"$  c #242429",
"%  c #242529",
"&  c #25262A",
"*  c #27282C",
"=  c #28292D",
"-  c #28292E",
";  c #2A2B2F",
":  c #332923",
">  c #342923",
",  c #352C26",
"<  c #3E2E23",
"1  c #3F2F25",
"2  c #3F3026",
"3  c #262F37",
"4  c #2A2B30",
"5  c #2B2C31",
"6  c #2C2D31",
"7  c #2C2D32",
"8  c #2D2F33",
"9  c #3B3532",
"0  c #462D16",
"q  c #48351A",
"w  c #4E3419",
"e  c #7D0025",
"r  c #7C0026",
"t  c #4E3721",
"y  c #4C3926",
"u  c #403128",
"i  c #44352A",
"p  c #45362D",
"a  c #46382F",
"s  c #4D3B28",
"d  c #4E3C2B",
"f  c #4E3D2C",
"g  c #463930",
"h  c #4B3E38",
"j  c #4A3C3B",
"k  c #57402B",
"l  c #514331",
"z  c #574230",
"x  c #634721",
"c  c #634722",
"v  c #694A21",
"b  c #695433",
"n  c #2D3C49",
"m  c #5B4F49",
"M  c #595451",
"N  c #645A48",
"B  c #605D55",
"V  c #99231C",
"C  c #880D21",
"Z  c #800529",
"A  c #82092A",
"S  c #8E1420",
"D  c #86112E",
"F  c #891632",
"G  c #8F5B19",
"H  c #9B651A",
"J  c #9C641C",
"K  c #AF6E16",
"L  c #895A26",
"P  c #90602A",
"I  c #8F6630",
"U  c #947338",
"Y  c #C05A1A",
"T  c #CF6E1A",
"R  c #C97539",
"E  c #B36256",
"W  c #C06D42",
"Q  c #C27D63",
"!  c #7E8059",
"~  c #778062",
"^  c #748B77",
"/  c #DB870F",
"(  c #D78A15",
")  c #DC8916",
"_  c #D7881D",
"`  c #E79616",
"'  c #EA9716",
"]  c #EF9B1C",
"[  c #F39A12",
"{  c #F29A13",
"}  c #F39C13",
"|  c #F29C14",
" . c #DD9221",
".. c #DB9624",
"X. c #DE9D2C",
"o. c #E99D22",
"O. c #F0A221",
"+. c #F1A423",
"@. c #F1A82C",
"#. c #F3AE37",
"$. c #F2B038",
"%. c #F4B33B",
"&. c #F3B23D",
"*. c #92824E",
"=. c #8D936B",
"-. c #DCAE4D",
";. c #DCB04F",
":. c #F1B242",
">. c #F2B745",
",. c #F4B744",
"<. c #F5BB49",
"1. c #F5BC49",
"2. c #F4BD4C",
"3. c #F5BE4E",
"4. c #F6BD50",
"5. c #DCAC7B",
"6. c #E1AC6E",
"7. c #EEBF69",
"8. c #F5C151",
"9. c #F6C353",
"0. c #F4C154",
"q. c #F6C457",
"w. c #F5C359",
"e. c #F7C659",
"r. c #F7C65A",
"t. c #F7C85E",
"y. c #F8C85C",
"u. c #F4C662",
"i. c #F8CA61",
"p. c #F1C469",
"a. c #F1C56D",
"s. c #F5CA68",
"d. c #F5CD6E",
"f. c #EEC373",
"g. c #F9D379",
"h. c #356E87",
"j. c #3B728A",
"k. c #3C7994",
"l. c #466F84",
"z. c #43788E",
"x. c #48798C",
"c. c #417891",
"v. c #4A7D91",
"b. c #458197",
"n. c #49869B",
"m. c #598994",
"M. c #64898F",
"N. c #4A8BA0",
"B. c #5493A5",
"V. c #5B94A3",
"C. c #5F94A0",
"Z. c #62A1AF",
"A. c #77A6AC",
"S. c #7CB5BF",
"D. c #E5BB83",
"F. c #E6BC81",
"G. c #F7D680",
"H. c #F8D781",
"J. c #F8D985",
"K. c #FBE192",
"L. c #FBE69E",
/* pixels */
"# O X O O X O % # O X O O X O # % O X O O X O % # O X O + X X # # + X O O X O # # O X O O X X # # O X O O X O # # # X O O X O = ",
"% # @ # # O O % % # # # # O O # % % % % O O O % % # O # # + # # % # # # # O O # & # # # # O # # % # # # # X O # # # # # # O O % ",
"5 % 6 a d y 2 d a a u d a > d ; % 6 , a d s u d a a u d a > d ; % 6 , a d d 2 d a a u d a : d ; % 5 , a d s < l a a 2 d g & # 8 ",
"5   6 b c k c w k c w x k . x ;   6 . b c k c w k c w c k . x 6   8 . b c k c w k x w x k . x ;   8 . b x k x w k c w c l ;   8 ",
"%   6 b c k c w k x k q k k w %   6 w b x k x w k c k q k k w &   ; w b x k x w k x k q k k w &   5 w b c k x w l c d q k #   6 ",
"%   6 k c q c w k x b . c k w &   5 0 k x q x w k c b . c k w &   ; 0 k x q x w k x b . c k w &   5 0 k x q x w d v b . v #   6 ",
"6   8 k c q c . k x b . c k . 6   8 k k x q x . k c b . x k . ;   8 k k x q x . k x b . c k . 6   8 k k x q x . k v b 0 c 5   8 ",
"6   8 b c . c . k x k w x k . 8   8 k b x . x . k c k w x k . 8   8 k b x . x . k x k w x k . 8   8 k b x . x . d v d w x 8   8 ",
"6   8 b x . x q x x k w x k x ;   8 k b x . x q x x k w c k c 5   8 k b x . x q x x k w x k x ;   6 d b c 0 v w v v k w v ;   6 ",
"%   % c . k x k x x k w x k x %   & b x . k x k x x k w x k c =   & b c . k x k x x k w x k x &   : b x . d v f x x k w v %   & ",
"&   6 c w x x k k x k k w b x &   5 b x w x x k k x k k w b x %   ; b x w x x k k x k k w b c &   5 b v w c c d d v d d w %   6 ",
"6   8 x w x x k k x b k w b x 6   8 k x w x x k k x b k w b x 6   8 k x w x x k k x b k w b c 6   8 d x w c v d d v b x w 5   8 ",
"%   5 k w x x w k x b k . k b %   ; k k w x x w k x b k . k b %   8 k k w c x w k x b k . k b &   5 d f w v c w f v b f 0 %   5 ",
"*   5 w k w x . x k x k . k b &   ; k w k w x . x k x k . k b %   ; k w k w x . x k x k . k b &   5 c w d w c . v f v d . #   5 ",
"5   8 w x w b . x k x b w k x 6   8 k w x w b . x k x b w k x 8   8 k w x w b . x k x b w k x ;   8 f w c w b 0 v f c b w 5   8 ",
"8   8 w x w b 0 x k x b w k x 8   8 x w x w b 0 x k x b w k x 8   8 c w x w b 0 x k x b w k x 8   8 v w c w b 0 c c c b w 8   8 ",
"5   8 b c x w x x k . b x w x 6   8 0 b c x w x c k . b x w x ;   8 0 b x x w c v y 0 b c w c 7   6 0 b x x w x x d . b c 6   6 ",
"%   & k c c w x x k . b k w x &   & w k c x w x c k . b k w x &   & w d x c w c v y . b d w c &   = w f x c w x v d . b d #   * ",
"%   5 k x x w x k k w x k . x &   5 . k x x w x k k w c k . x %   7 . d x x w c d c w c f w c $   6 0 f c c w c d f w v f #   8 ",
"6   8 b x k x w k x w x k . x ;   8 . b x k x w k c w c k . x ;   6 0 b v d v w d c w c d 0 c 7   6 0 b v f c w c v w v c 8   5 ",
"&   ; b x k x w k x k q k k w &   6 w b x k x w k c k q k k w #   6 w b c d c w f v d w d v w $   8 w b v f c w f c d 0 f &   8 ",
"&   6 k x q x w k x b . c k w &   ; 0 k x q x w k c b . c k w #   6 0 f c w c w f v b w v f w $   5 w f v w c w f v b 0 v &   5 ",
"5   8 k x q x . k x b . c k . 6   8 k k x q x . k c b . c k . 5   6 c f c 0 c . d c b 0 c d 0 7   8 f f c 0 c . c c b 0 c 7   8 ",
"8   8 b x . x . k x k w x k . 8   8 k b x . x . k c k w c k . 8   9 d b c . c . c v d 0 c d . 7   5 c b c 0 c . f c d w c 7   7 ",
"5   8 b x . x q x x k w x k x ;   8 k b x . x q x x k w N A.S.Z.N.n.c.B v 0 c q v c d w v f c 7   7 d b c 0 v w v c k w v 6   6 ",
"&   & c . k x k x x k w x k x &   & b c . k x k x x k w M.B.v.j.h.j.n.l.9 d v d v v d w v c v $   : b c . d v d c v k w v &   $ ",
"&   5 c w x x k k x k k w b c &   ; b c w x x k k c k z m.b.M 3 o n C.c.h c c d k v k k w b c $   7 b v w c c d f v f k w $   6 ",
";   8 x w x x k k x b k w b c 6   8 k x w x x k k c b z x.k.m 5   n V.c.j v v f d v b f w b c 7   5 s c w c v s f v b f w 8   6 ",
"&   5 k w c x w k x b k . k b &   6 k k w c x w k c b L ! ^ *.U H P =.B G v c w f v b d 0 f b $   7 d f w v v w d c b d 0 $   7 ",
"&   5 w k w x . x k x k . k b &   5 k w k w x . c k H  .#.u.d.0.@.+.#.+.o.K c . v c v d 0 f b =   7 c w d w c 0 c c v d . $   7 ",
"6   8 w c w b . x k x b w k x ;   8 k w x w b . c k ) 8.K.L.J.i.9.9.4.0.<.[ b . c d v b w f x 8   8 f w c w b 0 c f c b w 7   6 ",
"8   8 w x w b 0 x k x b w k x 8   8 c w x w b 0 c k X.g.L.g.:.R W u.t.4.<.[ b 0 v f v b w f x 8   8 x w v w b 0 v f c b w 8   8 ",
";   8 b x x w x x k . b c w c 5   8 0 b x x w x c k ;.J.g.%.Y C Z E f.e.<.{ w c x k . b x w c ;   8 0 b x x w x x k . b x 6   8 ",
"&   & k x x w x x k . b k w c &   # w k x x w x c k -.s.w.] V e e D D.i.<.{ w c x k . b k w c &   & w k x x w x x k . b k &   % ",
"&   ; k x x w x k k w x k . x &   5 . k x x w x k k ..,.q.&.T S A Q a.e.1.{ w c k k w x k . x &   ; . k x x w x k k w x k %   6 ",
"8   8 b x k x w k x w c k . x 5   8 . b x k x w k c / &.0.4.] V F F.y.9.1.{ x w k x w x k . x ;   8 . b x k x w k x w x k 6   8 ",
"&   ; b x k x w k x k q k k w &   5 w b x k x w k x ) %.9.9.,.6.5.p.q.0.<.{ c w k x k q k k w &   8 w b x k x w k x k q k &   6 ",
"&   8 k x q x w k x b . x k w &   5 0 k x q x w k x _ $.8.8.8.e.t.2.2.2.,.' c w k c b . c k w &   ; 0 k x q x w k x b . x %   6 ",
";   8 k x q x . k x b . x k . ;   8 k k x q x . k x I ( } } } } } } } } ` H c . k c b . c k . 5   8 k k x q x . k x b . x 6   8 ",
"8   8 b x . x . k x k w x k . 8   8 k b x . x . k x k w x k . 8   5 k b x . c . k c k w c k . 6   8 k b x . x . k x k w x 8   8 ",
"6   8 b x . x q x x k w x k c ;   8 k b x . x q x x k w x k x ;   8 k b x . x q x x k w x k c 5   8 k b x . x q x x k w x 6   8 ",
"&   % x . k x k x x k w x k c &   % b x . k x k x x k w x k x &   % b c . k x k x x k w x k c *   % b x . k x k x x k w x %   % ",
"%   6 x w x x k k x k k w b x &   6 b x w x x k k x k k w b x &   6 b c w x x k k x k k w b x %   6 b x w x x k k x k k w %   6 ",
"6   8 x w x x k k x b k w b x ;   8 k c w x x k k x b k w b x ;   8 k c w x x k k x b k w b x 6   8 k x w x x k k x b k w 6   8 ",
"%   5 k w x x w k c b k . k b &   6 k k w x x w k x b k . k b &   6 k k w c x w k x b k . k b %   5 k k w x x w k c b k . &   6 ",
"&   6 w k w x . c k c k . k b &   ; k w k w x . x k x k . k b &   5 k w k w x . x k x k . k b %   5 k w k w x . c k c k . %   6 ",
"6   8 w x w b . c k c b w k c ;   8 k w x w b . x k c b w k c ;   8 k w c w b . x k x b w k x ;   8 k w x w b . x k c b w 5   8 ",
"8   8 w x w b 0 c k c b w k c 8   8 x w x w b 0 x k c b w k c 8   8 c w x w b 0 x k x b w k x 8   8 c w x w b 0 x k c b w 8   8 ",
"6   8 b x x w x x k . b x w x ;   8 0 b c c w x x k . b c w x ;   8 0 b x x w x x k . b x w c 6   8 0 b x x w x x k . b x 6   8 ",
"%   % k x x w x x k . b k w x &   % w k x c w x x k . b k w x &   % w k x x w x x k . b k w c &   % w k x x w x x k . b k %   % ",
"%   6 k x x w x k k w x k . x &   6 . k x x w x k k w x k . c %   ; . k x x w x k k w x k . c %   6 . k x x w x k k w x k %   6 ",
"6   8 b x k x w k x w x k . c 6   8 . b x k x w k x w x k . c 6   8 . b x k x w k x w x k . c 6   8 . b x k x w k x w x k 5   8 ",
"&   5 b c k x w k x k q k k w %   6 w b x k x w k x k q k k w &   ; w b x k x w k x k q k k w %   5 w b c k x w k x k q k &   6 ",
"&   6 k c q x w k x b . c k w &   ; 0 k x q x w k x b . x k w &   8 0 k x q x w k x b . c k w %   5 0 k x q x w k c b . x &   5 ",
"6   8 k c q x . k x b . c k . 6   8 k k x q x . k x b . x k . ;   8 k k x q x . k x b . c k . 6   8 k k x q x . k x b . c 5   8 ",
"8   8 b c . x . k x k w x k . 8   8 k b x . x . k x k w x k . 8   8 k b x . x . k x k w c k . 8   8 k b x . x . k x k w c 8   8 ",
"6   8 b x . x q x x k w x k x ;   8 k b c . x q x x k w x k x 6   8 k b x . x q c x k w x k c 5   6 k b c . c q x x k w x 6   8 ",
"%   % x . k x k x x k w x k x &   % b c . k x k x x k w x k x %   % b x . k x k c c k w x k c #   % b x . k c k x x k w x %   % ",
"&   6 x w x x k k x k k w b x &   6 b x w c x k k x k k w b v %   ; b x w x x k k c k k w b x #   6 b x w x c k k x k k w %   6 ",
"6   ; x w x c k k x b k w b c 6   6 k x w c x k k x b k w b k 8   8 k x w x x k k c b k w b x ;   8 k x w x c k k x b k w 5   8 ",
"%   5 k w c c w k c b k . k b %   ; k k w x x w k x b k . k b %   ; k k w v x 0 k c b k . k b %   6 k k w x x w k x b d . &   6 ",
"6 O = 2 p < d , d p y p > p l ; % ; i 2 a 2 s > l u y a > i k = & * i u a u s , d a y p : p k * % ; i u i u y > d a y p > & # 5 ",
"# O O O O X O # # O X O O O O # # O X O X + + # + O O O O X O # % O X O O X # % # O O O O O O % % O X O O X O # % O O O O O O * ",
"% # # O % O O # # # # # # O O # # # # # # + + % % % % O % O O % % % # # # O O # # # O # # O O % % % O % % O O % % % # # # O O = "
};
