/* XPM */
static char *ldoor101705585379[] = {
/* columns rows colors chars-per-pixel */
"64 64 141 2 ",
"   c #17171B",
".  c #3C2913",
"X  c #19222A",
"o  c #25262A",
"O  c #262D34",
"+  c #2C2D32",
"@  c #2B323A",
"#  c #462D16",
"$  c #4D3419",
"%  c #7D0024",
"&  c #4D3A2B",
"*  c #57402B",
"=  c #594737",
"-  c #5D4E3E",
";  c #634721",
":  c #624826",
">  c #7B5526",
",  c #604C36",
"<  c #695433",
"1  c #3A4147",
"2  c #3C687F",
"3  c #464646",
"4  c #494749",
"5  c #4F4D51",
"6  c #595B59",
"7  c #546169",
"8  c #5C787C",
"9  c #657C7B",
"0  c #9B271E",
"q  c #820727",
"w  c #860B23",
"e  c #8E1521",
"r  c #88142F",
"t  c #911E2C",
"y  c #98292A",
"u  c #8E2035",
"i  c #8A5B1E",
"p  c #B2451B",
"a  c #99631B",
"s  c #BA7414",
"d  c #BA751C",
"f  c #BF7A1B",
"g  c #A97127",
"h  c #B77623",
"j  c #BE7820",
"k  c #CE660D",
"l  c #DD790A",
"z  c #C67A15",
"x  c #C1791C",
"c  c #C27A22",
"v  c #A74D4D",
"b  c #AD5853",
"n  c #B96A53",
"m  c #BC7261",
"M  c #B8882F",
"N  c #AB873A",
"B  c #BD8C36",
"V  c #D2891C",
"C  c #E68407",
"Z  c #E78B0B",
"A  c #EE930C",
"S  c #F29304",
"D  c #F29408",
"F  c #F49B0F",
"G  c #E28615",
"H  c #EC991C",
"J  c #F39C15",
"K  c #F2A21F",
"L  c #E29B26",
"P  c #F4AB2C",
"I  c #ECA63C",
"U  c #F3AD32",
"Y  c #F4B137",
"T  c #F4B23A",
"R  c #9B8343",
"E  c #A38E4C",
"W  c #BB9747",
"Q  c #A29150",
"!  c #B09C57",
"~  c #9E9B69",
"^  c #C19944",
"/  c #C69D48",
"(  c #EAB04F",
")  c #F0B241",
"_  c #F6B944",
"`  c #F5BE4E",
"'  c #EFB853",
"]  c #F5BE50",
"[  c #C98866",
"{  c #D1956A",
"}  c #D8A26E",
"|  c #F5C153",
" . c #F5C459",
".. c #F8C359",
"X. c #F6C964",
"o. c #F7CD6B",
"O. c #F8CC6C",
"+. c #EFC675",
"@. c #F6CF72",
"#. c #F8D173",
"$. c #F7D57C",
"%. c #F9D47A",
"&. c #326780",
"*. c #366B85",
"=. c #3C6B83",
"-. c #366F8C",
";. c #37708B",
":. c #3B7088",
">. c #387691",
",. c #3C7A94",
"<. c #406A81",
"1. c #537783",
"2. c #417B91",
"3. c #417F98",
"4. c #3F8099",
"5. c #5C838A",
"6. c #45849B",
"7. c #49879D",
"8. c #4A889C",
"9. c #608B92",
"0. c #478AA1",
"q. c #4A8CA2",
"w. c #4F90A4",
"e. c #5394A8",
"r. c #5A9BAB",
"t. c #639EA8",
"y. c #68A5AE",
"u. c #7DACAF",
"i. c #64A6B3",
"p. c #66A8B4",
"a. c #79ABB1",
"s. c #78B3BD",
"d. c #E8C48D",
"f. c #F9D983",
"g. c #F9DD8C",
"h. c #FAE296",
"j. c #FBE59D",
"k. c #FEE99F",
"l. c #FDE9A0",
"z. c #81BAC1",
"x. c #89BFC5",
/* pixels */
"+   + < ; ; $ ; ; * . < ; $ ; +   + # < ; ; $ ; ; * # < ; $ ; +   + # < ; ; $ ; ; * . < ; $ ; +   + # < ; ; $ ; ; * . < ; +   + ",
"o   o * ; ; $ ; ; * . < * $ ; o   o $ * ; ; $ ; ; * . < * $ ; o   o $ * ; ; $ ; ; * . < * $ ; o   o $ * ; ; $ ; ; * . < * o   o ",
"o   + & ; ; $ ; * * $ ; * . ; o   + . * ; ; $ ; * * $ ; * . ; o   + # * ; ; $ ; * * $ ; * . ; o   + . * ; ; $ ; * * $ ; * o   + ",
"+   + < ; * ; $ * ; $ ; * . ; +   + . < ; * ; $ * ; $ ; & . ; +   + . < ; * ; $ * ; $ ; * . ; +   + . < ; * ; $ * ; $ ; * +   + ",
"o   + < ; * ; $ * ; * $ * * $ o   + $ < ; * ; $ * ; * $ * * $ o   O $ < ; * ; $ * ; * # * * $ o   + $ < ; * ; $ * ; * # * o   + ",
"o   + * ; $ ; $ * ; < . ; * $ o   O # * ; $ ; $ * ; < . ; * $ o   O # * ; $ ; $ * ; < # ; & $ o   + # * ; $ ; $ * ; < . ; o   + ",
"+   + * ; $ ; . * ; < # ; * . +   + * * ; $ ; . * ; < . ; * . +   + * * ; $ ; . * ; < # ; * . +   + * * ; $ ; . * ; < . ; +   + ",
"+   + < ; . ; . * ; * $ ; * . +   + * < ; . ; # * ; * $ ; * . +   + * < ; . ; . * ; * $ ; * # +   + * < ; . ; . * ; * $ ; +   + ",
"+   + < ; # ; $ ; ; * $ ; * ; O   + & < ; # ; $ ; ; * $ ; * ; +   + * < ; . ; $ ; ; * $ ; * ; +   + * < ; . ; $ ; ; * $ ; +   + ",
"o   o ; . * ; * ; ; * $ ; * ; o   o < ; # & ; & ; ; * $ ; * ; o   o < ; . : ; & ; ; * $ ; * ; o   o < ; . * ; * ; ; * $ ; o   o ",
"o   o ; $ ; ; * * ; * * $ < ; o   + < ; $ ; ; : * ; * * $ < ; o   + < ; $ ; ; * * ; * * $ < ; o   + < ; $ ; ; * * ; * * $ o   + ",
"+   + ; $ ; ; & * ; < * $ < ; O   + : ; $ ; ; & * ; < * $ < ; +   + * ; $ ; ; & * ; < * $ < ; +   + * ; $ ; ; * * ; < * $ +   + ",
"o   + * $ ; ; $ & ; < & . * < o   + & & $ ; ; $ * ; < * . & < o   + * * $ ; ; $ * ; < * # * < o   + * * $ ; ; $ * ; < * . o   + ",
"o   + $ & $ ; # ; : ; : . & < o   + : $ & $ ; . ; * ; * # * < o   + * $ * $ ; . ; * ; * . * < o   + * $ * $ ; # ; * ; * . o   + ",
"+   + $ ; $ < # ; * ; < $ * ; +   + : $ ; $ < # ; * ; < $ * ; +   + * $ ; $ < . ; * ; < $ * ; +   + * $ ; $ < . ; * ; < $ +   + ",
"+   + $ ; $ < $ ; * ; < $ * ; +   + ; $ ; $ < # ; * ; < $ & ; +   + ; $ ; $ < $ ; * ; < $ & ; +   + ; $ ; $ < # ; * ; < $ +   + ",
"+   + < ; ; $ ; ; * . < ; $ ; +   + # < ; ; $ ; ; * . < ; $ ; +   + # < ; ; $ ; ; * # < ; $ ; +   + # < ; ; $ ; ; * . < ; +   + ",
"o   o * ; ; $ ; ; * . < * $ ; o   o $ * ; ; $ ; ; = u.x.x.z.y.r.8.7.8.2.:.6 $ ; ; & # < & $ ; o   o $ * ; ; $ ; ; * . < * o   o ",
"o   + * ; ; $ ; * * $ ; * . ; o   + . * ; ; $ ; - 6 a.z.z.s.i.r.0.0.0.4.>.7 & : * * $ ; : . ; o   + . * ; ; $ ; * * $ ; * o   + ",
"+   + < ; * ; $ * ; $ ; * . ; +   + . < ; * ; $ 5.t.e.q.3.2.,.>.>.>.>.4.0.2.<.3 * ; $ ; & . ; +   + . < ; * ; $ * ; $ ; * +   + ",
"o   + < ; * ; $ * ; * $ * * $ o   + $ < ; * ; $ 9.i.q.6.<.<.=.&.&.&.2 6.w.4.;.4 * ; * $ * * $ o   + $ < ; * ; $ * ; * $ * o   + ",
"o   + * ; $ ; $ * ; < . ; & $ o   + # * ; $ ; $ 9.i.6.*.5 * & O X @ # 8 i.8.;.4 * ; < . ; * $ o   + # * ; $ ; $ * ; < . ; o   + ",
"+   + * ; $ ; . * ; < # ; * . +   + * * ; # ; . 5.r.3.&.< & . +   + & 9 p.8.:.1 * ; < . ; * . +   + * * ; $ ; . * ; < . ; +   + ",
"+   + < ; . ; . * ; * $ ; * # +   + * < ; . ; . 1.q.,.=., : . +   + * 9 i.8.:.1 * ; * $ ; * . +   + * < ; . ; . * ; * $ ; +   + ",
"+   + < ; . ; $ ; ; * $ ; * ; +   + * < ; . ; $ 1.q.,.*., * ; +   + & 9 p.8.;.4 ; ; & $ ; * ; +   + * < ; . ; $ ; ; * $ ; +   + ",
"o   o ; # * ; & ; ; * $ ; * ; o   o < ; . * ; * 1.q.,.*.= * ; o   o < 9 p.7.-.5 ; ; * $ ; * ; o   o < ; . * ; * ; ; * $ ; o   o ",
"o   + ; $ ; ; * * ; * * $ < ; o   + < ; $ ; a x N Q ~ ~ W / ^ B s j c M ! E R h d > * * $ < ; o   + < ; $ ; ; * * ; * * $ o   + ",
"+   + ; $ ; ; * * ; < * $ < ; +   + * ; $ ; z D S D _ | | ]  .T F S S S S S S D A i < * $ < ; +   + * ; $ ; ; * * ; < * $ +   + ",
"o   + * $ ; ; $ * ; < * . * < o   + * * a V L T ..O.$.f.f.$. .` T Y Y Y Y T Y Y U V V * . * < o   + * * $ ; ; $ * ; < * . o   + ",
"o   + $ * $ ; . ; * ; * . * < o   + * $ d S U  .f.l.j.j.j.g. .| | | | | | | | ..| F S & . * < o   + * $ * $ ; . ; * ; * . o   + ",
"+   + $ ; $ < . ; * ; < $ * ; +   + * $ z S ` g.j.j.j.h.@.X.| ] | | | | | | | | | F S < $ * ; +   + * $ ; $ < . ; * ; < $ +   + ",
"+   + $ ; $ < # ; * ; < $ * ; +   + ; $ f D  .l.j.j.j.g.] ' ( ( ( ] ..| | | | | | F D < $ * ; +   + ; $ ; $ < # ; * ; < $ +   + ",
"+   + < ; ; $ ; ; * # < ; $ ; +   + # < W _ @.l.j.h.o. .K G y t t n h.#.| ..| | ` J S < ; $ ; +   + # < ; ; $ ; ; * . < ; +   + ",
"o   o * ; ; $ ; ; * . < * $ ; o   o $ * ^ ] f.j.h.g. .) G k w % % v d.+. . .| | ` F S < * $ ; o   o $ * ; ; $ ; ; * . < * o   o ",
"o   O * ; ; $ ; * * $ ; * # ; o   + . * ^ | $.j.+.| P C 0 w q % % q r m k.o.| | ` J D ; * . ; o   + . * ; ; $ ; * * $ ; * o   + ",
"+   + < ; * ; $ * ; $ ; & . ; +   + . < W ] @.g.X.] J C e % % % % % % m k.#.| | | J D ; * . ; +   + . < ; * ; $ * ; $ ; * +   + ",
"o   + < ; * ; $ * ; * $ * * $ o   + $ < ^ | | | | ] J C e % % % % % % m k.#.| | ` J S $ * * $ o   + $ < ; * ; $ * ; * $ * o   + ",
"o   + * ; $ ; $ * ; < . ; * $ o   + # * B T ` | | ] P L p 0 q % % u v { f.X.| | ` J S . ; * $ o   + # * ; $ ; $ * ; < . ; o   + ",
"+   + * ; $ ; . * ; < . ; * . +   + * * f S Y | | | | ` F l w % % b k.#.| | | | ` J S . ; * . +   + * * ; $ * . * ; < . ; +   + ",
"+   + < ; . ; . * ; * $ ; & . +   + * < f S U | | | | _ J l w % % b k.%.| | | | | J D $ ; * . +   + * < ; . ; . * ; * $ ; +   + ",
"+   + < ; . ; $ ; ; * $ ; * ; +   + * < x S Y | | | | _ F l w % % b j.#.| | | | ` F S $ ; * ; +   + * < ; . ; $ ; ; * $ ; +   + ",
"o   o ; . * ; * ; ; * $ ; * ; o   o < ; s S U | | | | | Y I [ [ [ } #.X.| | ` | ` J D $ ; * ; o   o < ; . * ; * ; ; * $ ; o   o ",
"o   + ; $ ; ; * * ; * * $ < ; o   + < ; s S U | | | | | |  .k.k.l.f.| | | | | | ` J A * $ < ; o   O < ; $ ; ; * * ; * * $ o   + ",
"+   + ; $ ; ; * * ; < * $ < ; +   + * ; s S U | | | | | | | o.o.o. .| | | | | | ] J S * $ < ; +   + * ; $ ; ; * * ; < * $ +   + ",
"o   + * $ ; ; $ * ; < * . * < o   + * * f A U | | | ` | | | _ | | | | ` ` ` _ | ` H A * . * < o   + * * $ ; ; $ * ; < * . o   + ",
"o   + $ * $ ; . ; * ; * . * < o   + * $ > a V J J J J J F J F K K F F K J J K K H g a * . * < o   + * $ * $ ; # ; * ; * . o   + ",
"+   + $ ; $ < . ; * ; < $ * ; +   + * $ : $ j S S S S S S S S S S S S S S S S S Z > ; < $ * ; +   + * $ ; $ < . ; * ; < $ +   + ",
"+   + $ ; $ < # ; * ; < $ * ; +   + ; $ ; $ < # ; * ; < $ * ; +   + ; $ * $ < # ; * ; < $ * ; +   + ; $ ; $ < # ; * ; < $ +   + ",
"+   + < ; ; $ ; ; * . < ; $ ; +   + # < ; ; $ ; ; * . < ; $ ; +   + # < ; ; $ ; ; * . < ; $ ; +   + # < ; ; $ ; ; * . < ; +   + ",
"o   o * ; ; $ ; ; * . < * $ ; o   o $ * ; ; $ ; ; * . < * $ ; o   o $ * ; ; $ ; ; * . < * $ ; o   o $ * ; ; $ ; ; * . < * o   o ",
"o   + * ; ; $ ; * * $ ; * . ; o   + . * ; ; $ ; * * $ ; * . ; o   + . * ; ; $ ; * * $ ; * . ; o   + . * ; ; $ ; * * $ ; * o   + ",
"+   + < ; * ; $ * ; $ ; * . ; +   + . < ; * ; $ * ; $ ; * . ; +   + . < ; * ; $ * ; $ ; * . ; +   + . < ; * ; $ * ; $ ; * +   + ",
"o   + < ; * ; $ * ; * $ * * $ o   + $ < ; * ; $ * ; * $ * * $ o   + $ < ; * ; $ * ; * $ * * $ o   + $ < ; * ; $ * ; * $ * o   + ",
"o   + * ; $ ; $ * ; < . ; * $ o   + # * ; $ ; $ * ; < . ; * $ o   + # * ; $ ; $ * ; < . ; * $ o   + # * ; $ ; $ * ; < . ; o   + ",
"+   + * ; $ ; . * ; < . ; * . o   + * * ; $ ; . * ; < . ; * . +   + * * ; # ; . * ; < . ; * # +   + * * ; $ ; . * ; < . ; +   + ",
"+   + < ; . ; . * ; * $ ; * . +   + * < ; . ; . * ; * $ ; * . +   + * < ; . ; . * ; * $ ; * . +   + * < ; . ; . * ; * $ ; +   + ",
"+   + < ; . ; $ ; ; * $ ; * ; +   + * < ; # ; $ ; ; * $ ; * ; +   + * < ; . ; $ ; ; * $ ; * ; +   + * < ; . ; $ ; ; * $ ; +   + ",
"o   o ; . * ; * ; ; * $ ; * ; o   o < ; . * ; * ; ; * $ ; * ; o   o < ; . * ; * ; ; * $ ; * ; o   o < ; . * ; * ; ; * $ ; o   o ",
"o   O ; $ ; ; * * ; * * $ < ; o   + < ; $ ; ; * * ; * * $ < ; o   + < ; $ ; ; * * ; * * $ < ; o   + < ; $ ; ; * * ; * * $ o   + ",
"+   O ; $ ; ; * * ; < * $ < ; +   + * ; $ ; ; * * ; < * $ < ; +   + * ; $ ; ; * * ; < * $ < ; +   + * ; $ ; ; * * ; < * $ +   + ",
"o   + & $ ; ; $ * ; < * . * < o   + * * $ ; ; $ * ; < * . * < o   + * * $ ; ; $ * ; < * . * < o   + * * $ ; ; $ * ; < * . o   + ",
"o   + $ * $ ; # ; * ; * . * < o   + * $ * $ ; . ; * ; * . * < o   + * $ * $ ; . ; * ; * . * < o   + * $ * $ ; . ; * ; * . o   + ",
"+   + $ ; $ < . ; * ; < $ * ; +   + * $ ; $ < . ; * ; < $ * ; +   + * $ ; $ < . ; * ; < $ * ; +   + * $ ; $ < . ; * ; < $ +   + ",
"+   + $ ; $ < # ; * ; < $ * ; +   + ; $ ; $ < # ; * ; < $ * ; +   + ; $ ; $ < # ; * ; < $ * ; +   + ; $ ; $ < # ; * ; < $ +   + "
};
