/* XPM */
static char *skate1705317565[] = {
/* columns rows colors chars-per-pixel */
"64 64 248 2 ",
"   c #0A060A",
".  c #0D0B0C",
"X  c #050307",
"o  c #110D0E",
"O  c #020212",
"+  c #0D0C12",
"@  c #0B0C1B",
"#  c #050718",
"$  c #120E13",
"%  c #110E19",
"&  c #0F1114",
"*  c #131213",
"=  c #191416",
"-  c #14131A",
";  c #1C1A1B",
":  c #191719",
">  c #10110F",
",  c #221C1E",
"<  c #20171A",
"1  c #0D0E23",
"2  c #0A1326",
"3  c #141423",
"4  c #1C1B24",
"5  c #14152A",
"6  c #16192B",
"7  c #1B1C2D",
"8  c #181724",
"9  c #1C1D32",
"0  c #111D3B",
"q  c #0B1C38",
"w  c #221E24",
"e  c #201F2D",
"r  c #241F33",
"t  c #1E222C",
"y  c #1E2133",
"u  c #182437",
"i  c #0E212D",
"p  c #23222D",
"a  c #292628",
"s  c #332D2C",
"d  c #322D27",
"f  c #38332C",
"g  c #232434",
"h  c #252934",
"j  c #2B2B35",
"k  c #23253A",
"l  c #252A3B",
"z  c #2B2C3C",
"x  c #292637",
"c  c #312E3C",
"v  c #342D34",
"b  c #2D303D",
"n  c #283839",
"m  c #33323D",
"M  c #3A3736",
"N  c #2C362D",
"B  c #1B2C1A",
"V  c #433B37",
"C  c #36433A",
"Z  c #48443A",
"A  c #42513C",
"S  c #182849",
"D  c #1B2E54",
"F  c #1C355D",
"G  c #2B2E42",
"H  c #262B44",
"J  c #332D44",
"K  c #2D3143",
"L  c #2A3649",
"P  c #343443",
"I  c #383643",
"U  c #353945",
"Y  c #3B3A45",
"T  c #33354A",
"R  c #36394B",
"E  c #3A3C4B",
"W  c #383548",
"Q  c #293658",
"!  c #3B3C52",
"~  c #333C57",
"^  c #282E50",
"/  c #21325B",
"(  c #423E47",
")  c #403E54",
"_  c #3B444B",
"`  c #3E4252",
"'  c #3A4557",
"]  c #2D405E",
"[  c #32476A",
"{  c #474647",
"}  c #514E49",
"|  c #56574A",
" . c #434554",
".. c #4B4B55",
"X. c #43445A",
"o. c #454C5B",
"O. c #4C4D5C",
"+. c #464854",
"@. c #49545B",
"#. c #585659",
"$. c #4C5550",
"%. c #615D5E",
"&. c #566858",
"*. c #51624C",
"=. c #636457",
"-. c #494C62",
";. c #4C5463",
":. c #535463",
">. c #5A5D6C",
",. c #565967",
"<. c #47587B",
"1. c #535875",
"2. c #5A646C",
"3. c #5C6375",
"4. c #5F7165",
"5. c #656569",
"6. c #636473",
"7. c #676B78",
"8. c #6C727B",
"9. c #777779",
"0. c #737070",
"q. c #665D64",
"w. c #768078",
"e. c #84847E",
"r. c #475E85",
"t. c #556987",
"y. c #566999",
"u. c #5B7599",
"i. c #4C658F",
"p. c #6B6B81",
"a. c #6C7483",
"s. c #787A86",
"d. c #6E7799",
"f. c #5C76A8",
"g. c #587AB8",
"h. c #4B71B2",
"j. c #6378A9",
"k. c #667DB5",
"l. c #737FA5",
"z. c #5777C8",
"x. c #587CD3",
"c. c #4E7AC8",
"v. c #617CCE",
"b. c #857E82",
"n. c #7D838D",
"m. c #718497",
"M. c #6A87B9",
"N. c #758CBA",
"B. c #7289B1",
"V. c #5C83BE",
"C. c #5A83C8",
"Z. c #5982D1",
"A. c #6888C8",
"S. c #738DC5",
"D. c #6D93C9",
"F. c #7897C9",
"G. c #688BD8",
"H. c #6E94D6",
"J. c #7899D6",
"K. c #718CD6",
"L. c #7CA2DA",
"P. c #7C9BE4",
"I. c #7AA4E3",
"U. c #858588",
"Y. c #878A95",
"T. c #938E97",
"R. c #969499",
"E. c #8C9294",
"W. c #A19C9D",
"Q. c #8D94A1",
"!. c #989BA6",
"~. c #8597BA",
"^. c #8D8CA2",
"/. c #9CA3AC",
"(. c #A7A6A9",
"). c #A8A9B6",
"_. c #B2AEB8",
"`. c #B8B6B9",
"'. c #AEB1B3",
"]. c #A29DA4",
"[. c #C3BCBC",
"{. c #869AC8",
"}. c #919EC7",
"|. c #869DD5",
" X c #8AA4CB",
".X c #8BA5DA",
"XX c #89A8D6",
"oX c #94AAD8",
"OX c #9AB5DB",
"+X c #95A6CE",
"@X c #B9BAC7",
"#X c #A5B6D9",
"$X c #ABB3CF",
"%X c #849EE6",
"&X c #88ABE6",
"*X c #8DB2E8",
"=X c #98B6E9",
"-X c #99B8F6",
";X c #8DB0F0",
":X c #A6BCE9",
">X c #A3BDF7",
",X c #B3BFE5",
"<X c #C4BCC9",
"1X c #BEC2CA",
"2X c #B6C1DA",
"3X c #9EC2F2",
"4X c #A8C4E9",
"5X c #B4C4E8",
"6X c #AAC5FC",
"7X c #ABCAFE",
"8X c #A7C5F6",
"9X c #B4CAF8",
"0X c #B9D7FE",
"qX c #AFD4FF",
"wX c #BFE1FF",
"eX c #C7C6CA",
"rX c #D1CDCD",
"tX c #C9CAD5",
"yX c #CDD3DB",
"uX c #D7D6DA",
"iX c #D1CED7",
"pX c #E4DFDF",
"aX c #CAD4EA",
"sX c #D9DBE7",
"dX c #C8DBFE",
"fX c #D5DBF9",
"gX c #C3CDE8",
"hX c #E4DBE5",
"jX c #C8E5FF",
"kX c #D9E6FC",
"lX c #D8EFF5",
"zX c #E5E3E5",
"xX c #E9E8EB",
"cX c #F1EBED",
"vX c #ECECF2",
"bX c #E7EAFA",
"nX c #F2EDF2",
"mX c #F0EEFB",
"MX c #EAF7FC",
"NX c #F5F4F5",
"BX c #FAF4F5",
"VX c #F3F4FC",
"CX c #FCF6FC",
"ZX c #F5FBFE",
"AX c #FDFDFE",
"SX c #FBFBF6",
"DX c #EEF3EF",
"FX c #E2E5DE",
/* pixels */
"Z.c.c.x.Z.Z.Z.Z.x.x.z.v.v.v.G.%XJ.{.|.+X+X}.}.+X}.,XfXfX0X9X0XdX8XqX3XL.J.A.z.z.x.z.z.z.x.c.C.c.c.z.z.z.Z.g.h.V.h.f.f.g.f.f.j.k.",
"c.x.x.G.G.G.G.Z.x.G.G.z.v.%X-X>X9X7X8X9X,X>X:X,XdXfXdXdXjXjX0X8X8XOXXX*X*XD.v.P.G.G.G.G.Z.c.C.C.c.z.v.z.Z.g.g.A.A.M.k.M.k.j.j.f.",
"H.H.G.x.C.H.H.G.G.G.H.G.P.;X>XdX0X0X0X0XdX9X>X5XdXdXdXqXqX4X3X*XXXF.L.4X>X|.S.J.J.%XP.P.H.G.C.G.v.K.A.g.C.V.D.*X*X*XXX&XoXoX|.|.",
"C.D.H.D.I.7XwXwX;XA.A.;X;X%X-X0XqXqX0XwX0X9X,X8X.X=X:X=XL.L.L.L.M.N.F. X|.oX.X{..X.XJ.J.J.H.H.H.J.%XJ.H.L.L.L.3X*X*X*X=X>X>X>X:X",
"M.L.3XqXjXMXMXlXwXL.D.*X-X.XJ.;X4XOX*XXXF.M.B.F.{. XF.D.F.L.D.V.N.N. XOXOX9XdX0X4X:XXX X|.|.J.|.&X=X=X3X3X*XM.V.A.S.S.{.|.|.|.}.",
"4XqXwXjXjXlXlXjXjXwX3XL.J.&XL.D.L.V.r.[ F D F F B.S.F.D.D.D.L.L.oX{.9XZXZXZXZXZXMXkX5X#XoX.X.X|..XoXF.N.L.J.V.V.f.M.k.j.j.k.j.y.",
"qX4XOXOX3XqXjXjXwXwX3XJ.J.I.&XJ. Xm.] S S S S S ] y.F.*XXXL.*X*XF.j.}.kXMXZXZXZXZXZXkXaX:X#X=X>X=XOX{.M.B.M.M.N.M.J.|.v.j.k.j.y.",
"9X4X X XOXXXOX3X3X3X*XI.L.L.L.*XF.t.L H ] ] Q H q Q m.4XwXwX3XXX[ S S [ a.1XZXDXZXZXZXbX5X,XdXdXdXjX0X#XOX XF.F.D.XXoX{.v.l.v.j.",
"dX0X9X9XqX7X=X&XI.*X;XI.I.I.P.A.l.3.R u 2 6 k G K 2 k t.N.y./ q 0 S ^ ~ O.q.).SXAXSXDXZXkXfXVXbXlXMXjX4X4X4X=X|.*X*X.XF.S.|.{.N.",
">X>X:X:X>X>X=X&X*X*X;X;X;XP.P.H.d.7.X.l 3 + % 8 7 O O 2 i 2 2 q 0 D ^ J ( } 9.`.SXSXAXAXmXsXfXaXdXlX0X2X4XOXoXF.N.F.F.M.M.N.B.M.",
":X*X*X=X>X>X-X;X3X-X-X;X;XP.H.A.d.8.>.( p % % - w 8 % % - 2 k ~ ^ ^ H H ) ( ( q.rXAXAXAXAXVXbXaX2X5X5XOXXX XF.M.M.F.F.N.M.B.j.u.",
">X>X-X>X6X7X6X-X3X-X-X-X;X%XK.M.r.,.X.L g - % %   + % - 4 z G k ! ~ H ! :.} ( ( U.BXAXBXAXAXmXbX2X2X5X+X XF.M.k.M.D.D.f.u.f.u.j.",
">X6X-X6X7X7X3X6X>X-X>X-X;X%X|.S.t.<.' K H r e 8 # 3 %   O 8 7 1 T H 0 T O.) x ( q.nXCXnXAXAXBXZXaX$X4XOX{.{.S.S.g.M.F.D.N.N.~. X",
"7X6X8X6X7X7X7X3X>X8X8X>X>X|.{.k.u.r.[ Q Q ~ J c E O.O.J e 9 r 1 H H 6 k ) ) J J ( hXCXmXAXCXAXAXaX~.#X}.k.|.S.K.M.D.XXOXXX X~.N.",
"3X3X3X3X3X8X8X8X7X9X9X6X>XOX{.k.M.i.r.<.<.r.1.1.-.-.-.) R T l 9 G _ H 9 ! >.-.J r <XCXCXAXSXSXAXgXl.}.{.k.{.k.A.g.k.V.M.V.m.m.i.",
"I.*X&X*X=X=X=X=X=X=X:X9X9X:XoX}.+X X X}.+X$X,X2X1.! r 5 J -.X.T G -.R 2 ! d.p.J J <XCXCXAXSXSXSXaXl.}.{.k.|.k.k.A.M.f.u.V.h.m.m.",
"3XI.I.3X3X;X3X;X&X>X>XoX>X,X}.,X$X$XkXlXVXZXbXa.5 O 5 r >.<XT.r T T ! ~ X.) T 9 G bXVXvXAXSXAXZXbX~.}.}.{.}.k.k.k.k.k.f.f.f.y.y.",
"I.3X*XI.I.I.3XI.;X=XoX,X,XoX#XgX).xXZXZXAXAX>.1 5 G W e ^.VXiX..J J k k H ^ H 9 E bXAXZXZXSXAXZXZX#X~.}.{.{.S.S.v.l.k.y.y.y.i.i.",
"H.I.3X*XXXOXI.L.dXkXdX,X#XfXbX$XyXZXZXZXbX_.1 # # J r 5 ).CXtX) J H 9 1 1 r r 9 z @XAXAXZXAXAXZXAXgX~.~.l.y.d.y.d.y.y.y.i.r.r.r.",
"m.i.m.B.N.B.B.+X,XfXVXkXfXmXsXbXAXbXZXAXsXW r H e G e 6.<XmX).x J J r 1 1 5 r k 1 >.sXAXZXAXSXZXbX$X3.3.<.Q <.[ ^ / / / D D S S ",
"n i i i L L H 3.6.tXmXCXCXhXhXAXZXZXyXZXsX@ 9 2 G r r _.@XhX).$ J P z 9 9 k l G 1 x !.VXAXSXDXZXZXkXa.-.~ H ] Q S S u 0 0 0 0 q ",
"N C _ t _ &.l O.!.AX<XhXCXhXAXcXmXZX2.n.s.2 @ 2 7 r r @X$XuXiX4 x z G z k k G G 5 @ O.tXZXZXZXAXyXyXQ.3.1.;.-.' -.' ~ L ^ T K H ",
"B N *.C #.&.N #.AX@XR.CXAXhXCXAXVX1X- # 5 7 9 l r G c _.uXeXAXs.- h m G z z G l 3 @ 4 (.ZXZXxXeX5.R.!.5.:.6.@.:.` E P b h n h y ",
"*.C &.*.9.w.2.eXrX..hXAXxXAXnXAXVX2.K 3 7 9 J 9 J r 5 R.VX!.AXrX+ 7 b z z z G G t y @ Y.ZXFX`.5.rXAXAXn.{ ..v { m m N h t a p p ",
"*.*.w.*.w.E.FXlX&.&.MXZXAXCXAXAXtX_ l i k 5 l r 9 W 3 9.vX(.AXAX..t & n b g U 6 7 t h eXuX8.'.zXAXDXAXeX0.#.{ =.{ C C f f N s N ",
"*.&.*.w.n.E.yX'.i w.AXZXVXAXAXmXs.l l l l k r k J 7 r 6.AXT.nXAX9.. X h W P b U b 8 U 8./.eXFXAXBXAXSXzXR.| } Z Z M f f f d s s ",
"@.&.A 4.n.!.aX8.# ).ZXZXZXZXZXtXR l l l k H 5 J ^.x % #.AX'.rXAXeXa + t U { t b g 7 E 2.`.AXAXAXDXAXSXAXeX| | Z f f f f d d s d ",
"C A _ &.w.Q.yXR L sXMXzXAXZXZX!.h L l l 9 k 5 p.mXO.O >.AXuX(.SXZX9.t X - b z 7 p b m (.ZXZXZXvXAXAXSXSXcXe.| =.Z Z Z f f f s f ",
"n n _ $.7.Y.).3 s.ZXiXtXVXAXzX9.l K u T H k H ).AX:.8 5.CXxXR.uXSXuX$.4 - _ a.p U Y ,.yXZXvXZXAXZXZXAXAXSX`.=.=.| Z Z V V f V f ",
"N n } ..5.U.b.O _.AXtXiXAXAXuXq.b l u K H 1 5 }.AXW - I AXAX(.e.DXSX1X].E./.eXI U ..1XzXZXAXvXAXAXvXZXAXAXFX0.A =.| Z Z V V V V ",
"N B } } U.T.#.  _.AXcXnXAXAX[.( b 2 u 6 9 O 9 b.AX-.8 4 uXAXuXw.(.DXZXAXZXVXbX2.` s.AXZXZXAXvXZXZXZXAXAXAXSX[.=.| Z Z V V V V V ",
"B * $...T.R...$ R.AXCXAXBXCXT.< p 1 g # 9 5 X.!.AXT.( x 0.CXAXrX4.W.uXAXAXAXVX(.6.eXAXAXNXCXAXAXAXAXVXAXSXSXcXe.| Z V V V V V ( ",
"u _ _ ' n./.2.. s.AXVXhXAXhX%.w t O # 1 5 1 +.AXAXAXT.8 #.AXCXAXeX=.{ [.nXCXCXxXE.cXCXAXAXBXAXAXAXAXBXAXBXpXAXCXT.f , V V d V v ",
"' n n 2.Q.!.4.u _.VXAXtXnXCX#.X @ 8 k 1 O O ( mXVXAX<X( x iXAXAX<X%.V #.T.rXAXAX(.pXAXBXAXSXAXAXnXBXCXcXBXCXAXzXuXq.a d < < v a ",
"@.n _ 4.Q./.w._ E.uXAXuXsXNXs.- j 7 @ + e - z !.VXAXAX_.9.rXAXnXrX#.#.{ 5.5.W.pX[.eXAXCXCXSXAXSXAXCXBX].T.rXhXCXSXb.d < < , s a ",
"' @.@.' m.Q.n.@.;.vXAXCXuXq.#.$ p g 3 3 j 4 ..uXAXvXAXAXhXnXCXBX`.| %.{ } M s =.T.e.cXCXAXBXAXCXAXcXhX[.(.(.[.cX[.0.a < < < a < ",
"' <.&.@.2.n.n.8.+.1XAXiXiX+ @ - X p + X 7 ..(.AXAXNXxXCXAXAXAXAXq.V M } #.} = < M w `.BXAXCXAXAXAXzX'.rXCXcXrX].} V = < < = = = ",
"@.@.@.<.3.7.m.n.6.8.tX8._.{ X 7 8 8.@.b 8.eXCXNXVXAXCXzXAXAXCXrX,   a eXhXU.o = o X e.AXAXCXAXSXAXAXW.(.BXSXrX9., < o = = o = < ",
"' _ @.4.3.2.2.8.!.s.eX#.s.U.8 % 2.vXAXuXzXZXAXAXvXAXAXNXSXSXBX0.* X , uXAX=.  = ; = #.AXAXAXBXSXcXAXuXeXcXrX9.M , a = o = o o < ",
"n ' @.[ 1.7.2.+.s.Q.@X8.5.`.n.M '.SXZXmXAXNXNXvXAXzXSXAXSXcXcXZ . , X a %.X , . = $ d cXSXAXAXAXBXBXAXnXBX`.V V a , o   = = o o ",
"S _ E ,.;.;.a.` +.n.bX!.$.Y.s.,.xXzXZXAXDXmXAXAXBXSXxXAXDXSX[.d o o . X o o o = o . < 0.pXAXAXNXcXSXAXxX(.%.C N = o o o . o > > ",
"u n L o.` R 2.` z _ @X1X7.+.5.tX@XtXvXZXAXAXNXxXCXAXCXAXSXAXR.o = = = o o o o = o = = d 0.'.uXBXAXAXnX[.9.v * > o o . o . o * = ",
"i l l T l u o.o.U 6 >.Y.n.7.s.yXZXZXsXyXvXNXZXAXVXCXAXnXcXBXq.X = o o o o o o o o < o   o ; M #.9.0.&.C , . . & o .   . . > * * ",
"S u y y 6 y ' >.K l +.:.>.2.8.1XZXZX!.#.7.T.@XAXAXAXAXxXzXuXM *   . o o . .       = o o , =   . * . . . . X > * . .     . > * = ",
"H 9 9 9 9 7 z ;.;.` ' O.,.,.,.n.sXCX).-.O.5.U.eXmXCXAXnXhX`.- = . . o o o o o o = =   o a d , < * : : : : : & > > > > . . . > > ",
"r 9 y k H y 6 X.a.8.>.o.,.8.,.b /.VXiX7.....+.>.].).tXBXnX].% w . .   o o o o o * < o   o .   = * . . . > : > > * & > > . > > & ",
"r 0 k r l u y p.Q.Q.n.3.' @.,.b Q.AXVXb.:.,.:.:.#.q.Y.VXCXR.w a o = o .     . o X o o o < < = a 4 B ; > > * > > * & & > > > & : ",
"k 9 k 9 r H ! /.ZXa.R 8.8.'  .L X.tXsX6.( :.:.+...) 7.AXCXR.j v , , < o o o o o . o .   o o . o . & : & : t B > > & > > & * : ; ",
"9 9 9 9 y l L E s.R # g ,.7.-.b z (.Q.7 1 R X.:.-.:.O.hXsX6.P E I v x w % + + + + + +       + + & * - - - : - : & & > * > * : ; ",
"k g g 9 9 k z R K R K 7 R 6.a.3.6 bXtX6 5 E ^ -.1.X.! ).xX:.J m J c c x r e % % + +     + . + + + + + * * - - * * & . > > = : : ",
"z l k g t y l G k K R R G R >.s.-.yXaX-.O @ 9 r :.) ) !.mX3.j m m I I I c c e 4 - @ + #   + + +   O + + + + * + & & . > > > = ; ",
"G z g y 9 y g l E z P R G 9 K ,.T.eXsXY.3 1 T 9 H -.) ,XVXQ.t z c c I W I I c v e p : % + + + + + + + + + + - * + * & . > > : : ",
"G l g y y y g h g R R k g P R l O.eXtX6.J J k 9 1 J H /.AXtXE z x z c c P m I m m m a p ; - + + & + + + + + * % > & . & > * ; ; ",
"K l y y y g y y 7 z R P z z P K % >.Y.7.! k 9 k k r r >.VXsXU.E j z x r x j I I I m m v a t 4 - - @ + + O + + + + + + . > > * * ",
"K z g y y y 9 7 K y z ` E u g _ K 3 E s.1.J ! ! ! J G J $XiX!.:.J c z x k j j c m m I U m M j a 8 - % % + + + + + + + . > * ; : ",
"P z l y y 9 7 6 y l k y P  .! z I c # 6 p.6.J ) ^ -.W W >.).s.>.W J J z k x x g j j m Y Y _ m m e 4 8 % % + % % & + . > & * > : ",
"P z l g y y u 7 7 y k z z K P U E 3 z ,.6.^.^.) ! ! ! !  .+.+...6. .l x G l k j h l j j m m m Y m c x e 8 - % $ & & * + + . & - ",
"T K k g y y 7 7 7 y u l z K P K U 8 U ).mXtXd.p.p.p.6.>.>.7.s.n.:.R k z J l g j y y h h j n b j I I m j x 4 8 % @ & % + + + - - ",
"P K l g y y 7 7 7 y y g l z K K R m P !.ZX!.5 0 ! X.,.6.6.>.O.+.! H k G P l k l y t t h p h h h c m I Y m v x w & * % + + + * - ",
"P K l g y 7 7 6 7 7 y y l z G b b U j :./.p.1 5 9 9 9 y p g g h K H z G G l l z l h h h h h h g p x c I W W I v t t 4 * + + & - ",
"T K l h y 9 7 6 7 7 7 9 g j l z b P z b X.) T T ^ J H k j z b U T K K K H l H K l h h h h h g h e r x x c I I m m m a 4 - + - ; ",
"T K l g y t 7 6 7 6 7 7 7 u l z U j b E k r H T T W  .X.+. .U m E L K H l l l l h l u h y y t y x g g e e j x j { Y m j p ; 4 4 ",
"R L l l 9 9 6 6 6 6 6 6 4 g g l j y z ! ! ! ) -.X.! G k g z E ` R T K l H K H l h u h u t y t t x x r e e e g p m I M W m j p a ",
"R P l g u t 6 6 6 6 5 6 6 9 u j y U j 4 J ) T T T W ! ) ` U P K T K H H K K z u h u h h h u g g e e r e e e e p e j Y E { m j j "
};
