/* XPM */
static char *skatecow1705592899[] = {
/* columns rows colors chars-per-pixel */
"64 64 233 2 ",
"   c #0D0E18",
".  c #110F19",
"X  c #0D1117",
"o  c #0E111A",
"O  c #13131C",
"+  c #18141B",
"@  c #0E1320",
"#  c #141523",
"$  c #171727",
"%  c #161924",
"&  c #1A1B24",
"*  c #161B2C",
"=  c #1A1C2C",
"-  c #171D30",
";  c #1B1F32",
":  c #231C26",
">  c #1D222D",
",  c #1D2234",
"<  c #1F2439",
"1  c #22232C",
"2  c #29262F",
"3  c #28362B",
"4  c #222434",
"5  c #292A33",
"6  c #22263B",
"7  c #242A3D",
"8  c #2A2D3D",
"9  c #332E38",
"0  c #2B353C",
"q  c #36363D",
"w  c #423A3C",
"e  c #364B34",
"r  c #3D6221",
"t  c #424239",
"y  c #406623",
"u  c #446C25",
"i  c #477127",
"p  c #497428",
"a  c #4E6F3A",
"s  c #4E723C",
"d  c #252B43",
"f  c #252944",
"g  c #2A2E43",
"h  c #2C3245",
"j  c #2D334B",
"k  c #2F344F",
"l  c #323443",
"z  c #383843",
"x  c #3A3C45",
"c  c #32354A",
"v  c #353A4C",
"b  c #3A3D4C",
"n  c #343955",
"m  c #343A54",
"M  c #3B3D53",
"N  c #453F47",
"B  c #3A404B",
"V  c #3B5347",
"C  c #3C4458",
"Z  c #3E4960",
"A  c #474449",
"S  c #424454",
"D  c #484853",
"F  c #4B4C54",
"G  c #41455A",
"H  c #454A5C",
"J  c #4B4C5D",
"K  c #4F5251",
"L  c #565659",
"P  c #566C4A",
"I  c #567B45",
"U  c #567253",
"Y  c #637B54",
"T  c #464A64",
"R  c #4A4E63",
"E  c #4D5163",
"W  c #475069",
"Q  c #4C546B",
"!  c #535564",
"~  c #575967",
"^  c #5B5C6B",
"/  c #4E5371",
"(  c #595E73",
")  c #615D64",
"_  c #5A6369",
"`  c #537566",
"'  c #5C6174",
"]  c #5D637A",
"[  c #676569",
"{  c #70746F",
"}  c #646573",
"|  c #676A76",
" . c #656A7A",
".. c #6A6C7B",
"X. c #6C727B",
"o. c #797478",
"O. c #4E802B",
"+. c #52852D",
"@. c #55892F",
"#. c #578B30",
"$. c #598E31",
"%. c #5A863C",
"&. c #5C9233",
"*. c #618D3B",
"=. c #619634",
"-. c #659C37",
";. c #64973B",
":. c #679D3A",
">. c #689F38",
",. c #6AA13C",
"<. c #5B8844",
"1. c #5D8858",
"2. c #638C49",
"3. c #699C45",
"4. c #679549",
"5. c #6C9C4C",
"6. c #668957",
"7. c #6B9757",
"8. c #729753",
"9. c #6CA142",
"0. c #6FA249",
"q. c #71A544",
"w. c #74A64A",
"e. c #76A94A",
"r. c #6EA052",
"t. c #77A459",
"y. c #598264",
"u. c #6C8667",
"i. c #748B6A",
"p. c #779967",
"a. c #768B73",
"s. c #7A9579",
"d. c #7BA16F",
"f. c #85B15B",
"g. c #92877B",
"h. c #859C7C",
"j. c #87B361",
"k. c #8AB469",
"l. c #8CAD75",
"z. c #88AA78",
"x. c #F6E47A",
"c. c #676B82",
"v. c #6E7281",
"b. c #747582",
"n. c #7B7A83",
"m. c #777988",
"M. c #827E87",
"N. c #7A838B",
"B. c #7A888A",
"V. c #85838B",
"C. c #8C9B88",
"Z. c #848794",
"A. c #8B8B94",
"S. c #8E8C9A",
"D. c #928E91",
"F. c #93939C",
"G. c #9A989A",
"H. c #A99799",
"J. c #89A58A",
"K. c #98B788",
"L. c #93B295",
"P. c #A9A98C",
"I. c #A6B89B",
"U. c #9A9AA6",
"Y. c #9C9BA4",
"T. c #A29BA5",
"R. c #9BA1A8",
"E. c #A3A3AB",
"W. c #A8A7AB",
"Q. c #B6A9AA",
"!. c #A8B4A7",
"~. c #A7A9B5",
"^. c #ADABB3",
"/. c #B0AAB6",
"(. c #B2AEB4",
"). c #ACB5B6",
"_. c #B4B3BB",
"`. c #B8B6BC",
"'. c #C2BA9E",
"]. c #C5B7B9",
"[. c #AAC29D",
"{. c #A9C2A6",
"}. c #B3C7B1",
"|. c #B9C6BB",
" X c #D4CEAD",
".X c #CEDCA1",
"XX c #CCD9AB",
"oX c #C1C7BC",
"OX c #E7DDB3",
"+X c #B8B8C4",
"@X c #BCBCC4",
"#X c #C5BEC4",
"$X c #BCC4C8",
"%X c #C3C4CB",
"&X c #C9C6CC",
"*X c #CAC9C9",
"=X c #D4C4C9",
"-X c #CAD5C6",
";X c #C6C9D4",
":X c #CCCCD3",
">X c #D3CCD2",
",X c #C9D5D9",
"<X c #D4D5D6",
"1X c #D4D4DC",
"2X c #DAD5DB",
"3X c #DCD9DE",
"4X c #EBCCCD",
"5X c #E5D9DB",
"6X c #DAE2D7",
"7X c #E1E1DC",
"8X c #D9D6E0",
"9X c #DDDBE2",
"0X c #E2DDE4",
"qX c #E9DDE7",
"wX c #F6DEE2",
"eX c #DBE3E5",
"rX c #DAE6F3",
"tX c #E4E2E4",
"yX c #E6E8E7",
"uX c #E5E5EA",
"iX c #EBE5EB",
"pX c #ECEAEE",
"aX c #FAE7E9",
"sX c #E2EBF3",
"dX c #ECECF2",
"fX c #F3EDF3",
"gX c #F5EEF7",
"hX c #EFF1F3",
"jX c #F4F2F5",
"kX c #F5F5F9",
"lX c #F8F6F8",
"zX c #FBF5FB",
"xX c #FEFCFE",
/* pixels */
">.,.e.>.>.>.>.>.>.>.>.>.>.>.>.>.7.2.1.y.y.5.,.,.,.-.,.-.>.>.-.>.-.>.,.z.{.,XrXsXsX8X{.t.,.,.>.>.>.>.>.>.>.>.>.>.>.>.>.>.>.>.>.>.",
",.f..Xf.,.,.>.>.>.>.>.>.>.>.5.` C z 0 < d V <.-.-.,.>.-.>.>.&.-.&.5.).rXkXkXkXxXzXzXkX6X{.9.>.>.>.>.>.>.,.-.>.>.>.>.>.>.>.>.>.>.",
"e..Xx..Xq.>.>.>.>.>.>.>.,.:.y.n g 9 9 2 < 6 0 <.,.-.>.>.>.>.:.=.3.y.v.^.0XgXxXxXzXxXxXlXhX|.e.>.>.>.>.>.,.-.-.-.-.@.-.>.>.>.>.>.",
",.f..Xf.,.>.>.>.>.>.>.>.&.,.` n l N w w q l 6 7 s ,.>.>.>.>.>.:.U b g M  .N.%XjXxXxXxXxXkXkX{.,.>.>.>.>.-.-.,.,.=.p =.,.>.>.>.>.",
">.,.q.,.>.>.>.>.-.,.,.-.&.,.` k 5 : : : 9 l l ; > u 2.3.3.;.%.e 4 4 4 N M T } W.lXxXxXxXxXlX6X,.>.>.,.,.,.,.,.-.@.&.,.,.>.>.>.>.",
">.>.>.>.>.>.>.>.-.-.-.&.,.,.1.Z 4 & $ + + : 6 = o # 5 e e e & # $ $ ; f h M T  .+XlXxXxXxXxXlX-Xt.>.,.,.t.,.,.,.i ,.,.,.>.>.>.>.",
">.>.>.>.>.>.>.>.>.>.-.-.-.,.,.3.V 4 # + + + # % O   . # # $ = = ; < f f f k T /  ._.lXxXxXxXxXlXuX[.,.,.e.j.q.,.,.,.,.f.,.>.>.>.",
">.>.>.>.>.>.>.>.>.>.-.,.,.,.,.,.P 6 $ # + O O O O   o # = , g l k k m f k N / T C ~ `.lXxXxXxXxXxXkX{.q.,.f.,.q.t.,.f.,.,.>.>.>.",
">.>.>.>.>.>.>.>.>.>.>.>.>.>.>.>.<.l & + + X O         # = - 4 7 m N k f T / / T n N c.gXxXxXxXxXxXxXlX$Xe.,.q.k.e.,.,.,.>.>.>.>.",
"-.&.-.>.>.>.>.>.>.>.>.>.>.>.>.>.>.&.s e > O # O 3 3 o o $ $ = = f k < < N G G n k n / #XxXxXxXxXxXxXxXkX}.,.,.t.,.,.>.>.>.>.>.>.",
"$.-.-.#.>.>.,.>.>.>.>.>.>.>.>.>.-.,.-.;.%.s s +.;.*.e # $ $ = ; f k ; $ 6 6 n c g g G /.lXxXxXxXxXxXxXxX$Xt.,.,.,.>.>.>.>.@.>.>.",
"@.-.&.O.-.>.q.,.,.-.>.>.>.>.>.>.,.,.e.,.,.,.,.,.:.,.U b v 4 ; , f m f f 9 6 ~ T M g c S.kXxXxXxXxXxXxXkX$XB.-.,.,.>.>.>.=.p &.>.",
"r &.#.=.,.q.j.j.9.>.>.>.>.>.>.>.,.f.XXK.L.L.J.1.%.s 0 7 S ~ v 7 k N n j ; c c.c.T c h V.lXxXxXxXxXxXxXxX;XN.3.:.>.>.>.>.>.&.@.>.",
"y $.p =.,.j.q.,.>.>.>.>.>.>.,.k.{.eXhXdXdX;X| 4 % * * 0 J b.' 7 j k N d f M T c.M 8 h T.xXxXxXxXxXxXxXxXrXN.7.:.>.>.>.>.>.-.i -.",
"-.-.-.,.,.,.>.>.,.9.9.,.t.d.}.sXxXxXxXxX%XD % o # ; 6 J +XdXU.h f k k k c M n k , 4 l _.xXxXxXxXxXxXxXxXhXR.,.>.>.>.>.>.>.-.=.>.",
"-.,.q.k.K.t.>.e.k.t.d.{.~.$XhXxXxXxXxX5X~ + # # , 7 h } 1XxX$XG j j f ; : ; < < ; , l _.xXxXxXxXxXxXxXxXxX$X0.>.>.>.>.>.>.>.>.>.",
",.,.J.$XsXeX$Xz.q.K.eX@X%XlXxXxXxXxXjXo.1 # * ; 6 7 v b.1XxX^.G h g < # @ * * < , * 7 M.hXxXxXxXxXxXxXxXxX,X9.,.,.:.,.,.-.,.-.,.",
">.0.J.;XdXkXhXeX-XyX3X<XlXxXxXxXxXxX%X9 % % ; , 6 7 ! E.:XkXA.z v h 6 , * o % < 7 * * b ).lXxXxXxXxXxXxXxX{.,.,.-.,.,.q.,.,.>.,.",
">.s.B.Z._.9XkXxXxXiX2XlXxXxXxXlXlXxXA.= # = ; < 6 7 m.&X%XzXM.4 h j 6 6 < * * h k ; % 1 ^ 3XxXxXxXxXxXxXxX6Xz.,.-.,.f..Xf.,.>.>.",
":.V C U.iXuXuXxXxXtXhXxXxXxXjXF.F.%XK % * * , < 7 g U.1X`.kXU.4 ; v h < , < < h c 6 $ % 0 A.kXxXxXxXxXxXhX3X%Xd.-.q..Xx..X,.>.>.",
"<.0 m.fXfXT.=XxXjXpXxXxXxXxX%Xv 0 z = * * - < < 7 7 R.tX^.iX2X( > , B g < 7 7 j k d * + > K <XxXxXxXkX<XF.A.U.d.,.,.f..Xf.,.>.>.",
"I x @XfXF.D.fXxXlXxXxXxXxXjXm.f - % % , ; ; < < 7 4 A.pX^.3XxX^.4 O 6 B 7 7 h h c d = % + 5 E.xXxXdX+XN.F.;XeXl.,.,.,.,.,.,.>.>.",
"i.G.dXY.F &XxXxXxXxXxXxXxX:XH g < , * , < < f 6 7 ; X.pX(.*XxX0XL O o h v 6 d < d d , % % B ;XkX<XU.A.+XdXxXxX6X,.,.>.>.>.>.>.>.",
"}.sX@XD ~ 9XxXxXxXxXxXxXlXU.k g f < - < 6 6 < f 6 = L iX#X`.xXzXo.& o O l g h 7 7 7 6 * % E 1X+XA.R.3XxXxXxXxXkX[.,.>.>.>.>.>.>.",
"%X1XX.8 X.yXxXxXxXxXxXxX1X~ j f f < - , < f g f 6 * F uX2X(.gXxX).5 .   & b h c h d 6 = = J S.Z.@XjXxXxXxXxXxXxX6Xe.,.>.>.>.>.>.",
"|.%XS 5 Z.kXxXxXxXxXxXkXA.j f f f f < < < <  . .6 * F yXdX(.iXxXiX_ + . + 8 M g k 7 ; * 8 R v.$XlXxXxXxXxXxXxXxXjX[.>.,.>.>.>.>.",
"$X^.2 x %XxXpXlXxXxXxX<XE g d f f f < 6 , B $X+X0 % F uXlX(.=XxXxX`.q + O + l b 8 6 6 8 H R Y.xXxXxXxXxXxXxXxXxXlX6X9.&.-.>.>.>.",
"|.{ & X.jXlX$XhXxXxXxX_.C j d f f f 7 , , c.sX$Xv * A 0XxX:XY.iXxXlXU.1 O O = L M * 4 C C ' 1XxXxXxXxXxXxXxXxXxXlXlXK.,.&.-.>.>.",
").F 1 ^.xXhX`.jXxXxXxXU.v g g d < f 6 ; ; m.kX@Xv = z :XxXiXD.(.kXxXtXX.[ L N U.m.M M M W ).lXxXxXxXxXxXxXxXxXxXxXlX-X,.-.>.>.>.",
"V.9 9 *XxXjX2XlXxXxXlXN.j d f < ; - ; * ; ] dX^.l 4 8 &XxXxX@XV.&XxXlX9XeX9X%XdXT.J N T +XhXxXxXxXxXxXxXxXxXxXxXxXxXlXl.>.>.>.>.",
"` 1 2 %XxXxXxXxXxXxX,X! h > * * - $ $ # 4 ~ rX%XB 1 5 D.jXxXpXG.V.#XkXxXxXxXxXxX>X} J m.eXxXxXxXxXxXxXxXxXxXxXxXxXxXxX-X,.-.>.>.",
"u.2 + E.xXxXxXxXxXlXW.h 7 % o o # . @ @ S /.pXdXF.b = x %XxXxX5XD.o.G.3XxXxXxXxXlX^...@XuXxXxXxXxXxXxXxXxXxXxXxXxXlXxXxX|.f.>.>.",
"i.0 > W.xXxXjXzXxXlXn., * o o o X X     F uXxXxXjXV.2 l _.xXxXxX0XM.A ) (.lXxXxXxXtXV.tXxXxXxXxXxXxXxXxXxXxXzXxXlXzXzXxXlXtXl.>.",
"5.L 5 `.xXxX0X>XxXlXX.& % # * O o   X   l :XxXxXxX#XA l A.gXxXzX0XD.L w ) T.*XjXxXlXW.>XxXxXxXxXxXxXxXxXxXzXxXzXgXgXzXzXzXlX*X5.",
">.2.L E.kXxXgX2XjXjXU.= $ ; 4 ; o X   % 0 F.zXxXxXkXW.L o.iXzXzX#XM.[ t A { { D.>XlX>X(.xXxXxXxXxXxXxXxXlXxXzXwXQ.`.iXzXxXlXtXh.",
",.,.3.p.<XxXzXkX#XG.D.: $ 4 , % o o & 7 z Y.xXxXzXxXzX9X0XkXzXzX>XM.[ ) t A K w L G.*XH.:XxXxXxXxXxXxXxXxXxXgX].D.H./.#XiXjX>XH.",
":.&.&.:.-XkXxXxX(.q 2 # + % % o X O 4 l ..uXxXzXxXxXxXxXxXzXzXzX Xg.*.Y P w A P a a 6.i.C.jXxXxXxXxXxXxXxXlX4X=XwXqX2XW.=X=Xo.[ ",
",.&.@.$.{.tX@X3XE.: O O X o O & O > l A.qXxXxXxXzXxXzXxXxXxXzXiXC.>.>.=.P.g.[ f.>.>.>.&.4.7XxXxXxXxXxXxXxXlX=XM.qXgXzX5X_.[ t s ",
",.-.r @.t.$Xo.n.E.x # O $ D S.T.} ^ _.dXxXzXzXxXxXxXxXxXxXzXzX*X6.>.=.g.OXOX'.8.-.-.>.=.s <XxXxXxXxXxXxXxXxX5XH.4XwXwXqXo.w a &.",
"@.&.r +.0.`.m.^ S.A.5 1 5 A.kXxX0X9XxXzXxXzXxXxXzXzXzXxXxXxXaXG.>.>.=.f.'.OXP.*.&.+.$.>.=.|.lXxXxXxXxXxXxXlXaX4X4XwX4XM.N w *.-.",
"r @.<.U p.$XU.~  .~.N.z } 1XxXzXxXzXzXzXzXzXxXzXzXgXzXxXxXzX>Xp.>.>.>.:.f.g.,.>.=.u p $.=.K.jXlXxXxXxXxXxXlXlXaXaXgX'.F N I ,.>.",
"r I K Q N.$X;X .^ v.U.D Y.sXzXxXxXzXzXzXxXzXzXzXgXzXxXxXxXgXoX0.>.>.>.>.>.>.>.>.>.&.y y $.>.}.lXlXxXxXxXxXxXzXlX5XH.o.P Y ,.>.>.",
"2.` v h R U.8XS.' _ v.v.9X^.*XlXzXxXzXxXxXxXzXzXzXxXxXxXxXpX!.>.>.>.>.>.>.>.>.>.>.>.-.=.>.>.,.[.uXjXlXxXzXlXzXaX=Xi.;.>.=.>.>.>.",
"4._ v 7 g | E.U.X.'  .U.jX3XiXpXzXzXxXxXxXzXxXxXxXxXlXxXzXqXl.:.>.>.>.>.>.>.>.>.>.>.,.,.,.,.,.>.e.k.K.oX6X<X=XP.z.,.>.>.-.>.>.>.",
"4._ C 6 5 A [ ..] ..v.+XzXxXgX&XY.^.`.&XgXlXxXzXxXxXzXgXaX-X9.$.@.:.>.>.>.>.>.>.>.>.>.>.>.>.>.>.,.>.>.>.>.=.=.=.-.>.>.>.>.>.>.>.",
"-.u._ B h v G ~ ' ' ' Z.iXzXzXT.~ ^ | b.E.pXxXzXzXxXzXgX5X!.$.+.u =.>.>.>.>.>.>.>.>.>.>.>.>.>.>.-.,.>.>.>.-.=.=.>.>.>.>.>.>.>.>.",
">.,.p.' J C R W ] ] ( Q U.dXzX_.~ ! ! ^  .U.0XzXlXlXgXqX2Xl.@.u *.>.>.>.>.>.>.>.>.>.>.>.>.>.>.>.>.>.>.>.>.>.-.>.>.>.>.>.>.>.>.>.",
",.-.3.i.a.~ E Q / ( ( E ! :XzX0XS.J R Q ! ( b.Y.(.%XfXgXqXt.&.=.:.>.>.>.>.-.>.>.>.>.>.>.>.>.=.&.>.>.>.>.>.>.>.>.>.>.>.>.>.>.>.>.",
"-.r.!.R.s.F.v.Q W W Q C H @XxXjX+X! T T E R E ~ ~ S.zXzX6Xt.,.-.@.-.>.-.&.@.-.>.>.>.>.>.>.-.&.-.>.>.>.>.>.>.>.>.>.>.>.>.>.>.>.>.",
",.t.;X,XF.z.B. .Q E C B l m.9XtXF.S J J J R R H R m.gXxX2Xh.,.=.i @.-.@.+.&.-.>.>.>.>.>.>.&.-.>.>.>.>.>.-.-.>.>.>.-.>.>.>.>.>.>.",
",.3.!.+Xu.&.,.u.X.Q R B g x _.(.b , h H R J E R H } 8XfX%X8.,.-.&.@.=.+.u =.>.>.>.>.>.>.>.-.>.>.-.,.>.-.&.-.-.-.&.$.-.>.>.>.>.>.",
"&.,.3.5.&.-.,.,.p.B.' H l B :X(.0 * > 7 G R H E R J T.iXI.,.-.,.=.p &.i &.,.>.>.>.>.>.>.>.>.>.>.,.q.,.-.$.$.-.$.@.$.>.>.>.>.>.>.",
",.,.,.-.,.,.,.,.,.p.F.v.S } tX8X^ * * * < v E R J J S.gX!.,.&.$.-.-.-.-.>.>.>.>.>.>.>.>.>.-.&.>.f..Xf.,.>.$.-.@.$.-.>.>.>.>.>.>.",
",.,.-.,.,.e.q.,.9.j.k.C.b.} *X0XV.> - * - > h H J J S.kX-X&.p i =.>.>.>.>.>.>.>.>.>.>.>.-.&.-.,..Xx..Xe.-.&.-.$.=.>.>.>.>.>.>.>.",
",.-.,.-.,.q.f.e.j.w.q.w.C.G.>XqXW.q - - - , - d C J F.jX1X7.u $.>.>.-.>.>.>.>.>.>.>.>.>.&.-.>.>.f..Xf.,.-.-.-.-.>.>.>.>.>.>.>.>.",
"-.,.-.,.,.,.q.f.k.w.j.f.3.h.].].D.H < < , , - , 6 C F.dX9XI.=.;.-.>.>.>.>.>.>.>.>.>.>.>.>.>.>.>.,.,.,.,.,.,.,.,.>.>.>.>.>.>.>.>.",
",.-.-.>.>.>.>.,.q.t.,.,.,.-.p.G.V.D g d 7 6 4 < 6 6 ! :XwX>Xl.&.&.-.,.-.,.-.,.-.>.>.>.>.>.>.>.>.>.>.>.>.>.>.>.>.>.-.-.,.-.>.>.>.",
"-.$.&.-.>.>.>.>.,.,.,.,.,.,.,.0.h...M c j j j d d 6 l T.wX].C.4.@.-.,.,.-.-.-.,.>.-.>.>.>.>.>.>.>.>.>.>.>.>.>.>.-.&.$.-.,.,.>.-.",
"@.@.-.>.>.>.>.>.,.,.,.-.>.>.,.>.,.s.b.G m m m m k k v ! Q.Q.o.B.s $.,.-.&.-.>.>.>.>.>.>.>.>.>.>.>.>.>.>.>.>.>.>.-.-.$.@.&.>.>.@.",
"+.&.>.>.>.>.>.>.,.,.-.,.>.>.>.-.&.7.s.m.W m C C C C G G ~ b. .( { s &.@.&.-.>.>.>.>.>.>.>.>.>.-.>.>.>.>.>.>.>.-.&.=.-.+.i >.&.@.",
"u =.-.-.>.>.>.>.>.-.&.-.>.>.>.&.{ $X_.Y.U.c.Q T Z C Z Z S H T ] B.;.+.u &.>.>.>.>.>.>.>.>.>.-.&.-.>.>.>.>.>.-.&.&.p @.u &.&.u r ",
"$.=.&.&.-.>.>.>.>.>.-.&.>.>.>.>.U.uXuXT.C.s.N.X. . .] ]  ...m.Z.s.$.u &.>.>.>.>.>.>.>.>.>.-.&.-.>.>.>.>.>.>.>.>.,.&.p $.=.i $.$.",
"u @.-.-.>.>.>.>.>.>.>.-.>.>.>.>.C.:XqXF.:.:.3.2.I u.a.s.s.i.7.>.,.-.-.-.>.>.>.>.>.>.>.>.-.&.-.>.>.>.>.>.>.>.>.>.,.-.=.>.&.=.=.i ",
"&.-.,.,.>.>.>.>.>.>.>.>.>.>.>.>.5.R.W.i.,.-.-.,.:.,.,.,.>.>.,.,.-.,.>.>.>.>.>.>.>.>.>.>.>.-.>.>.>.>.>.>.>.>.>.>.>.-.>.>.>.>.>.=."
};
