/* XPM */
static char *st21705582595[] = {
/* columns rows colors chars-per-pixel */
"64 64 118 2 ",
"   c #141710",
".  c #161911",
"X  c #191B13",
"o  c #1F2217",
"O  c #202217",
"+  c #23261A",
"@  c #2A2B1E",
"#  c #332E1F",
"$  c #37301F",
"%  c #2D2E21",
"&  c #333224",
"*  c #3B3624",
"=  c #3B3927",
"-  c #3E3C2C",
";  c #3F3F35",
":  c #403D2D",
">  c #423F31",
",  c #44402F",
"<  c #4D442E",
"1  c #55472D",
"2  c #56482E",
"3  c #454232",
"4  c #4A4534",
"5  c #4D4936",
"6  c #4F4A39",
"7  c #514731",
"8  c #554C36",
"9  c #5B4F36",
"0  c #53473D",
"q  c #534B3D",
"w  c #575037",
"e  c #55513D",
"r  c #5A543A",
"t  c #5E5A3E",
"y  c #604F35",
"u  c #6A5536",
"i  c #665338",
"p  c #6B5638",
"a  c #6F5838",
"s  c #705938",
"d  c #4C4D44",
"f  c #574740",
"g  c #574841",
"h  c #5C4C45",
"j  c #5C4F48",
"k  c #4E5048",
"l  c #5F5A40",
"z  c #55534B",
"x  c #5E514B",
"c  c #5F5C4C",
"v  c #5E5652",
"b  c #565B57",
"n  c #5E5854",
"m  c #5B5E5B",
"M  c #625C40",
"N  c #64564D",
"B  c #615A56",
"V  c #615D5A",
"C  c #5D625D",
"Z  c #6B6446",
"A  c #67624A",
"S  c #6F6849",
"D  c #726646",
"F  c #726946",
"G  c #766B4A",
"H  c #7A6D4A",
"J  c #77704D",
"K  c #7E704A",
"L  c #6D6855",
"P  c #61625F",
"I  c #6F6459",
"U  c #67685F",
"Y  c #72665B",
"T  c #74685D",
"R  c #5E6565",
"E  c #5F6768",
"W  c #5F696C",
"Q  c #626362",
"!  c #686561",
"~  c #696B61",
"^  c #636B6D",
"/  c #686F6F",
"(  c #746E64",
")  c #69716F",
"_  c #777464",
"`  c #7A7664",
"'  c #7D7967",
"]  c #72746D",
"[  c #7F7B68",
"{  c #656F71",
"}  c #677173",
"|  c #6B7374",
" . c #717774",
".. c #757A75",
"X. c #797C75",
"o. c #777C78",
"O. c #797E79",
"+. c #81734A",
"@. c #81794E",
"#. c #827A54",
"$. c #897F53",
"%. c #827D6B",
"&. c #7C807A",
"*. c #8B8154",
"=. c #838376",
"-. c #8D8676",
";. c #85867B",
":. c #87887D",
">. c #8A8A7E",
",. c #918E7C",
"<. c #96927E",
"1. c #98937F",
"2. c #8B8C80",
"3. c #959281",
"4. c #9A9683",
"5. c #9E9A86",
"6. c #A09B87",
"7. c #A19D88",
/* pixels */
"} } Q h h Q { { h g v ^ ^ v h j x h B ^ ^ { } / x h x h h h h j { / / ^ ^ { { { N j h g g h h h h j h g f h x x f h h h h x x h ",
"} | Q g f P { { h f v ^ W v h h h h N ^ ^ { } / j h h h h f f h { { { ^ ^ { { { j j h f f f f g h j h g f h h h f f f h h h h x ",
"Q Q ! I Y ] O...( Y (  . .( T T B B ! .. ...O...( T T T ( I I ( o.o.o.....o.o...Y Y Y Y Y Y Y Y Y Y Y Y Y B B B Y Y Y Y Y N h h ",
"x h Y 4.4.4.4.4.5.5.4.4.4.5.6.4.| | O.4.4.4.4.4.6.6.6.6.5.5.6.5.6.6.6.3.4.4.4.4.4.4.5.5.6.5.5.5.4.4.4.4.5.O.} | 5.6.5.4.6.Y f h ",
"h h Y 4.4.4.4.4.6.6.5.4.4.6.6.4.| } X.4.4.4.1.4.6.6.5.5.5.5.5.5.6.6.4.3.4.4.4.4.4.4.4.5.6.6.5.5.4.4.4.4.4.O.} | 4.6.6.3.4.I f f ",
"%.%.-.4.5.=... ..... . ....... .^ ^ | X.X..... .X.X.2.4.4.5.5.4.%.o.O... .X.X.............>.4.4.X. . .O.X.| ^ { o.o.%.6.6.I h h ",
"5.4.5.5.5...W W ^ ^ W ^ ^ ^ ^ ^ ^ ^ ^ } } ^ ^ ^ / { o.4.3.5.6.4.| } { ^ ^ { } / W ^ W ^ ^ ;.4.<./ ^ ^ } } { ^ ^ ^ W ..6.6.Y h h ",
"4.4.4.4.4...{ ^ ^ ^ ^ ^ ^ ^ Q ^ ^ ^ ^ } } ^ ^ ^ } / o.3.3.3.4.3.| } { ^ Q ^ { / ^ ^ ^ Q ^ =.4.>.} ^ ^ } } ^ ^ ^ ^ ^ ..4.6.Y h x ",
"4.4.:.| | | } { { } { } | n h j N h V { } n h z / } } } / } / } { W R x N x x x ^ ^ P j x ! { } } { } } { { ^ ^ { } / / / B h j ",
"4.4.:.} } } } } } } } | | v g g x h B | | n g h ^ } } ^ ^ ^ ^ ^ { { Q j j h h N ^ ^ Q h x Q ^ ^ } | } { } ^ ^ ^ { } { { ^ n h h ",
"4.4.:.} { { { { { { ^ b b z g g 0 0 z C R z 0 h P C C b m b b b m m v g h 0 0 g b b z f 0 z b b R C Q { { { { { } } { Q Q x h h ",
"7.7.:.^ ^ ^ ^ ^ ^ ^ b : : 3 5 5 : - 3 5 4 5 5 5 6 5 5 5 8 , : : 4 5 5 5 5 3 : : - : : : : : - : 5 4 z ^ ^ { } } } } Q h j h h h ",
"5.5.:.^ ^ ^ ^ ^ { { b : : 4 5 5 : : 3 8 5 5 5 5 5 5 5 5 5 3 - : 5 5 0 5 5 3 : : : : - - - : ; : 5 4 z ^ ^ { { } / / Q x h h h h ",
"5.5.>.} { { { ^ k d > + @ % & & % % @ @ @ @ @ @ @ @ @ & & @ + + % % % & & @ + + % % % % % % % % & & - d d R { } ^ { { Q Q x f g ",
"5.5.>.} } } } ^ > - & . . o + o + + o   X . . . . . o O + X . .   . X + + X X X + + + + + + + + + + % - - m } / ^ { ^ } } n h h ",
"5.5.,.| | | } ^ 3 - & . . o + + + O o X X X . . X X o + @ X X X . . X + + X X X + + + + + + + + + o % - > Q | } ^ ^ { } } B f f ",
"4.4.4.3.3.o.} W 3 3 & X . X X X X X X . X . X X + + + + + + + + + + O X X . . X + + + + o o X o X X @ - - _ 4.3.} } } } } n g h ",
"4.4.4.4.4.o.} ^ 3 - % . . X X X . . X X . X . X + + + + + + + + + + O . X X X X + + + + + X   X     + - - ` 4.3.| } } | } n f h ",
"4.4.<.;.>. .} W 4 3 & o o X o X X X o X o X X o o o o o o o o o O O O . . X X X o o + = * = = = = : - 3 3 ` 4.<.| } ^ Q Q v h h ",
"4.4.;.} } { ^ E 6 6 - + + + + + @ + + + + + + + X . X . . X X . . . X . X . . X X X $ i i G #.#.*.*.J 5 5 [ 4.3.{ ^ m g g h h h ",
"4.4.:.} } ^ ^ ^ q 5 - + + + + + + + + + + @ + o X . X X . . . . . . X . . . X . . . $ i i G K ` *.*.F 6 5 [ 4.3.{ ^ V h h h j j ",
"4.1.:.^ { C n x 3 3 & o o o + + o o o + + + + + X X . X X o o o X X o O O . . X X   $ u a K *.*.$.$.S 3 , ` 4.3./ ^ Q h h h h h ",
"1.4.;.^ ^ n h h > - & . X o + + . . X + + + + + X . X . X o + + X . X + + o . . . . $ s a K *.*.K #.A - - ` 4.3./ ^ P h h h g h ",
"4.4.;.^ ^ B x j 3 - & X X o + o X X o + + + + o X X . X X o + + X . O @ @ + + O O o = s a K *.*.#.#.Z , , _ 1.,.{ ^ Q h h h h g ",
"4.4.:.^ ^ ^ ^ R > : & + + o X X o + o X X X X X . X X + + o X X . . $ u u D J J J #.G i i K #.#.*.*.G 4 5 P { { } } Q x h h h h ",
"1.4.:.W ^ { ^ R 3 - & + + X . X + + o X . X X X X . X + + X . . . . $ s a H #.@.*.*.K i i G #.#.*.*.G 5 5 b ^ ^ } } Q h h h g f ",
"4.4.:.^ ^ Q P C 4 3 = + + o o X + + o o X X X . X o o + + o o X X . $ a a J K #.*.*.K i i G #.#.*.*.F 4 4 U O...} { Q B B x h h ",
"5.7.>.} } B h h 6 6 - + + + + + + + + + @ X . X + + + + + + + + X . $ i i G #.#.K #.G i i K *.*.*.*.F - - ' 7.4./ ^ ^ ^ ^ B h h ",
"6.7.>.} } B h h 6 6 - + + + + @ + + + + + o . X + + + + + + + + . . $ i i G #.K K #.J i u +.*.*.*.*.S > - ' 6.4.{ ^ ^ ^ ^ B h h ",
"&.&...^ ^ n h g 3 3 * X X + + + + + o o X o o o o X # 2 1 r M l t r t u p H #.` #.#.G i u F &.*.K *.Z - : ` 5.3.} { { { { v h h ",
"{ } { ^ ^ n g g : : & X X o + + + + o X X o + + X . & s s K #.#.#.#.K a a H #.#.@.#.F u u F &.K ` *.A : - ` 4.3.| } } } | v f g ",
"| | } ^ ^ n h j 3 : & X X O + + + + o X . o + + X . # s s H #.#.#.#.K a a K #.#.@.@.F u u F K *.K K Z - - ` 5.3. .} } } } B f h ",
"3.3.;.{ } ^ / ^ 6 5 - + + + + + + + o X   o . o X . $ s s K *.*.*.*.K i i K *.*.#.J H s s +.$.$.#.#.A > - ` 4.3.| } } } } n h g ",
"4.5.:.} } } } ^ 6 6 - + + + + + + + o .       . .   $ s s K *.*.*.*.K i i K *.*.#.#.H s s +.$.$.#.#.N : - ` 4.3.| } } } } n 0 h ",
";.;.O.| } ~ Q P 6 6 = o o + + + o o + $ $ * = = = = < a a K *.*.$.*.K i p J @.*.#.#.H s s +.$.#.$.$.F , 3 ` 3.3.| } } } } n g h ",
"^ ^ ^ } } V N h 6 6 = X X o + + X X % i i J *.` K #.G i i K *.*.K ` G i p J K K #.@.H s s G #.#.$.*.G 5 5 [ 4.3.} ^ ^ } } n g h ",
"^ ^ ^ | | B h j 6 5 = X X o + + X   $ i i G K K #.K J p i K *.*.@.` G i i G ` @.#.` H s s H #.#.$.*.G 4 5 ' 4.3./ ^ ^ } } n g g ",
":.:.O.^ ^ n h h 6 5 - o + + + + X . $ u a K *.*.#.#.J i i J #.@.#.#.G i i G #.#.$.$.H u i H $.$.*.*.G 5 5 ~ &.&.} { { ^ ^ B h h ",
"6.6.>.^ ^ n h h 6 6 - + + + + + . . $ s a +.*.*.#.#.G i i G #.` #.#.G i i G #.K $.$.H i i +.*.*.$.*.G 5 5 C } } } } { ^ ^ B h N ",
"5.6.:.^ { n x l 6 5 , + + % % % O o = s a K *.*.#.` G i i K #.K K #.G i i G *.#.$.$.+.i i +.*.*.*.*.G 5 5 C } } } } ^ ^ ^ B h h ",
"5.6.2.} } } ^ ^ 3 : 4 y y F @.K K J S i i G #.#.*.J J i i K *.*.#.K J s s +.*.$.#.#.H s s +.$.$.*.*.F : ; m | } ^ ^ ^ ^ ^ v h j ",
"5.5.2.} } } } ^ 3 - 4 i i +.*.*.*.K G i i G K #.K #.J i i K *.*.#.#.J s s +.*.$.#.` H s s +.*.$.$.*.F - - m } { ^ ^ ^ ^ ^ v h x ",
"5.5.2.} } ^ ! P 3 3 5 i i K *.*.K *.J i i K *.` #.#.G i i K *.*.#.#.K a p +.*.$.@.@.H s s +.*.*.$.$.S - - U &.O.^ ^ ^ { / B h h ",
"5.6.>.} } B h h 8 5 8 i i K *.*.*.*.J p i K *.*.*.*.K i i K *.*.*.*.K i i K *.$.#.#.H s s +.*.$.#.#.Z - - ' 7.4.) ^ ^ | } B h x ",
"5.5.2.| } B h h 0 5 8 i i K *.*.*.*.K i i K *.*.*.*.K i i K *.*.*.*.K i i K *.$.#.K J s s +.*.$.#.#.Z - : ' 6.4./ ^ ^ / } B h h ",
"5.5.4.:.>.] Q U 3 > 7 a a K #.#.*.*.K i i J $.#.*.*.K i i K *.*.#.#.H p p +.*.$.#.*.K i p H #.#.#.$.F 3 3 ~ &.O./ ^ ^ / / B h h ",
"5.5.5.6.6.&.| ^ 3 - 8 s a J K #.*.*.K i i G K #.#.*.K i i K *.*.#.#.H s s +.*.*.*.*.K i i G #.#.*.*.G 6 5 P } { ^ ^ ^ ^ ^ B h x ",
"5.5.5.5.5.O.} ^ 3 : 4 s a K #.#.$.*.K i i J #.#.*.*.K i i K *.*.#.#.K s s +.*.$.*.*.K i i G #.#.#.*.G 5 5 Q | | ^ ^ ^ ^ ^ B h h ",
"5.5.5.5.5.&.} ^ 3 - 7 s s +.$.$.*.*.H i i K $.$.*.*.K i i K *.*.*.*.K i u H @.@.*.*.+.a a H #.@.#.#.S 6 5 ` 1.,.| } { ^ ^ n h N ",
"5.5.5.5.5.&.{ ^ 3 - 7 s s +.*.*.*.*.K i i K *.*.*.*.H i i K *.*.*.*.K i i H K &.$.*.+.a s H #.` #.#.S 5 5 ' 4.3.| } { ^ ^ n h h ",
"5.4.4.2.2...{ ^ 3 - 4 a a +.*.*.*.*.K p p K *.*.*.*.+.p i K *.*.*.*.K i i J *.K $.$.K p a H K #.#.#.S 5 5 ' 4.4.| } ^ P Q N h h ",
"4.3.2.{ } ^ ^ R 3 ; < i i K *.$.$.*.+.s a +.*.$.$.$.+.s s K J ` *.*.K i u K *.*.` K G i i G #.#.*.*.G 5 5 =.7.4. .} ^ h h h g g ",
"4.4.:.| } ^ ^ R 3 - 4 i i H *.*.*.*.+.s s +.*.*.*.*.+.s s H K *.*.*.K i i K *.*.@.&.F u i G #.#.*.*.G 5 5 [ 7.4.| } Q h h h g h ",
"4.4.;.^ { { } } _ ` L 8 8 t A i t r r w 9 r r r r r 8 7 7 r l t w r w < < t M M i M w < 4 r l l r r A [ [ X.....} { Q h h h h h ",
"4.4.;.^ ^ { } | 4.4.[ 5 5 5 5 3 - - , 5 5 , = - - - - ; - 3 5 5 - - = - - 3 4 5 4 5 < = - 3 5 5 - = c 4.4. .W ^ ^ ^ m h h h j h ",
"3.4.;.^ ^ { { | ,.4.' e e e e e 3 3 3 e e 5 3 5 4 4 3 4 4 6 q 6 4 5 3 3 3 6 e e e r 6 5 5 8 q q 3 3 c 4.4. .^ ^ ^ ^ Q h j h h x ",
"5.5.:.^ ^ ^ ^ ^ } | &.3.<.4.<.,.^ R ] ,.,.<.<.<.,.,.,.<.,. .^ ) ,.3.&.E E =.1.1.3.3.,.3.<.,.,.-.Q R ^ { { / } { ^ ^ ^ ^ Q v j j ",
"5.5.>.^ ^ ^ ^ ^ } } &.5.5.5.5.4.) ^ ..4.4.4.6.6.1.4.1.1.1.&.} | 4.7.>.{ ^ >.7.5.6.5.6.6.6.6.4.3.{ ^ ^ ^ { { } { ^ ^ ^ ^ { v h h ",
"5.5.:.^ ^ { ^ { } } o.2.>.>.>.;.^ ^ | :.:.:.>.:.>.>.:.;.:. .{ } 2.2.&.W ^ &.>.>.2.;.2.2.>.>.:.;.{ { ^ ^ ^ { ^ { ^ { ^ P Q N h x ",
"4.4.:.} } } } } } } } } } } ^ W ^ ^ ^ W ^ ^ ^ ^ { { { ^ ^ ^ ^ ^ } } { W ^ ^ ^ W ^ ^ ^ } } } } } } } { ^ ^ ^ ^ ^ { | Q h h h x h ",
"4.4.:.} } } } } } } } } } { W ^ ^ ^ ^ ^ ^ ^ W { | | { ^ ^ ^ ^ ^ { } { W ^ W ^ ^ { ^ { { { { } { } } { { ^ ^ ^ ^ } } ! h x h h x ",
"4.5.>.^ ^ } } } } } } ^ } W ^ ^ ^ ^ W ^ ^ W ^ ^ { } ^ n B Q ^ ^ } } { ^ ^ { { { { { { ^ { { { ^ n v P { { { ^ ^ V B N h h h h h ",
"5.7.>.^ ^ { | } } } } W ^ ^ ^ W W ^ ^ ^ ^ ^ ^ ^ } } U h j P ^ ^ { | { ^ ^ { } } } } { ^ ^ ^ ^ Q j g v { { { { Q j h h h f h f h ",
"5.5.:.^ ^ } } } } } } W ^ ^ ^ ^ ^ ^ ^ ^ W ^ ^ ^ } } ! h j P ^ { { } { ^ ^ { } } } { { ^ ^ ^ ^ ^ j g n } / { ^ ^ x x h h f f h f "
};
