/* XPM */
static char *str1705317565[] = {
/* columns rows colors chars-per-pixel */
"64 64 127 2 ",
"   c None",
".  c #000000",
"X  c #170209",
"o  c #1A0409",
"O  c #0F1B07",
"+  c #09170F",
"@  c #0E1B08",
"#  c #111E07",
"$  c #111F08",
"%  c #0B0312",
"&  c #071410",
"*  c #081712",
"=  c #091812",
"-  c #11161E",
";  c #240707",
":  c #270E0B",
">  c #280E0B",
",  c #2B100B",
"<  c #230718",
"1  c #112007",
"2  c #122008",
"3  c #162E16",
"4  c #1B2219",
"5  c #1C3313",
"6  c #1E3810",
"7  c #170621",
"8  c #400C0D",
"9  c #650B27",
"0  c #740C2E",
"q  c #7E0F3F",
"w  c #351356",
"e  c #3D1263",
"r  c #3E2763",
"t  c #47125D",
"y  c #48125D",
"u  c #55155A",
"i  c #591C5D",
"p  c #7E0F40",
"a  c #751045",
"s  c #781446",
"d  c #442D5B",
"f  c #53146B",
"g  c #471676",
"h  c #491576",
"j  c #691860",
"k  c #601969",
"l  c #4D2E6B",
"z  c #552B63",
"x  c #4E306A",
"c  c #4A3E6B",
"v  c #462975",
"b  c #6E2064",
"n  c #66216D",
"m  c #296C51",
"M  c #2F7E5E",
"N  c #4F4060",
"B  c #A31F1F",
"V  c #82142E",
"C  c #890F36",
"Z  c #800F3F",
"A  c #851732",
"S  c #8C1036",
"D  c #81103F",
"F  c #8F143C",
"G  c #961334",
"H  c #9B1432",
"J  c #9B1A37",
"K  c #931B3F",
"L  c #9B1B38",
"P  c #A01632",
"I  c #A51D35",
"U  c #B52126",
"Y  c #BC2323",
"T  c #A92438",
"R  c #BA2234",
"E  c #C5222D",
"W  c #CA242D",
"Q  c #D2262C",
"!  c #D52C2F",
"~  c #DE2A2A",
"^  c #DF302D",
"/  c #C62735",
"(  c #C82734",
")  c #CC2D37",
"_  c #E12B2A",
"`  c #E2312D",
"'  c #E43730",
"]  c #C64636",
"[  c #D55138",
"{  c #E74B3E",
"}  c #EA4C3C",
"|  c #F54F3B",
" . c #EE533F",
".. c #F5503B",
"X. c #FA573E",
"o. c #FA583E",
"O. c #931C40",
"+. c #CF4846",
"@. c #ED5340",
"#. c #E25349",
"$. c #FF6042",
"%. c #4D8B23",
"&. c #588F33",
"*. c #589033",
"=. c #559E32",
"-. c #5AA127",
";. c #5AA129",
":. c #6BBE2F",
">. c #63A437",
",. c #65A53A",
"<. c #61B437",
"1. c #62B839",
"2. c #6AC12F",
"3. c #6BC131",
"4. c #368455",
"5. c #388857",
"6. c #3E8664",
"7. c #3A826E",
"8. c #3E9666",
"9. c #3E9A64",
"0. c #37946F",
"q. c #398070",
"w. c #379570",
"e. c #389770",
"r. c #429B5B",
"t. c #628D42",
"y. c #5EA142",
/* pixels */
"                                                                                                                                ",
"                                                                                                                                ",
"                                                                                                                                ",
"                                                                                                                                ",
"                                                                . . . . . . . .                                                 ",
"                                                                . . . . . . . .                                                 ",
"                                                                . . . . . . . .                                                 ",
"                                                                $ $ $ $ $ $ $ $                                                 ",
"                                        . . . . . . . . . . . # %.;.;.;.;.;.;.%.$ . . .                                         ",
"                                        . . . . . . . . . . . O ;.3.3.3.3.:.3.;.$ . . .                                         ",
"                                        . . . . . . . . . . . # ;.3.:.:.:.:.3.;.$ . . .                                         ",
"                                        $ $ $ $ $ $ 2 # . . . @ =.1.1.1.1.1.1.>.6 $ $ $                                         ",
"                                . . . $ %.;.-.;.-.-.-.%.# . . + 4.9.9.9.9.9.8.9.=.;.;.%.$ . . .                                 ",
"                                . . . $ ;.3.:.3.:.3.3.-.2 . . & M e.w.w.w.w.e.9.1.3.3.;.$ . . .                                 ",
"                                . . . $ ;.3.3.3.3.3.3.-.# . . & M e.e.w.0.e.e.9.1.:.3.;.$ . . .                                 ",
"                                = = = 3 %.;.;.;.>.,.,.*.6 2 $ 5 4.9.8.8.7.M M 7.=.;.;.%.3 = = =                                 ",
"                        . . . = m M M m 3 $ 2 4 l l l c &.-.;.;.<.1.1.y.c v v l 4 2 2 3 m M M m = . . .                         ",
"                        . . . = M e.e.M = . . % t h g l >.2.3.2.:.:.3.,.l h g e % . . & M e.e.M = . . .                         ",
"                        . . . = M e.e.M = . . % w h h x >.2.2.2.3.:.3.,.l g h e % . . = M e.e.M = . . .                         ",
"                        . . . = m M M m - % % 7 t f f z t.>.,.,.,.>.,.&.i f f y 7 % % - m M M m = . . .                         ",
"                                = = = - w t e t a D D s z x x x x l x z s Z Z s y e e w - = = =                                 ",
"                                . . . % e h g f q S S q f h h h h h g f Z C C Z f h h e % . . .                                 ",
"                                . . . % e g g f D S S D f g h h h h g f q C C s f g h e % . . .                                 ",
"                                o o o < f n n b O.J J O.j k k f k k f j F H H F j k k u < X o o                                 ",
"                        . . . X 9 0 0 A +.#.#.#.@. .@.{ ) / / / ( ( / / W Q Q W / / / R V 0 0 9 o . . .                         ",
"                        . . . X 0 S S L  .$.$.$.$.$.$.X.` ~ ~ _ _ _ _ _ _ _ _ _ _ _ _ Q G C C 0 o . . .                         ",
"                        . . . X 0 S C J @.$.$.$.$.$.$.X.` ~ ~ ~ ~ ~ ~ ~ ~ ~ ~ ~ ~ ~ _ Q G C C 0 X . . .                         ",
"                        . . . o A J J T { X.X.X.X.X.X.| ` ~ ~ ~ ` ` ` ` ~ ~ ~ ~ ~ ~ ~ Q I L L A o . . .                         ",
"                        . . . : ]  .@.{ ' ` ` ' ^ ^ ' ~ ~ ~ ~ ` ..X.X.| ` ~ ~ ~ ~ ~ ~ ^ @.@.@.] : . . .                         ",
"                        . . . , [ $.$.o.` ~ ~ ~ ~ ~ ~ ~ ~ ~ ~ ` X.$.$.X.` ~ ~ ~ ~ ~ ~ _ @.$.$.[ , . . .                         ",
"                        . . . , [ $.$.o.` ~ ~ ~ ~ ~ ~ ~ ~ ~ ~ ` X.$.$.X.` ~ ~ ~ ~ ~ ~ ' $.$.$.[ , . . .                         ",
"                        . . . > ] @.@.} ` ~ ~ ~ ^ ` ` _ ~ ~ ~ ^ }  . . .^ ~ ~ ~ ~ ~ ~ _ } @.@.] > . . .                         ",
"                        . . . o A J J I Q ~ _ ` ..X.o...` ~ ~ Q I J J I Q ~ ~ ~ ~ ~ ~ Q I J H A o . . .                         ",
"                        . . . o 0 C C G Q _ ~ ` o.$.$.X.` ~ ~ Q G V C G Q ~ ~ ~ ~ ~ ~ Q G C C 0 o . . .                         ",
"                        . . . o 0 C C G Q _ _ ` X.$.$.o.` ~ ~ Q G C C G Q _ ~ ~ _ ~ _ Q G C C 0 X . . .                         ",
"                        . . . o V G G P E Q W ! { @. .} ^ ~ ~ Q H G G P W Q Q Q Q Q Q E H G G V o . . .                         ",
"                        . . . ; U Q Q E H G G G J J J I Q ~ ~ ~ Q Q Q E H G G G G G G P W Q Q U ; . . .                         ",
"                        . . . ; Y ~ _ Q G C C C C C C G Q ~ ~ ~ ~ _ _ Q G C C C C C V G Q _ _ Y ; . . .                         ",
"                        . . . ; Y _ _ Q G C C C C C C G Q ~ ~ ~ _ ~ ~ Q G C C C C C V H Q _ _ E ; . . .                         ",
"                        . . . ; B Y Y U H G H G C C C S E Q Q Q W Q Q E G C C C G G G H U Y E B ; . . .                         ",
"                                ; ; ; 8 U Q Q E G C C S G H G G H G G G S C C G E Q Q U , > ; ;                                 ",
"                                . . . ; Y _ _ Q G C C C C C C S C C C C C C C G Q _ _ Y ; . . .                                 ",
"                                . . . ; Y _ _ Q G C C C C C C C S C C C A C S G Q _ _ Y ; . . .                                 ",
"                                . . . ; B Y Y U H G G G C C C C C C C S G G G H U Y Y B ; . . .                                 ",
"                                        ; ; ; 8 U Q Q E G C C C C C C G E W Q U 8 ; ; ;                                         ",
"                                        . . . ; Y _ _ Q H C C C S C C G Q _ _ Y ; . . .                                         ",
"                                        . . . ; Y _ _ Q G C C C C C C G Q _ _ Y ; . . .                                         ",
"                                        . . . ; B Y Y U H G G G G H G H U Y E B ; . . .                                         ",
"                                                ; ; ; 8 U Q Q Q Q Q Q U 8 ; ; ;                                                 ",
"                                                . . . ; Y _ _ ~ ~ ~ _ Y ; . . .                                                 ",
"                                                . . . ; Y _ _ _ _ _ _ E ; . . .                                                 ",
"                                                . . . ; B Y Y Y Y Y Y B ; . . .                                                 ",
"                                                        ; ; ; ; ; ; ; ;                                                         ",
"                                                        . . . . . . . .                                                         ",
"                                                        . . . . . . . .                                                         ",
"                                                        . . . . . . . .                                                         ",
"                                                                                                                                ",
"                                                                                                                                ",
"                                                                                                                                ",
"                                                                                                                                ",
"                                                                                                                                ",
"                                                                                                                                ",
"                                                                                                                                ",
"                                                                                                                                "
};
